<svg width="234" height="212" viewBox="0 0 234 212" fill="none" xmlns="http://www.w3.org/2000/svg">
<g clip-path="url(#clip0)">
<rect x="-10" y="-12" width="256" height="236" fill="url(#paint0_linear)"/>
<path d="M113.972 77L95.1863 71.7793L91 24.7742H137L132.809 71.7722L113.972 77Z" fill="#4353AD"/>
<path d="M129.222 68.7796L132.802 28.6178H114V73.004L129.222 68.7796Z" fill="#485FB5"/>
<path d="M114 61.0235L113.975 61.03L107.561 59.2964L107.151 54.6987H101.37L102.177 63.7505L113.974 67.0288L114 67.0215V61.0235ZM99.5599 34.3827L100.083 40.1476H114V34.3827H99.5599ZM100.597 46.051L101.113 51.816H114V46.051H100.597Z" fill="#EDEDED"/>
<path d="M118.565 12.0001H125.54V14.5391H121.482V15.0471H125.54V20.8867H118.565V18.2205H122.624V17.7129H118.566V12.0001H118.565ZM110.196 12.0001H117.17V14.5391H113.112V15.0471H117.17V20.8867H110.196V18.2205H114.254V17.7129H110.195V12.0001H110.196ZM101.826 12.0001H108.801V14.9199H104.743V17.8401H108.801V20.7599H101.826V12.0001Z" fill="#100F0D"/>
<path d="M127.366 46.0511L128.406 34.3829H113.98V40.1477H122.095L121.571 46.0511H113.98V51.8161H121.071L120.403 59.2931L113.98 61.0283V67.0261L125.786 63.7506L125.872 62.7768L127.226 47.5992L127.366 46.0511Z" fill="white"/>
<path d="M24.4363 113.26C24.0363 113.26 23.6723 113.308 23.3443 113.404C23.0163 113.492 22.7203 113.596 22.4563 113.716L22.0123 112.816C22.3403 112.656 22.7163 112.532 23.1403 112.444C23.5643 112.356 24.0003 112.312 24.4483 112.312C25.3683 112.312 26.1243 112.496 26.7163 112.864C27.3163 113.232 27.7643 113.74 28.0603 114.388C28.3563 115.028 28.5043 115.756 28.5043 116.572C28.5043 117.508 28.3523 118.316 28.0483 118.996C27.7443 119.676 27.2843 120.2 26.6683 120.568C26.0603 120.936 25.2923 121.12 24.3643 121.12C23.8683 121.12 23.4483 121.092 23.1043 121.036C22.7603 120.98 22.4203 120.892 22.0843 120.772V119.836C22.4203 119.924 22.7603 120.004 23.1043 120.076C23.4483 120.14 23.8123 120.172 24.1963 120.172C25.2283 120.172 26.0043 119.9 26.5243 119.356C27.0523 118.804 27.3323 118.016 27.3643 116.992H23.2003V116.044H27.3523C27.2723 115.164 26.9723 114.48 26.4523 113.992C25.9403 113.504 25.2683 113.26 24.4363 113.26ZM34.7061 115.456H32.6061V121H31.5621V115.456H29.4861V114.568H34.7061V115.456ZM41.4479 117.772C41.4479 118.836 41.1759 119.66 40.6319 120.244C40.0959 120.828 39.3679 121.12 38.4479 121.12C37.8799 121.12 37.3719 120.992 36.9239 120.736C36.4839 120.472 36.1359 120.092 35.8799 119.596C35.6239 119.092 35.4959 118.484 35.4959 117.772C35.4959 116.708 35.7639 115.888 36.2999 115.312C36.8359 114.736 37.5639 114.448 38.4839 114.448C39.0679 114.448 39.5799 114.58 40.0199 114.844C40.4679 115.1 40.8159 115.476 41.0639 115.972C41.3199 116.46 41.4479 117.06 41.4479 117.772ZM36.5879 117.772C36.5879 118.532 36.7359 119.136 37.0319 119.584C37.3359 120.024 37.8159 120.244 38.4719 120.244C39.1199 120.244 39.5959 120.024 39.8999 119.584C40.2039 119.136 40.3559 118.532 40.3559 117.772C40.3559 117.012 40.2039 116.416 39.8999 115.984C39.5959 115.552 39.1159 115.336 38.4599 115.336C37.8039 115.336 37.3279 115.552 37.0319 115.984C36.7359 116.416 36.5879 117.012 36.5879 117.772ZM47.4444 115.456H45.3444V121H44.3004V115.456H42.2244V114.568H47.4444V115.456ZM52.2246 121H51.0006L52.8366 118.3C52.5886 118.236 52.3486 118.136 52.1166 118C51.8846 117.856 51.6966 117.66 51.5526 117.412C51.4086 117.156 51.3366 116.84 51.3366 116.464C51.3366 115.848 51.5446 115.38 51.9606 115.06C52.3766 114.732 52.9286 114.568 53.6166 114.568H56.4966V121H55.4406V118.444H53.8806L52.2246 121ZM52.3566 116.476C52.3566 116.844 52.4926 117.12 52.7646 117.304C53.0446 117.48 53.4326 117.568 53.9286 117.568H55.4406V115.444H53.7246C53.2366 115.444 52.8846 115.54 52.6686 115.732C52.4606 115.924 52.3566 116.172 52.3566 116.476ZM60.2237 114.448C60.9597 114.448 61.5437 114.596 61.9757 114.892C62.4157 115.18 62.6357 115.596 62.6357 116.14C62.6357 116.532 62.5277 116.844 62.3117 117.076C62.0957 117.3 61.7997 117.464 61.4237 117.568V117.616C61.6797 117.688 61.9157 117.788 62.1317 117.916C62.3477 118.044 62.5197 118.212 62.6477 118.42C62.7837 118.628 62.8517 118.896 62.8517 119.224C62.8517 119.76 62.6277 120.212 62.1797 120.58C61.7397 120.94 61.0477 121.12 60.1037 121.12C59.6397 121.12 59.2197 121.08 58.8437 121C58.4677 120.928 58.1557 120.828 57.9077 120.7V119.752C58.1797 119.88 58.4997 119.996 58.8677 120.1C59.2437 120.204 59.6517 120.256 60.0917 120.256C60.5717 120.256 60.9757 120.176 61.3037 120.016C61.6397 119.848 61.8077 119.564 61.8077 119.164C61.8077 118.444 61.1957 118.084 59.9717 118.084H59.1077V117.22H59.8037C60.3557 117.22 60.7957 117.148 61.1237 117.004C61.4597 116.852 61.6277 116.596 61.6277 116.236C61.6277 115.932 61.4997 115.704 61.2437 115.552C60.9957 115.4 60.6357 115.324 60.1637 115.324C59.8117 115.324 59.4997 115.36 59.2277 115.432C58.9637 115.496 58.6717 115.596 58.3517 115.732L57.9797 114.892C58.6517 114.596 59.3997 114.448 60.2237 114.448ZM64.4145 121V114.568H65.4705V117.208H67.1385C67.9705 117.208 68.5865 117.36 68.9865 117.664C69.3865 117.968 69.5865 118.424 69.5865 119.032C69.5865 119.632 69.3905 120.112 68.9985 120.472C68.6065 120.824 67.9705 121 67.0905 121H64.4145ZM70.6545 121V114.568H71.7105V121H70.6545ZM66.9945 120.148C67.4505 120.148 67.8225 120.072 68.1105 119.92C68.3985 119.76 68.5425 119.484 68.5425 119.092C68.5425 118.7 68.4105 118.436 68.1465 118.3C67.8825 118.156 67.5025 118.084 67.0065 118.084H65.4705V120.148H66.9945ZM77.5584 114.568H78.7104L75.9624 117.664L78.9384 121H77.7144L74.8104 117.736V121H73.7544V114.568H74.8104V117.688L77.5584 114.568ZM85.8031 121.12C85.2351 121.12 84.7271 121.004 84.2791 120.772C83.8391 120.54 83.4911 120.18 83.2351 119.692C82.9871 119.204 82.8631 118.58 82.8631 117.82C82.8631 117.028 82.9951 116.384 83.2591 115.888C83.5231 115.392 83.8791 115.028 84.3271 114.796C84.7831 114.564 85.2991 114.448 85.8751 114.448C86.2031 114.448 86.5191 114.484 86.8231 114.556C87.1271 114.62 87.3751 114.7 87.5671 114.796L87.2431 115.672C87.0511 115.6 86.8271 115.532 86.5711 115.468C86.3151 115.404 86.0751 115.372 85.8511 115.372C84.5871 115.372 83.9551 116.184 83.9551 117.808C83.9551 118.584 84.1071 119.18 84.4111 119.596C84.7231 120.004 85.1831 120.208 85.7911 120.208C86.1431 120.208 86.4511 120.172 86.7151 120.1C86.9871 120.028 87.2351 119.94 87.4591 119.836V120.772C87.2431 120.884 87.0031 120.968 86.7391 121.024C86.4831 121.088 86.1711 121.12 85.8031 121.12ZM93.4288 115.456H91.3288V121H90.2848V115.456H88.2088V114.568H93.4288V115.456ZM95.6918 118.492C95.6918 118.588 95.6878 118.732 95.6798 118.924C95.6718 119.116 95.6598 119.308 95.6438 119.5C95.6358 119.692 95.6278 119.844 95.6198 119.956L99.0638 114.568H100.36V121H99.3758V117.208C99.3758 117.08 99.3758 116.912 99.3758 116.704C99.3838 116.496 99.3918 116.292 99.3998 116.092C99.4078 115.884 99.4158 115.728 99.4238 115.624L96.0038 121H94.6958V114.568H95.6918V118.492ZM107.303 121H106.235V115.444H104.339C104.235 116.796 104.091 117.888 103.907 118.72C103.723 119.544 103.479 120.144 103.175 120.52C102.871 120.896 102.487 121.084 102.023 121.084C101.919 121.084 101.815 121.076 101.711 121.06C101.615 121.052 101.535 121.032 101.471 121V120.208C101.519 120.224 101.571 120.236 101.627 120.244C101.683 120.252 101.739 120.256 101.795 120.256C102.227 120.256 102.571 119.796 102.827 118.876C103.091 117.956 103.291 116.52 103.427 114.568H107.303V121ZM111.828 114.448C112.38 114.448 112.852 114.568 113.244 114.808C113.644 115.048 113.948 115.388 114.156 115.828C114.372 116.26 114.48 116.768 114.48 117.352V117.988H110.076C110.092 118.716 110.276 119.272 110.628 119.656C110.988 120.032 111.488 120.22 112.128 120.22C112.536 120.22 112.896 120.184 113.208 120.112C113.528 120.032 113.856 119.92 114.192 119.776V120.7C113.864 120.844 113.54 120.948 113.22 121.012C112.9 121.084 112.52 121.12 112.08 121.12C111.472 121.12 110.932 120.996 110.46 120.748C109.996 120.5 109.632 120.132 109.368 119.644C109.112 119.148 108.984 118.544 108.984 117.832C108.984 117.128 109.1 116.524 109.332 116.02C109.572 115.516 109.904 115.128 110.328 114.856C110.76 114.584 111.26 114.448 111.828 114.448ZM111.816 115.312C111.312 115.312 110.912 115.476 110.616 115.804C110.328 116.124 110.156 116.572 110.1 117.148H113.376C113.368 116.604 113.24 116.164 112.992 115.828C112.744 115.484 112.352 115.312 111.816 115.312ZM121.326 111.904C121.27 112.504 121.066 112.96 120.714 113.272C120.37 113.576 119.818 113.728 119.058 113.728C118.274 113.728 117.718 113.576 117.39 113.272C117.07 112.968 116.89 112.512 116.85 111.904H117.834C117.874 112.336 117.986 112.628 118.17 112.78C118.362 112.924 118.666 112.996 119.082 112.996C119.45 112.996 119.738 112.92 119.946 112.768C120.162 112.608 120.29 112.32 120.33 111.904H121.326ZM117.114 118.492C117.114 118.588 117.11 118.732 117.102 118.924C117.094 119.116 117.082 119.308 117.066 119.5C117.058 119.692 117.05 119.844 117.042 119.956L120.486 114.568H121.782V121H120.798V117.208C120.798 117.08 120.798 116.912 120.798 116.704C120.806 116.496 120.814 116.292 120.822 116.092C120.83 115.884 120.838 115.728 120.846 115.624L117.426 121H116.118V114.568H117.114V118.492ZM132.382 114.568V121H131.326V115.468H128.002V121H126.946V114.568H132.382ZM140.026 117.772C140.026 118.836 139.754 119.66 139.21 120.244C138.674 120.828 137.946 121.12 137.026 121.12C136.458 121.12 135.95 120.992 135.502 120.736C135.062 120.472 134.714 120.092 134.458 119.596C134.202 119.092 134.074 118.484 134.074 117.772C134.074 116.708 134.342 115.888 134.878 115.312C135.414 114.736 136.142 114.448 137.062 114.448C137.646 114.448 138.158 114.58 138.598 114.844C139.046 115.1 139.394 115.476 139.642 115.972C139.898 116.46 140.026 117.06 140.026 117.772ZM135.166 117.772C135.166 118.532 135.314 119.136 135.61 119.584C135.914 120.024 136.394 120.244 137.05 120.244C137.698 120.244 138.174 120.024 138.478 119.584C138.782 119.136 138.934 118.532 138.934 117.772C138.934 117.012 138.782 116.416 138.478 115.984C138.174 115.552 137.694 115.336 137.038 115.336C136.382 115.336 135.906 115.552 135.61 115.984C135.314 116.416 135.166 117.012 135.166 117.772ZM143.392 114.448C144.128 114.448 144.712 114.596 145.144 114.892C145.584 115.18 145.804 115.596 145.804 116.14C145.804 116.532 145.696 116.844 145.48 117.076C145.264 117.3 144.968 117.464 144.592 117.568V117.616C144.848 117.688 145.084 117.788 145.3 117.916C145.516 118.044 145.688 118.212 145.816 118.42C145.952 118.628 146.02 118.896 146.02 119.224C146.02 119.76 145.796 120.212 145.348 120.58C144.908 120.94 144.216 121.12 143.272 121.12C142.808 121.12 142.388 121.08 142.012 121C141.636 120.928 141.324 120.828 141.076 120.7V119.752C141.348 119.88 141.668 119.996 142.036 120.1C142.412 120.204 142.82 120.256 143.26 120.256C143.74 120.256 144.144 120.176 144.472 120.016C144.808 119.848 144.976 119.564 144.976 119.164C144.976 118.444 144.364 118.084 143.14 118.084H142.276V117.22H142.972C143.524 117.22 143.964 117.148 144.292 117.004C144.628 116.852 144.796 116.596 144.796 116.236C144.796 115.932 144.668 115.704 144.412 115.552C144.164 115.4 143.804 115.324 143.332 115.324C142.98 115.324 142.668 115.36 142.396 115.432C142.132 115.496 141.84 115.596 141.52 115.732L141.148 114.892C141.82 114.596 142.568 114.448 143.392 114.448ZM152.755 116.188C152.755 116.588 152.635 116.9 152.395 117.124C152.155 117.348 151.847 117.5 151.471 117.58V117.628C151.871 117.684 152.219 117.828 152.515 118.06C152.811 118.284 152.959 118.636 152.959 119.116C152.959 119.66 152.755 120.112 152.347 120.472C151.947 120.824 151.283 121 150.355 121H147.583V114.568H150.343C150.799 114.568 151.207 114.62 151.567 114.724C151.935 114.82 152.223 114.988 152.431 115.228C152.647 115.46 152.755 115.78 152.755 116.188ZM151.687 116.32C151.687 116.016 151.575 115.796 151.351 115.66C151.135 115.516 150.779 115.444 150.283 115.444H148.639V117.208H150.09C151.155 117.208 151.687 116.912 151.687 116.32ZM151.867 119.116C151.867 118.748 151.727 118.484 151.447 118.324C151.167 118.164 150.755 118.084 150.211 118.084H148.639V120.148H150.235C150.763 120.148 151.167 120.072 151.447 119.92C151.727 119.76 151.867 119.492 151.867 119.116ZM160.089 117.772C160.089 118.836 159.817 119.66 159.273 120.244C158.737 120.828 158.009 121.12 157.089 121.12C156.521 121.12 156.013 120.992 155.565 120.736C155.125 120.472 154.777 120.092 154.521 119.596C154.265 119.092 154.137 118.484 154.137 117.772C154.137 116.708 154.405 115.888 154.941 115.312C155.477 114.736 156.205 114.448 157.125 114.448C157.709 114.448 158.221 114.58 158.661 114.844C159.109 115.1 159.457 115.476 159.705 115.972C159.961 116.46 160.089 117.06 160.089 117.772ZM155.229 117.772C155.229 118.532 155.377 119.136 155.673 119.584C155.977 120.024 156.457 120.244 157.113 120.244C157.761 120.244 158.237 120.024 158.541 119.584C158.845 119.136 158.997 118.532 158.997 117.772C158.997 117.012 158.845 116.416 158.541 115.984C158.237 115.552 157.757 115.336 157.101 115.336C156.445 115.336 155.969 115.552 155.673 115.984C155.377 116.416 155.229 117.012 155.229 117.772ZM166.658 121H165.59V115.444H163.694C163.59 116.796 163.446 117.888 163.262 118.72C163.078 119.544 162.834 120.144 162.53 120.52C162.226 120.896 161.842 121.084 161.378 121.084C161.274 121.084 161.17 121.076 161.066 121.06C160.97 121.052 160.89 121.032 160.826 121V120.208C160.874 120.224 160.926 120.236 160.982 120.244C161.038 120.252 161.094 120.256 161.15 120.256C161.582 120.256 161.926 119.796 162.182 118.876C162.446 117.956 162.646 116.52 162.782 114.568H166.658V121ZM169.096 121H167.872L169.708 118.3C169.46 118.236 169.22 118.136 168.988 118C168.756 117.856 168.568 117.66 168.424 117.412C168.28 117.156 168.208 116.84 168.208 116.464C168.208 115.848 168.416 115.38 168.832 115.06C169.248 114.732 169.8 114.568 170.488 114.568H173.368V121H172.312V118.444H170.752L169.096 121ZM169.228 116.476C169.228 116.844 169.364 117.12 169.636 117.304C169.916 117.48 170.304 117.568 170.8 117.568H172.312V115.444H170.596C170.108 115.444 169.756 115.54 169.54 115.732C169.332 115.924 169.228 116.172 169.228 116.476ZM177.887 114.448C178.439 114.448 178.911 114.568 179.303 114.808C179.703 115.048 180.007 115.388 180.215 115.828C180.431 116.26 180.539 116.768 180.539 117.352V117.988H176.135C176.151 118.716 176.335 119.272 176.687 119.656C177.047 120.032 177.547 120.22 178.187 120.22C178.595 120.22 178.955 120.184 179.267 120.112C179.587 120.032 179.915 119.92 180.251 119.776V120.7C179.923 120.844 179.599 120.948 179.279 121.012C178.959 121.084 178.579 121.12 178.139 121.12C177.531 121.12 176.991 120.996 176.519 120.748C176.055 120.5 175.691 120.132 175.427 119.644C175.171 119.148 175.043 118.544 175.043 117.832C175.043 117.128 175.159 116.524 175.391 116.02C175.631 115.516 175.963 115.128 176.387 114.856C176.819 114.584 177.319 114.448 177.887 114.448ZM177.875 115.312C177.371 115.312 176.971 115.476 176.675 115.804C176.387 116.124 176.215 116.572 176.159 117.148H179.435C179.427 116.604 179.299 116.164 179.051 115.828C178.803 115.484 178.411 115.312 177.875 115.312ZM186.616 115.456H184.516V121H183.472V115.456H181.396V114.568H186.616V115.456ZM197.9 114.568V121H196.952V116.896C196.952 116.728 196.956 116.552 196.964 116.368C196.98 116.184 196.996 116.004 197.012 115.828H196.976L194.876 121H193.988L191.948 115.828H191.912C191.936 116.188 191.948 116.556 191.948 116.932V121H191V114.568H192.404L194.432 119.74L196.496 114.568H197.9ZM201.01 114.568V117.244H204.502V114.568H205.558V121H204.502V118.132H201.01V121H199.954V114.568H201.01ZM210.078 114.448C210.63 114.448 211.102 114.568 211.494 114.808C211.894 115.048 212.198 115.388 212.406 115.828C212.622 116.26 212.73 116.768 212.73 117.352V117.988H208.326C208.342 118.716 208.526 119.272 208.878 119.656C209.238 120.032 209.738 120.22 210.378 120.22C210.786 120.22 211.146 120.184 211.458 120.112C211.778 120.032 212.106 119.92 212.442 119.776V120.7C212.114 120.844 211.79 120.948 211.47 121.012C211.15 121.084 210.77 121.12 210.33 121.12C209.722 121.12 209.182 120.996 208.71 120.748C208.246 120.5 207.882 120.132 207.618 119.644C207.362 119.148 207.234 118.544 207.234 117.832C207.234 117.128 207.35 116.524 207.582 116.02C207.822 115.516 208.154 115.128 208.578 114.856C209.01 114.584 209.51 114.448 210.078 114.448ZM210.066 115.312C209.562 115.312 209.162 115.476 208.866 115.804C208.578 116.124 208.406 116.572 208.35 117.148H211.626C211.618 116.604 211.49 116.164 211.242 115.828C210.994 115.484 210.602 115.312 210.066 115.312ZM36.6723 139.12C36.1043 139.12 35.5963 139.004 35.1483 138.772C34.7083 138.54 34.3603 138.18 34.1043 137.692C33.8563 137.204 33.7323 136.58 33.7323 135.82C33.7323 135.028 33.8643 134.384 34.1283 133.888C34.3923 133.392 34.7483 133.028 35.1963 132.796C35.6523 132.564 36.1683 132.448 36.7443 132.448C37.0723 132.448 37.3883 132.484 37.6923 132.556C37.9963 132.62 38.2443 132.7 38.4363 132.796L38.1123 133.672C37.9203 133.6 37.6963 133.532 37.4403 133.468C37.1843 133.404 36.9443 133.372 36.7203 133.372C35.4563 133.372 34.8243 134.184 34.8243 135.808C34.8243 136.584 34.9763 137.18 35.2803 137.596C35.5923 138.004 36.0523 138.208 36.6603 138.208C37.0123 138.208 37.3203 138.172 37.5843 138.1C37.8563 138.028 38.1043 137.94 38.3283 137.836V138.772C38.1123 138.884 37.8723 138.968 37.6083 139.024C37.3523 139.088 37.0403 139.12 36.6723 139.12ZM45.4499 135.772C45.4499 136.836 45.1779 137.66 44.6339 138.244C44.0979 138.828 43.3699 139.12 42.4499 139.12C41.8819 139.12 41.3739 138.992 40.9259 138.736C40.4859 138.472 40.1379 138.092 39.8819 137.596C39.6259 137.092 39.4979 136.484 39.4979 135.772C39.4979 134.708 39.7659 133.888 40.3019 133.312C40.8379 132.736 41.5659 132.448 42.4859 132.448C43.0699 132.448 43.5819 132.58 44.0219 132.844C44.4699 133.1 44.8179 133.476 45.0659 133.972C45.3219 134.46 45.4499 135.06 45.4499 135.772ZM40.5899 135.772C40.5899 136.532 40.7379 137.136 41.0339 137.584C41.3379 138.024 41.8179 138.244 42.4739 138.244C43.1219 138.244 43.5979 138.024 43.9019 137.584C44.2059 137.136 44.3579 136.532 44.3579 135.772C44.3579 135.012 44.2059 134.416 43.9019 133.984C43.5979 133.552 43.1179 133.336 42.4619 133.336C41.8059 133.336 41.3299 133.552 41.0339 133.984C40.7379 134.416 40.5899 135.012 40.5899 135.772ZM48.8155 132.448C49.5515 132.448 50.1355 132.596 50.5675 132.892C51.0075 133.18 51.2275 133.596 51.2275 134.14C51.2275 134.532 51.1195 134.844 50.9035 135.076C50.6875 135.3 50.3915 135.464 50.0155 135.568V135.616C50.2715 135.688 50.5075 135.788 50.7235 135.916C50.9395 136.044 51.1115 136.212 51.2395 136.42C51.3755 136.628 51.4435 136.896 51.4435 137.224C51.4435 137.76 51.2195 138.212 50.7715 138.58C50.3315 138.94 49.6395 139.12 48.6955 139.12C48.2315 139.12 47.8115 139.08 47.4355 139C47.0595 138.928 46.7475 138.828 46.4995 138.7V137.752C46.7715 137.88 47.0915 137.996 47.4595 138.1C47.8355 138.204 48.2435 138.256 48.6835 138.256C49.1635 138.256 49.5675 138.176 49.8955 138.016C50.2315 137.848 50.3995 137.564 50.3995 137.164C50.3995 136.444 49.7875 136.084 48.5635 136.084H47.6995V135.22H48.3955C48.9475 135.22 49.3875 135.148 49.7155 135.004C50.0515 134.852 50.2195 134.596 50.2195 134.236C50.2195 133.932 50.0915 133.704 49.8355 133.552C49.5875 133.4 49.2275 133.324 48.7555 133.324C48.4035 133.324 48.0915 133.36 47.8195 133.432C47.5555 133.496 47.2635 133.596 46.9435 133.732L46.5715 132.892C47.2435 132.596 47.9915 132.448 48.8155 132.448ZM57.7823 132.568V138.112H58.7183V141.232H57.6983V139H53.2223V141.232H52.2143V138.112H52.7303C53.2823 137.352 53.6943 136.488 53.9663 135.52C54.2463 134.544 54.3903 133.56 54.3983 132.568H57.7823ZM55.3343 133.396C55.3023 133.94 55.2183 134.504 55.0823 135.088C54.9463 135.664 54.7703 136.216 54.5543 136.744C54.3463 137.272 54.1023 137.728 53.8223 138.112H56.7623V133.396H55.3343ZM62.415 132.46C63.199 132.46 63.779 132.632 64.155 132.976C64.531 133.32 64.719 133.868 64.719 134.62V139H63.951L63.747 138.088H63.699C63.419 138.44 63.123 138.7 62.811 138.868C62.507 139.036 62.083 139.12 61.539 139.12C60.955 139.12 60.471 138.968 60.087 138.664C59.703 138.352 59.511 137.868 59.511 137.212C59.511 136.572 59.763 136.08 60.267 135.736C60.771 135.384 61.547 135.192 62.595 135.16L63.687 135.124V134.74C63.687 134.204 63.571 133.832 63.339 133.624C63.107 133.416 62.779 133.312 62.355 133.312C62.019 133.312 61.699 133.364 61.395 133.468C61.091 133.564 60.807 133.676 60.543 133.804L60.219 133.012C60.499 132.86 60.831 132.732 61.215 132.628C61.599 132.516 61.999 132.46 62.415 132.46ZM62.727 135.892C61.927 135.924 61.371 136.052 61.059 136.276C60.755 136.5 60.603 136.816 60.603 137.224C60.603 137.584 60.711 137.848 60.927 138.016C61.151 138.184 61.435 138.268 61.779 138.268C62.323 138.268 62.775 138.12 63.135 137.824C63.495 137.52 63.675 137.056 63.675 136.432V135.856L62.727 135.892ZM71.8775 134.188C71.8775 134.588 71.7575 134.9 71.5175 135.124C71.2775 135.348 70.9695 135.5 70.5935 135.58V135.628C70.9935 135.684 71.3415 135.828 71.6375 136.06C71.9335 136.284 72.0815 136.636 72.0815 137.116C72.0815 137.66 71.8775 138.112 71.4695 138.472C71.0695 138.824 70.4055 139 69.4775 139H66.7055V132.568H69.4655C69.9215 132.568 70.3295 132.62 70.6895 132.724C71.0575 132.82 71.3455 132.988 71.5535 133.228C71.7695 133.46 71.8775 133.78 71.8775 134.188ZM70.8095 134.32C70.8095 134.016 70.6975 133.796 70.4735 133.66C70.2575 133.516 69.9015 133.444 69.4055 133.444H67.7615V135.208H69.2135C70.2775 135.208 70.8095 134.912 70.8095 134.32ZM70.9895 137.116C70.9895 136.748 70.8495 136.484 70.5695 136.324C70.2895 136.164 69.8775 136.084 69.3335 136.084H67.7615V138.148H69.3575C69.8855 138.148 70.2895 138.072 70.5695 137.92C70.8495 137.76 70.9895 137.492 70.9895 137.116ZM76.0556 132.46C76.8396 132.46 77.4196 132.632 77.7956 132.976C78.1716 133.32 78.3596 133.868 78.3596 134.62V139H77.5916L77.3876 138.088H77.3396C77.0596 138.44 76.7636 138.7 76.4516 138.868C76.1476 139.036 75.7236 139.12 75.1796 139.12C74.5956 139.12 74.1116 138.968 73.7276 138.664C73.3436 138.352 73.1516 137.868 73.1516 137.212C73.1516 136.572 73.4036 136.08 73.9076 135.736C74.4116 135.384 75.1876 135.192 76.2356 135.16L77.3276 135.124V134.74C77.3276 134.204 77.2116 133.832 76.9796 133.624C76.7476 133.416 76.4196 133.312 75.9956 133.312C75.6596 133.312 75.3396 133.364 75.0356 133.468C74.7316 133.564 74.4476 133.676 74.1836 133.804L73.8596 133.012C74.1396 132.86 74.4716 132.732 74.8556 132.628C75.2396 132.516 75.6396 132.46 76.0556 132.46ZM76.3676 135.892C75.5676 135.924 75.0116 136.052 74.6996 136.276C74.3956 136.5 74.2436 136.816 74.2436 137.224C74.2436 137.584 74.3516 137.848 74.5676 138.016C74.7916 138.184 75.0756 138.268 75.4196 138.268C75.9636 138.268 76.4156 138.12 76.7756 137.824C77.1356 137.52 77.3156 137.056 77.3156 136.432V135.856L76.3676 135.892ZM84.7862 133.456H82.6862V139H81.6422V133.456H79.5662V132.568H84.7862V133.456ZM89.0172 135.208C90.6892 135.208 91.5252 135.816 91.5252 137.032C91.5252 137.632 91.3212 138.112 90.9132 138.472C90.5052 138.824 89.8572 139 88.9692 139H86.0532V132.568H87.1092V135.208H89.0172ZM90.4692 137.092C90.4692 136.7 90.3292 136.436 90.0492 136.3C89.7772 136.156 89.3932 136.084 88.8972 136.084H87.1092V138.148H88.9212C89.3692 138.148 89.7372 138.068 90.0252 137.908C90.3212 137.748 90.4692 137.476 90.4692 137.092ZM98.7314 132.46C99.5154 132.46 100.095 132.632 100.471 132.976C100.847 133.32 101.035 133.868 101.035 134.62V139H100.267L100.063 138.088H100.015C99.7354 138.44 99.4394 138.7 99.1274 138.868C98.8234 139.036 98.3994 139.12 97.8554 139.12C97.2714 139.12 96.7874 138.968 96.4034 138.664C96.0194 138.352 95.8274 137.868 95.8274 137.212C95.8274 136.572 96.0794 136.08 96.5834 135.736C97.0874 135.384 97.8634 135.192 98.9114 135.16L100.003 135.124V134.74C100.003 134.204 99.8874 133.832 99.6554 133.624C99.4234 133.416 99.0954 133.312 98.6714 133.312C98.3354 133.312 98.0154 133.364 97.7114 133.468C97.4074 133.564 97.1234 133.676 96.8594 133.804L96.5354 133.012C96.8154 132.86 97.1474 132.732 97.5314 132.628C97.9154 132.516 98.3154 132.46 98.7314 132.46ZM99.0434 135.892C98.2434 135.924 97.6874 136.052 97.3754 136.276C97.0714 136.5 96.9194 136.816 96.9194 137.224C96.9194 137.584 97.0274 137.848 97.2434 138.016C97.4674 138.184 97.7514 138.268 98.0954 138.268C98.6394 138.268 99.0914 138.12 99.4514 137.824C99.8114 137.52 99.9914 137.056 99.9914 136.432V135.856L99.0434 135.892ZM102.686 135.136C102.686 133.728 102.898 132.632 103.322 131.848C103.746 131.056 104.43 130.56 105.374 130.36C105.894 130.248 106.402 130.148 106.898 130.06C107.394 129.972 107.858 129.892 108.29 129.82L108.47 130.744C108.19 130.784 107.874 130.836 107.522 130.9C107.17 130.956 106.822 131.016 106.478 131.08C106.134 131.136 105.838 131.192 105.59 131.248C105.07 131.36 104.658 131.632 104.354 132.064C104.05 132.488 103.878 133.152 103.838 134.056H103.91C104.022 133.904 104.174 133.748 104.366 133.588C104.566 133.428 104.802 133.292 105.074 133.18C105.354 133.068 105.67 133.012 106.022 133.012C106.854 133.012 107.482 133.28 107.906 133.816C108.33 134.352 108.542 135.048 108.542 135.904C108.542 136.616 108.418 137.212 108.17 137.692C107.922 138.172 107.578 138.532 107.138 138.772C106.698 139.004 106.186 139.12 105.602 139.12C104.714 139.12 104.006 138.78 103.478 138.1C102.95 137.42 102.686 136.432 102.686 135.136ZM105.686 138.244C106.206 138.244 106.626 138.076 106.946 137.74C107.266 137.404 107.426 136.828 107.426 136.012C107.426 135.356 107.302 134.84 107.054 134.464C106.814 134.08 106.414 133.888 105.854 133.888C105.502 133.888 105.182 133.968 104.894 134.128C104.606 134.28 104.366 134.456 104.174 134.656C103.982 134.856 103.846 135.024 103.766 135.16C103.766 135.552 103.794 135.932 103.85 136.3C103.906 136.668 104.002 137 104.138 137.296C104.282 137.584 104.478 137.816 104.726 137.992C104.982 138.16 105.302 138.244 105.686 138.244ZM112.786 139.12C112.218 139.12 111.71 139.004 111.262 138.772C110.822 138.54 110.474 138.18 110.218 137.692C109.97 137.204 109.846 136.58 109.846 135.82C109.846 135.028 109.978 134.384 110.242 133.888C110.506 133.392 110.862 133.028 111.31 132.796C111.766 132.564 112.282 132.448 112.858 132.448C113.186 132.448 113.502 132.484 113.806 132.556C114.11 132.62 114.358 132.7 114.55 132.796L114.226 133.672C114.034 133.6 113.81 133.532 113.554 133.468C113.298 133.404 113.058 133.372 112.834 133.372C111.57 133.372 110.938 134.184 110.938 135.808C110.938 136.584 111.09 137.18 111.394 137.596C111.706 138.004 112.166 138.208 112.774 138.208C113.126 138.208 113.434 138.172 113.698 138.1C113.97 138.028 114.218 137.94 114.442 137.836V138.772C114.226 138.884 113.986 138.968 113.722 139.024C113.466 139.088 113.154 139.12 112.786 139.12ZM121.563 135.772C121.563 136.836 121.291 137.66 120.747 138.244C120.211 138.828 119.483 139.12 118.563 139.12C117.995 139.12 117.487 138.992 117.039 138.736C116.599 138.472 116.251 138.092 115.995 137.596C115.739 137.092 115.611 136.484 115.611 135.772C115.611 134.708 115.879 133.888 116.415 133.312C116.951 132.736 117.679 132.448 118.599 132.448C119.183 132.448 119.695 132.58 120.135 132.844C120.583 133.1 120.931 133.476 121.179 133.972C121.435 134.46 121.563 135.06 121.563 135.772ZM116.703 135.772C116.703 136.532 116.851 137.136 117.147 137.584C117.451 138.024 117.931 138.244 118.587 138.244C119.235 138.244 119.711 138.024 120.015 137.584C120.319 137.136 120.471 136.532 120.471 135.772C120.471 135.012 120.319 134.416 120.015 133.984C119.711 133.552 119.231 133.336 118.575 133.336C117.919 133.336 117.443 133.552 117.147 133.984C116.851 134.416 116.703 135.012 116.703 135.772ZM128.133 139H127.065V133.444H125.169C125.065 134.796 124.921 135.888 124.737 136.72C124.553 137.544 124.309 138.144 124.005 138.52C123.701 138.896 123.317 139.084 122.853 139.084C122.749 139.084 122.645 139.076 122.541 139.06C122.445 139.052 122.365 139.032 122.301 139V138.208C122.349 138.224 122.401 138.236 122.457 138.244C122.513 138.252 122.569 138.256 122.625 138.256C123.057 138.256 123.401 137.796 123.657 136.876C123.921 135.956 124.121 134.52 124.257 132.568H128.133V139ZM138.526 135.772C138.526 136.836 138.27 137.66 137.758 138.244C137.246 138.828 136.554 139.12 135.682 139.12C134.866 139.12 134.206 138.864 133.702 138.352C133.206 137.84 132.926 137.1 132.862 136.132H131.23V139H130.174V132.568H131.23V135.244H132.874C132.962 134.34 133.254 133.648 133.75 133.168C134.246 132.688 134.898 132.448 135.706 132.448C136.258 132.448 136.746 132.58 137.17 132.844C137.594 133.1 137.926 133.476 138.166 133.972C138.406 134.46 138.526 135.06 138.526 135.772ZM133.942 135.772C133.942 136.58 134.082 137.196 134.362 137.62C134.642 138.036 135.086 138.244 135.694 138.244C136.31 138.244 136.754 138.036 137.026 137.62C137.298 137.196 137.434 136.58 137.434 135.772C137.434 134.964 137.294 134.356 137.014 133.948C136.742 133.54 136.302 133.336 135.694 133.336C135.086 133.336 134.642 133.54 134.362 133.948C134.082 134.356 133.942 134.964 133.942 135.772ZM144.528 133.456H142.428V139H141.384V133.456H139.308V132.568H144.528V133.456ZM146.851 132.568V135.244H150.343V132.568H151.399V139H150.343V136.132H146.851V139H145.795V132.568H146.851ZM159.028 135.772C159.028 136.836 158.756 137.66 158.212 138.244C157.676 138.828 156.948 139.12 156.028 139.12C155.46 139.12 154.952 138.992 154.504 138.736C154.064 138.472 153.716 138.092 153.46 137.596C153.204 137.092 153.076 136.484 153.076 135.772C153.076 134.708 153.344 133.888 153.88 133.312C154.416 132.736 155.144 132.448 156.064 132.448C156.648 132.448 157.16 132.58 157.6 132.844C158.048 133.1 158.396 133.476 158.644 133.972C158.9 134.46 159.028 135.06 159.028 135.772ZM154.168 135.772C154.168 136.532 154.316 137.136 154.612 137.584C154.916 138.024 155.396 138.244 156.052 138.244C156.7 138.244 157.176 138.024 157.48 137.584C157.784 137.136 157.936 136.532 157.936 135.772C157.936 135.012 157.784 134.416 157.48 133.984C157.176 133.552 156.696 133.336 156.04 133.336C155.384 133.336 154.908 133.552 154.612 133.984C154.316 134.416 154.168 135.012 154.168 135.772ZM168.715 139H167.647V133.444H165.751C165.647 134.796 165.503 135.888 165.319 136.72C165.135 137.544 164.891 138.144 164.587 138.52C164.283 138.896 163.899 139.084 163.435 139.084C163.331 139.084 163.227 139.076 163.123 139.06C163.027 139.052 162.947 139.032 162.883 139V138.208C162.931 138.224 162.983 138.236 163.039 138.244C163.095 138.252 163.151 138.256 163.207 138.256C163.639 138.256 163.983 137.796 164.239 136.876C164.503 135.956 164.703 134.52 164.839 132.568H168.715V139ZM179.108 135.772C179.108 136.836 178.852 137.66 178.34 138.244C177.828 138.828 177.136 139.12 176.264 139.12C175.448 139.12 174.788 138.864 174.284 138.352C173.788 137.84 173.508 137.1 173.444 136.132H171.812V139H170.756V132.568H171.812V135.244H173.456C173.544 134.34 173.836 133.648 174.332 133.168C174.828 132.688 175.48 132.448 176.288 132.448C176.84 132.448 177.328 132.58 177.752 132.844C178.176 133.1 178.508 133.476 178.748 133.972C178.988 134.46 179.108 135.06 179.108 135.772ZM174.524 135.772C174.524 136.58 174.664 137.196 174.944 137.62C175.224 138.036 175.668 138.244 176.276 138.244C176.892 138.244 177.336 138.036 177.608 137.62C177.88 137.196 178.016 136.58 178.016 135.772C178.016 134.964 177.876 134.356 177.596 133.948C177.324 133.54 176.884 133.336 176.276 133.336C175.668 133.336 175.224 133.54 174.944 133.948C174.664 134.356 174.524 134.964 174.524 135.772ZM180.452 135.136C180.452 133.728 180.664 132.632 181.088 131.848C181.512 131.056 182.196 130.56 183.14 130.36C183.66 130.248 184.168 130.148 184.664 130.06C185.16 129.972 185.624 129.892 186.056 129.82L186.236 130.744C185.956 130.784 185.64 130.836 185.288 130.9C184.936 130.956 184.588 131.016 184.244 131.08C183.9 131.136 183.604 131.192 183.356 131.248C182.836 131.36 182.424 131.632 182.12 132.064C181.816 132.488 181.644 133.152 181.604 134.056H181.676C181.788 133.904 181.94 133.748 182.132 133.588C182.332 133.428 182.568 133.292 182.84 133.18C183.12 133.068 183.436 133.012 183.788 133.012C184.62 133.012 185.248 133.28 185.672 133.816C186.096 134.352 186.308 135.048 186.308 135.904C186.308 136.616 186.184 137.212 185.936 137.692C185.688 138.172 185.344 138.532 184.904 138.772C184.464 139.004 183.952 139.12 183.368 139.12C182.48 139.12 181.772 138.78 181.244 138.1C180.716 137.42 180.452 136.432 180.452 135.136ZM183.452 138.244C183.972 138.244 184.392 138.076 184.712 137.74C185.032 137.404 185.192 136.828 185.192 136.012C185.192 135.356 185.068 134.84 184.82 134.464C184.58 134.08 184.18 133.888 183.62 133.888C183.268 133.888 182.948 133.968 182.66 134.128C182.372 134.28 182.132 134.456 181.94 134.656C181.748 134.856 181.612 135.024 181.532 135.16C181.532 135.552 181.56 135.932 181.616 136.3C181.672 136.668 181.768 137 181.904 137.296C182.048 137.584 182.244 137.816 182.492 137.992C182.748 138.16 183.068 138.244 183.452 138.244ZM193.563 135.772C193.563 136.836 193.291 137.66 192.747 138.244C192.211 138.828 191.483 139.12 190.563 139.12C189.995 139.12 189.487 138.992 189.039 138.736C188.599 138.472 188.251 138.092 187.995 137.596C187.739 137.092 187.611 136.484 187.611 135.772C187.611 134.708 187.879 133.888 188.415 133.312C188.951 132.736 189.679 132.448 190.599 132.448C191.183 132.448 191.695 132.58 192.135 132.844C192.583 133.1 192.931 133.476 193.179 133.972C193.435 134.46 193.563 135.06 193.563 135.772ZM188.703 135.772C188.703 136.532 188.851 137.136 189.147 137.584C189.451 138.024 189.931 138.244 190.587 138.244C191.235 138.244 191.711 138.024 192.015 137.584C192.319 137.136 192.471 136.532 192.471 135.772C192.471 135.012 192.319 134.416 192.015 133.984C191.711 133.552 191.231 133.336 190.575 133.336C189.919 133.336 189.443 133.552 189.147 133.984C188.851 134.416 188.703 135.012 188.703 135.772ZM200.445 129.904C200.389 130.504 200.185 130.96 199.833 131.272C199.489 131.576 198.937 131.728 198.177 131.728C197.393 131.728 196.837 131.576 196.509 131.272C196.189 130.968 196.009 130.512 195.969 129.904H196.953C196.993 130.336 197.105 130.628 197.289 130.78C197.481 130.924 197.785 130.996 198.201 130.996C198.569 130.996 198.857 130.92 199.065 130.768C199.281 130.608 199.409 130.32 199.449 129.904H200.445ZM196.233 136.492C196.233 136.588 196.229 136.732 196.221 136.924C196.213 137.116 196.201 137.308 196.185 137.5C196.177 137.692 196.169 137.844 196.161 137.956L199.605 132.568H200.901V139H199.917V135.208C199.917 135.08 199.917 134.912 199.917 134.704C199.925 134.496 199.933 134.292 199.941 134.092C199.949 133.884 199.957 133.728 199.965 133.624L196.545 139H195.237V132.568H196.233V136.492ZM29.8072 152.188C29.8072 152.588 29.6872 152.9 29.4472 153.124C29.2072 153.348 28.8992 153.5 28.5232 153.58V153.628C28.9232 153.684 29.2712 153.828 29.5672 154.06C29.8632 154.284 30.0112 154.636 30.0112 155.116C30.0112 155.66 29.8072 156.112 29.3992 156.472C28.9992 156.824 28.3352 157 27.4072 157H24.6352V150.568H27.3952C27.8512 150.568 28.2592 150.62 28.6192 150.724C28.9872 150.82 29.2752 150.988 29.4832 151.228C29.6992 151.46 29.8072 151.78 29.8072 152.188ZM28.7392 152.32C28.7392 152.016 28.6272 151.796 28.4032 151.66C28.1872 151.516 27.8312 151.444 27.3352 151.444H25.6912V153.208H27.1432C28.2072 153.208 28.7392 152.912 28.7392 152.32ZM28.9192 155.116C28.9192 154.748 28.7792 154.484 28.4992 154.324C28.2192 154.164 27.8072 154.084 27.2632 154.084H25.6912V156.148H27.2872C27.8152 156.148 28.2192 156.072 28.4992 155.92C28.7792 155.76 28.9192 155.492 28.9192 155.116ZM32.6053 150.568V153.244H36.0973V150.568H37.1533V157H36.0973V154.132H32.6053V157H31.5493V150.568H32.6053ZM41.6739 150.448C42.2259 150.448 42.6979 150.568 43.0899 150.808C43.4899 151.048 43.7939 151.388 44.0019 151.828C44.2179 152.26 44.3259 152.768 44.3259 153.352V153.988H39.9219C39.9379 154.716 40.1219 155.272 40.4739 155.656C40.8339 156.032 41.3339 156.22 41.9739 156.22C42.3819 156.22 42.7419 156.184 43.0539 156.112C43.3739 156.032 43.7019 155.92 44.0379 155.776V156.7C43.7099 156.844 43.3859 156.948 43.0659 157.012C42.7459 157.084 42.3659 157.12 41.9259 157.12C41.3179 157.12 40.7779 156.996 40.3059 156.748C39.8419 156.5 39.4779 156.132 39.2139 155.644C38.9579 155.148 38.8299 154.544 38.8299 153.832C38.8299 153.128 38.9459 152.524 39.1779 152.02C39.4179 151.516 39.7499 151.128 40.1739 150.856C40.6059 150.584 41.1059 150.448 41.6739 150.448ZM41.6619 151.312C41.1579 151.312 40.7579 151.476 40.4619 151.804C40.1739 152.124 40.0019 152.572 39.9459 153.148H43.2219C43.2139 152.604 43.0859 152.164 42.8379 151.828C42.5899 151.484 42.1979 151.312 41.6619 151.312ZM54.6874 150.568V157H45.9634V150.568H47.0194V156.112H49.7914V150.568H50.8474V156.112H53.6314V150.568H54.6874ZM57.8006 150.568V153.244H61.2926V150.568H62.3486V157H61.2926V154.132H57.8006V157H56.7446V150.568H57.8006ZM65.3812 154.492C65.3812 154.588 65.3772 154.732 65.3692 154.924C65.3612 155.116 65.3492 155.308 65.3332 155.5C65.3252 155.692 65.3172 155.844 65.3092 155.956L68.7532 150.568H70.0492V157H69.0652V153.208C69.0652 153.08 69.0652 152.912 69.0652 152.704C69.0732 152.496 69.0812 152.292 69.0892 152.092C69.0972 151.884 69.1052 151.728 69.1132 151.624L65.6932 157H64.3852V150.568H65.3812V154.492ZM77.3042 147.904C77.2482 148.504 77.0442 148.96 76.6922 149.272C76.3482 149.576 75.7962 149.728 75.0362 149.728C74.2522 149.728 73.6962 149.576 73.3682 149.272C73.0482 148.968 72.8682 148.512 72.8282 147.904H73.8122C73.8522 148.336 73.9642 148.628 74.1482 148.78C74.3402 148.924 74.6442 148.996 75.0602 148.996C75.4282 148.996 75.7162 148.92 75.9242 148.768C76.1402 148.608 76.2682 148.32 76.3082 147.904H77.3042ZM73.0922 154.492C73.0922 154.588 73.0882 154.732 73.0802 154.924C73.0722 155.116 73.0602 155.308 73.0442 155.5C73.0362 155.692 73.0282 155.844 73.0202 155.956L76.4642 150.568H77.7602V157H76.7762V153.208C76.7762 153.08 76.7762 152.912 76.7762 152.704C76.7842 152.496 76.7922 152.292 76.8002 152.092C76.8082 151.884 76.8162 151.728 76.8242 151.624L73.4042 157H72.0962V150.568H73.0922V154.492ZM88.0963 152.188C88.0963 152.588 87.9763 152.9 87.7363 153.124C87.4963 153.348 87.1883 153.5 86.8123 153.58V153.628C87.2123 153.684 87.5603 153.828 87.8563 154.06C88.1523 154.284 88.3003 154.636 88.3003 155.116C88.3003 155.66 88.0963 156.112 87.6883 156.472C87.2883 156.824 86.6243 157 85.6963 157H82.9243V150.568H85.6843C86.1403 150.568 86.5483 150.62 86.9083 150.724C87.2763 150.82 87.5643 150.988 87.7723 151.228C87.9883 151.46 88.0963 151.78 88.0963 152.188ZM87.0283 152.32C87.0283 152.016 86.9163 151.796 86.6923 151.66C86.4763 151.516 86.1203 151.444 85.6243 151.444H83.9803V153.208H85.4323C86.4963 153.208 87.0283 152.912 87.0283 152.32ZM87.2083 155.116C87.2083 154.748 87.0683 154.484 86.7883 154.324C86.5083 154.164 86.0963 154.084 85.5523 154.084H83.9803V156.148H85.5763C86.1043 156.148 86.5083 156.072 86.7883 155.92C87.0683 155.76 87.2083 155.492 87.2083 155.116ZM90.8344 154.492C90.8344 154.588 90.8304 154.732 90.8224 154.924C90.8144 155.116 90.8024 155.308 90.7864 155.5C90.7784 155.692 90.7704 155.844 90.7624 155.956L94.2064 150.568H95.5024V157H94.5184V153.208C94.5184 153.08 94.5184 152.912 94.5184 152.704C94.5264 152.496 94.5344 152.292 94.5424 152.092C94.5504 151.884 94.5584 151.728 94.5664 151.624L91.1464 157H89.8384V150.568H90.8344V154.492ZM102.325 150.568V156.112H103.261V159.232H102.241V157H97.7653V159.232H96.7573V156.112H97.2733C97.8253 155.352 98.2373 154.488 98.5093 153.52C98.7893 152.544 98.9333 151.56 98.9413 150.568H102.325ZM99.8773 151.396C99.8453 151.94 99.7613 152.504 99.6253 153.088C99.4893 153.664 99.3133 154.216 99.0973 154.744C98.8893 155.272 98.6453 155.728 98.3653 156.112H101.305V151.396H99.8773ZM112.811 152.188C112.811 152.588 112.691 152.9 112.451 153.124C112.211 153.348 111.903 153.5 111.527 153.58V153.628C111.927 153.684 112.275 153.828 112.571 154.06C112.867 154.284 113.015 154.636 113.015 155.116C113.015 155.66 112.811 156.112 112.403 156.472C112.003 156.824 111.339 157 110.411 157H107.639V150.568H110.399C110.855 150.568 111.263 150.62 111.623 150.724C111.991 150.82 112.279 150.988 112.487 151.228C112.703 151.46 112.811 151.78 112.811 152.188ZM111.743 152.32C111.743 152.016 111.631 151.796 111.407 151.66C111.191 151.516 110.835 151.444 110.339 151.444H108.695V153.208H110.147C111.211 153.208 111.743 152.912 111.743 152.32ZM111.923 155.116C111.923 154.748 111.783 154.484 111.503 154.324C111.223 154.164 110.811 154.084 110.267 154.084H108.695V156.148H110.291C110.819 156.148 111.223 156.072 111.503 155.92C111.783 155.76 111.923 155.492 111.923 155.116ZM116.989 150.46C117.773 150.46 118.353 150.632 118.729 150.976C119.105 151.32 119.293 151.868 119.293 152.62V157H118.525L118.321 156.088H118.273C117.993 156.44 117.697 156.7 117.385 156.868C117.081 157.036 116.657 157.12 116.113 157.12C115.529 157.12 115.045 156.968 114.661 156.664C114.277 156.352 114.085 155.868 114.085 155.212C114.085 154.572 114.337 154.08 114.841 153.736C115.345 153.384 116.121 153.192 117.169 153.16L118.261 153.124V152.74C118.261 152.204 118.145 151.832 117.913 151.624C117.681 151.416 117.353 151.312 116.929 151.312C116.593 151.312 116.273 151.364 115.969 151.468C115.665 151.564 115.381 151.676 115.117 151.804L114.793 151.012C115.073 150.86 115.405 150.732 115.789 150.628C116.173 150.516 116.573 150.46 116.989 150.46ZM117.301 153.892C116.501 153.924 115.945 154.052 115.633 154.276C115.329 154.5 115.177 154.816 115.177 155.224C115.177 155.584 115.285 155.848 115.501 156.016C115.725 156.184 116.009 156.268 116.353 156.268C116.897 156.268 117.349 156.12 117.709 155.824C118.069 155.52 118.249 155.056 118.249 154.432V153.856L117.301 153.892ZM130.004 150.568V157H121.28V150.568H122.336V156.112H125.108V150.568H126.164V156.112H128.948V150.568H130.004ZM134.545 150.448C135.097 150.448 135.569 150.568 135.961 150.808C136.361 151.048 136.665 151.388 136.873 151.828C137.089 152.26 137.197 152.768 137.197 153.352V153.988H132.793C132.809 154.716 132.993 155.272 133.345 155.656C133.705 156.032 134.205 156.22 134.845 156.22C135.253 156.22 135.613 156.184 135.925 156.112C136.245 156.032 136.573 155.92 136.909 155.776V156.7C136.581 156.844 136.257 156.948 135.937 157.012C135.617 157.084 135.237 157.12 134.797 157.12C134.189 157.12 133.649 156.996 133.177 156.748C132.713 156.5 132.349 156.132 132.085 155.644C131.829 155.148 131.701 154.544 131.701 153.832C131.701 153.128 131.817 152.524 132.049 152.02C132.289 151.516 132.621 151.128 133.045 150.856C133.477 150.584 133.977 150.448 134.545 150.448ZM134.533 151.312C134.029 151.312 133.629 151.476 133.333 151.804C133.045 152.124 132.873 152.572 132.817 153.148H136.093C136.085 152.604 135.957 152.164 135.709 151.828C135.461 151.484 135.069 151.312 134.533 151.312ZM142.758 150.568V151.456H139.89V157H138.834V150.568H142.758ZM149.501 153.772C149.501 154.836 149.229 155.66 148.685 156.244C148.149 156.828 147.421 157.12 146.501 157.12C145.933 157.12 145.425 156.992 144.977 156.736C144.537 156.472 144.189 156.092 143.933 155.596C143.677 155.092 143.549 154.484 143.549 153.772C143.549 152.708 143.817 151.888 144.353 151.312C144.889 150.736 145.617 150.448 146.537 150.448C147.121 150.448 147.633 150.58 148.073 150.844C148.521 151.1 148.869 151.476 149.117 151.972C149.373 152.46 149.501 153.06 149.501 153.772ZM144.641 153.772C144.641 154.532 144.789 155.136 145.085 155.584C145.389 156.024 145.869 156.244 146.525 156.244C147.173 156.244 147.649 156.024 147.953 155.584C148.257 155.136 148.409 154.532 148.409 153.772C148.409 153.012 148.257 152.416 147.953 151.984C147.649 151.552 147.169 151.336 146.513 151.336C145.857 151.336 145.381 151.552 145.085 151.984C144.789 152.416 144.641 153.012 144.641 153.772ZM156.871 157.12C156.303 157.12 155.795 157.004 155.347 156.772C154.907 156.54 154.559 156.18 154.303 155.692C154.055 155.204 153.931 154.58 153.931 153.82C153.931 153.028 154.063 152.384 154.327 151.888C154.591 151.392 154.947 151.028 155.395 150.796C155.851 150.564 156.367 150.448 156.943 150.448C157.271 150.448 157.587 150.484 157.891 150.556C158.195 150.62 158.443 150.7 158.635 150.796L158.311 151.672C158.119 151.6 157.895 151.532 157.639 151.468C157.383 151.404 157.143 151.372 156.919 151.372C155.655 151.372 155.023 152.184 155.023 153.808C155.023 154.584 155.175 155.18 155.479 155.596C155.791 156.004 156.251 156.208 156.859 156.208C157.211 156.208 157.519 156.172 157.783 156.1C158.055 156.028 158.303 155.94 158.527 155.836V156.772C158.311 156.884 158.071 156.968 157.807 157.024C157.551 157.088 157.239 157.12 156.871 157.12ZM162.493 150.46C163.277 150.46 163.857 150.632 164.233 150.976C164.609 151.32 164.797 151.868 164.797 152.62V157H164.029L163.825 156.088H163.777C163.497 156.44 163.201 156.7 162.889 156.868C162.585 157.036 162.161 157.12 161.617 157.12C161.033 157.12 160.549 156.968 160.165 156.664C159.781 156.352 159.589 155.868 159.589 155.212C159.589 154.572 159.841 154.08 160.345 153.736C160.849 153.384 161.625 153.192 162.673 153.16L163.765 153.124V152.74C163.765 152.204 163.649 151.832 163.417 151.624C163.185 151.416 162.857 151.312 162.433 151.312C162.097 151.312 161.777 151.364 161.473 151.468C161.169 151.564 160.885 151.676 160.621 151.804L160.297 151.012C160.577 150.86 160.909 150.732 161.293 150.628C161.677 150.516 162.077 150.46 162.493 150.46ZM162.805 153.892C162.005 153.924 161.449 154.052 161.137 154.276C160.833 154.5 160.681 154.816 160.681 155.224C160.681 155.584 160.789 155.848 161.005 156.016C161.229 156.184 161.513 156.268 161.857 156.268C162.401 156.268 162.853 156.12 163.213 155.824C163.573 155.52 163.753 155.056 163.753 154.432V153.856L162.805 153.892ZM171.992 147.904C171.936 148.504 171.732 148.96 171.38 149.272C171.036 149.576 170.484 149.728 169.724 149.728C168.94 149.728 168.384 149.576 168.056 149.272C167.736 148.968 167.556 148.512 167.516 147.904H168.5C168.54 148.336 168.652 148.628 168.836 148.78C169.028 148.924 169.332 148.996 169.748 148.996C170.116 148.996 170.404 148.92 170.612 148.768C170.828 148.608 170.956 148.32 170.996 147.904H171.992ZM167.78 154.492C167.78 154.588 167.776 154.732 167.768 154.924C167.76 155.116 167.748 155.308 167.732 155.5C167.724 155.692 167.716 155.844 167.708 155.956L171.152 150.568H172.448V157H171.464V153.208C171.464 153.08 171.464 152.912 171.464 152.704C171.472 152.496 171.48 152.292 171.488 152.092C171.496 151.884 171.504 151.728 171.512 151.624L168.092 157H166.784V150.568H167.78V154.492ZM178.935 151.456H176.835V157H175.791V151.456H173.715V150.568H178.935V151.456ZM182.638 150.46C183.422 150.46 184.002 150.632 184.378 150.976C184.754 151.32 184.942 151.868 184.942 152.62V157H184.174L183.97 156.088H183.922C183.642 156.44 183.346 156.7 183.034 156.868C182.73 157.036 182.306 157.12 181.762 157.12C181.178 157.12 180.694 156.968 180.31 156.664C179.926 156.352 179.734 155.868 179.734 155.212C179.734 154.572 179.986 154.08 180.49 153.736C180.994 153.384 181.77 153.192 182.818 153.16L183.91 153.124V152.74C183.91 152.204 183.794 151.832 183.562 151.624C183.33 151.416 183.002 151.312 182.578 151.312C182.242 151.312 181.922 151.364 181.618 151.468C181.314 151.564 181.03 151.676 180.766 151.804L180.442 151.012C180.722 150.86 181.054 150.732 181.438 150.628C181.822 150.516 182.222 150.46 182.638 150.46ZM182.95 153.892C182.15 153.924 181.594 154.052 181.282 154.276C180.978 154.5 180.826 154.816 180.826 155.224C180.826 155.584 180.934 155.848 181.15 156.016C181.374 156.184 181.658 156.268 182.002 156.268C182.546 156.268 182.998 156.12 183.358 155.824C183.718 155.52 183.898 155.056 183.898 154.432V153.856L182.95 153.892ZM191.041 154.492C191.041 154.588 191.037 154.732 191.029 154.924C191.021 155.116 191.009 155.308 190.993 155.5C190.985 155.692 190.977 155.844 190.969 155.956L194.413 150.568H195.709V157H194.725V153.208C194.725 153.08 194.725 152.912 194.725 152.704C194.733 152.496 194.741 152.292 194.749 152.092C194.757 151.884 194.765 151.728 194.773 151.624L191.353 157H190.045V150.568H191.041V154.492ZM202.652 157H201.584V151.444H199.688C199.584 152.796 199.44 153.888 199.256 154.72C199.072 155.544 198.828 156.144 198.524 156.52C198.22 156.896 197.836 157.084 197.372 157.084C197.268 157.084 197.164 157.076 197.06 157.06C196.964 157.052 196.884 157.032 196.82 157V156.208C196.868 156.224 196.92 156.236 196.976 156.244C197.032 156.252 197.088 156.256 197.144 156.256C197.576 156.256 197.92 155.796 198.176 154.876C198.44 153.956 198.64 152.52 198.776 150.568H202.652V157ZM205.69 154.492C205.69 154.588 205.686 154.732 205.678 154.924C205.67 155.116 205.658 155.308 205.642 155.5C205.634 155.692 205.626 155.844 205.618 155.956L209.062 150.568H210.358V157H209.374V153.208C209.374 153.08 209.374 152.912 209.374 152.704C209.382 152.496 209.39 152.292 209.398 152.092C209.406 151.884 209.414 151.728 209.422 151.624L206.002 157H204.694V150.568H205.69V154.492ZM24.4169 168.568V175H23.3609V169.468H20.0369V175H18.9809V168.568H24.4169ZM29.5292 168.448C30.3212 168.448 30.9572 168.724 31.4372 169.276C31.9252 169.828 32.1692 170.66 32.1692 171.772C32.1692 172.868 31.9252 173.7 31.4372 174.268C30.9572 174.836 30.3172 175.12 29.5172 175.12C29.0212 175.12 28.6092 175.028 28.2812 174.844C27.9612 174.652 27.7092 174.432 27.5252 174.184H27.4532C27.4692 174.32 27.4852 174.492 27.5012 174.7C27.5172 174.908 27.5252 175.088 27.5252 175.24V177.88H26.4692V168.568H27.3332L27.4772 169.444H27.5252C27.7172 169.164 27.9692 168.928 28.2812 168.736C28.5932 168.544 29.0092 168.448 29.5292 168.448ZM29.3372 169.336C28.6812 169.336 28.2172 169.52 27.9452 169.888C27.6812 170.256 27.5412 170.816 27.5252 171.568V171.772C27.5252 172.564 27.6532 173.176 27.9092 173.608C28.1732 174.032 28.6572 174.244 29.3612 174.244C29.7532 174.244 30.0732 174.136 30.3212 173.92C30.5772 173.704 30.7652 173.412 30.8852 173.044C31.0132 172.668 31.0772 172.24 31.0772 171.76C31.0772 171.024 30.9332 170.436 30.6452 169.996C30.3652 169.556 29.9292 169.336 29.3372 169.336ZM34.848 172.492C34.848 172.588 34.844 172.732 34.836 172.924C34.828 173.116 34.816 173.308 34.8 173.5C34.792 173.692 34.784 173.844 34.776 173.956L38.22 168.568H39.516V175H38.532V171.208C38.532 171.08 38.532 170.912 38.532 170.704C38.54 170.496 38.548 170.292 38.556 170.092C38.564 169.884 38.572 169.728 38.58 169.624L35.16 175H33.852V168.568H34.848V172.492ZM46.459 175H45.391V169.444H43.495C43.391 170.796 43.247 171.888 43.063 172.72C42.879 173.544 42.635 174.144 42.331 174.52C42.027 174.896 41.643 175.084 41.179 175.084C41.075 175.084 40.971 175.076 40.867 175.06C40.771 175.052 40.691 175.032 40.627 175V174.208C40.675 174.224 40.727 174.236 40.783 174.244C40.839 174.252 40.895 174.256 40.951 174.256C41.383 174.256 41.727 173.796 41.983 172.876C42.247 171.956 42.447 170.52 42.583 168.568H46.459V175ZM54.0925 171.772C54.0925 172.836 53.8205 173.66 53.2765 174.244C52.7405 174.828 52.0125 175.12 51.0925 175.12C50.5245 175.12 50.0165 174.992 49.5685 174.736C49.1285 174.472 48.7805 174.092 48.5245 173.596C48.2685 173.092 48.1405 172.484 48.1405 171.772C48.1405 170.708 48.4085 169.888 48.9445 169.312C49.4805 168.736 50.2085 168.448 51.1285 168.448C51.7125 168.448 52.2245 168.58 52.6645 168.844C53.1125 169.1 53.4605 169.476 53.7085 169.972C53.9645 170.46 54.0925 171.06 54.0925 171.772ZM49.2325 171.772C49.2325 172.532 49.3805 173.136 49.6765 173.584C49.9805 174.024 50.4605 174.244 51.1165 174.244C51.7645 174.244 52.2405 174.024 52.5445 173.584C52.8485 173.136 53.0005 172.532 53.0005 171.772C53.0005 171.012 52.8485 170.416 52.5445 169.984C52.2405 169.552 51.7605 169.336 51.1045 169.336C50.4485 169.336 49.9725 169.552 49.6765 169.984C49.3805 170.416 49.2325 171.012 49.2325 171.772ZM63.2477 168.568L60.5957 171.688L63.4757 175H62.2757L59.4917 171.736V175H58.5077V171.736L55.7237 175H54.5237L57.4037 171.688L54.7517 168.568H55.9037L58.5077 171.688V168.568H59.4917V171.688L62.1077 168.568H63.2477ZM66.7813 168.448C67.3333 168.448 67.8053 168.568 68.1973 168.808C68.5973 169.048 68.9013 169.388 69.1093 169.828C69.3253 170.26 69.4333 170.768 69.4333 171.352V171.988H65.0293C65.0453 172.716 65.2293 173.272 65.5813 173.656C65.9413 174.032 66.4413 174.22 67.0813 174.22C67.4893 174.22 67.8493 174.184 68.1613 174.112C68.4813 174.032 68.8093 173.92 69.1453 173.776V174.7C68.8173 174.844 68.4933 174.948 68.1733 175.012C67.8533 175.084 67.4733 175.12 67.0333 175.12C66.4253 175.12 65.8853 174.996 65.4133 174.748C64.9493 174.5 64.5853 174.132 64.3213 173.644C64.0653 173.148 63.9373 172.544 63.9373 171.832C63.9373 171.128 64.0533 170.524 64.2853 170.02C64.5253 169.516 64.8573 169.128 65.2813 168.856C65.7133 168.584 66.2133 168.448 66.7813 168.448ZM66.7693 169.312C66.2653 169.312 65.8653 169.476 65.5693 169.804C65.2813 170.124 65.1093 170.572 65.0533 171.148H68.3293C68.3213 170.604 68.1933 170.164 67.9453 169.828C67.6973 169.484 67.3053 169.312 66.7693 169.312ZM72.1268 168.568V171.244H75.6188V168.568H76.6748V175H75.6188V172.132H72.1268V175H71.0708V168.568H72.1268ZM79.7074 172.492C79.7074 172.588 79.7034 172.732 79.6954 172.924C79.6874 173.116 79.6754 173.308 79.6594 173.5C79.6514 173.692 79.6434 173.844 79.6354 173.956L83.0794 168.568H84.3754V175H83.3914V171.208C83.3914 171.08 83.3914 170.912 83.3914 170.704C83.3994 170.496 83.4074 170.292 83.4154 170.092C83.4234 169.884 83.4314 169.728 83.4394 169.624L80.0194 175H78.7114V168.568H79.7074V172.492ZM86.8183 175H85.5943L87.4303 172.3C87.1823 172.236 86.9423 172.136 86.7103 172C86.4783 171.856 86.2903 171.66 86.1463 171.412C86.0023 171.156 85.9303 170.84 85.9303 170.464C85.9303 169.848 86.1383 169.38 86.5543 169.06C86.9703 168.732 87.5223 168.568 88.2103 168.568H91.0903V175H90.0343V172.444H88.4743L86.8183 175ZM86.9503 170.476C86.9503 170.844 87.0863 171.12 87.3583 171.304C87.6383 171.48 88.0263 171.568 88.5223 171.568H90.0343V169.444H88.3183C87.8303 169.444 87.4783 169.54 87.2623 169.732C87.0543 169.924 86.9503 170.172 86.9503 170.476ZM93.5575 175.084C93.3095 175.084 93.1015 175 92.9335 174.832C92.7655 174.664 92.6815 174.456 92.6815 174.208C92.6815 173.96 92.7655 173.752 92.9335 173.584C93.1015 173.416 93.3095 173.332 93.5575 173.332C93.7975 173.332 94.0015 173.416 94.1695 173.584C94.3375 173.752 94.4215 173.96 94.4215 174.208C94.4215 174.456 94.3375 174.664 94.1695 174.832C94.0015 175 93.7975 175.084 93.5575 175.084ZM101.729 166.432C102.801 166.432 103.609 166.592 104.153 166.912C104.705 167.224 104.981 167.772 104.981 168.556C104.981 169.06 104.841 169.48 104.561 169.816C104.281 170.144 103.877 170.356 103.349 170.452V170.512C103.709 170.568 104.033 170.672 104.321 170.824C104.617 170.976 104.849 171.192 105.017 171.472C105.185 171.752 105.269 172.116 105.269 172.564C105.269 173.34 105.001 173.94 104.465 174.364C103.937 174.788 103.213 175 102.293 175H99.2812V166.432H101.729ZM101.945 170.08C102.681 170.08 103.185 169.964 103.457 169.732C103.729 169.492 103.865 169.14 103.865 168.676C103.865 168.204 103.697 167.868 103.361 167.668C103.033 167.46 102.505 167.356 101.777 167.356H100.361V170.08H101.945ZM100.361 170.98V174.088H102.089C102.849 174.088 103.377 173.94 103.673 173.644C103.969 173.348 104.117 172.96 104.117 172.48C104.117 172.032 103.961 171.672 103.649 171.4C103.345 171.12 102.797 170.98 102.005 170.98H100.361ZM109.522 175.12C108.954 175.12 108.446 175.004 107.998 174.772C107.558 174.54 107.21 174.18 106.954 173.692C106.706 173.204 106.582 172.58 106.582 171.82C106.582 171.028 106.714 170.384 106.978 169.888C107.242 169.392 107.598 169.028 108.046 168.796C108.502 168.564 109.018 168.448 109.594 168.448C109.922 168.448 110.238 168.484 110.542 168.556C110.846 168.62 111.094 168.7 111.286 168.796L110.962 169.672C110.77 169.6 110.546 169.532 110.29 169.468C110.034 169.404 109.794 169.372 109.57 169.372C108.306 169.372 107.674 170.184 107.674 171.808C107.674 172.584 107.826 173.18 108.13 173.596C108.442 174.004 108.902 174.208 109.51 174.208C109.862 174.208 110.17 174.172 110.434 174.1C110.706 174.028 110.954 173.94 111.178 173.836V174.772C110.962 174.884 110.722 174.968 110.458 175.024C110.202 175.088 109.89 175.12 109.522 175.12ZM115.192 168.448C115.744 168.448 116.216 168.568 116.608 168.808C117.008 169.048 117.312 169.388 117.52 169.828C117.736 170.26 117.844 170.768 117.844 171.352V171.988H113.44C113.456 172.716 113.64 173.272 113.992 173.656C114.352 174.032 114.852 174.22 115.492 174.22C115.9 174.22 116.26 174.184 116.572 174.112C116.892 174.032 117.22 173.92 117.556 173.776V174.7C117.228 174.844 116.904 174.948 116.584 175.012C116.264 175.084 115.884 175.12 115.444 175.12C114.836 175.12 114.296 174.996 113.824 174.748C113.36 174.5 112.996 174.132 112.732 173.644C112.476 173.148 112.348 172.544 112.348 171.832C112.348 171.128 112.464 170.524 112.696 170.02C112.936 169.516 113.268 169.128 113.692 168.856C114.124 168.584 114.624 168.448 115.192 168.448ZM115.18 169.312C114.676 169.312 114.276 169.476 113.98 169.804C113.692 170.124 113.52 170.572 113.464 171.148H116.74C116.732 170.604 116.604 170.164 116.356 169.828C116.108 169.484 115.716 169.312 115.18 169.312ZM128.19 171.772C128.19 172.836 127.918 173.66 127.374 174.244C126.838 174.828 126.11 175.12 125.19 175.12C124.622 175.12 124.114 174.992 123.666 174.736C123.226 174.472 122.878 174.092 122.622 173.596C122.366 173.092 122.238 172.484 122.238 171.772C122.238 170.708 122.506 169.888 123.042 169.312C123.578 168.736 124.306 168.448 125.226 168.448C125.81 168.448 126.322 168.58 126.762 168.844C127.21 169.1 127.558 169.476 127.806 169.972C128.062 170.46 128.19 171.06 128.19 171.772ZM123.33 171.772C123.33 172.532 123.478 173.136 123.774 173.584C124.078 174.024 124.558 174.244 125.214 174.244C125.862 174.244 126.338 174.024 126.642 173.584C126.946 173.136 127.098 172.532 127.098 171.772C127.098 171.012 126.946 170.416 126.642 169.984C126.338 169.552 125.858 169.336 125.202 169.336C124.546 169.336 124.07 169.552 123.774 169.984C123.478 170.416 123.33 171.012 123.33 171.772ZM133.788 168.568V169.456H130.92V175H129.864V168.568H133.788ZM138.115 168.448C138.907 168.448 139.543 168.724 140.023 169.276C140.511 169.828 140.755 170.66 140.755 171.772C140.755 172.868 140.511 173.7 140.023 174.268C139.543 174.836 138.903 175.12 138.103 175.12C137.607 175.12 137.195 175.028 136.867 174.844C136.547 174.652 136.295 174.432 136.111 174.184H136.039C136.055 174.32 136.071 174.492 136.087 174.7C136.103 174.908 136.111 175.088 136.111 175.24V177.88H135.055V168.568H135.919L136.063 169.444H136.111C136.303 169.164 136.555 168.928 136.867 168.736C137.179 168.544 137.595 168.448 138.115 168.448ZM137.923 169.336C137.267 169.336 136.803 169.52 136.531 169.888C136.267 170.256 136.127 170.816 136.111 171.568V171.772C136.111 172.564 136.239 173.176 136.495 173.608C136.759 174.032 137.243 174.244 137.947 174.244C138.339 174.244 138.659 174.136 138.907 173.92C139.163 173.704 139.351 173.412 139.471 173.044C139.599 172.668 139.663 172.24 139.663 171.76C139.663 171.024 139.519 170.436 139.231 169.996C138.951 169.556 138.515 169.336 137.923 169.336ZM144.874 168.46C145.658 168.46 146.238 168.632 146.614 168.976C146.99 169.32 147.178 169.868 147.178 170.62V175H146.41L146.206 174.088H146.158C145.878 174.44 145.582 174.7 145.27 174.868C144.966 175.036 144.542 175.12 143.998 175.12C143.414 175.12 142.93 174.968 142.546 174.664C142.162 174.352 141.97 173.868 141.97 173.212C141.97 172.572 142.222 172.08 142.726 171.736C143.23 171.384 144.006 171.192 145.054 171.16L146.146 171.124V170.74C146.146 170.204 146.03 169.832 145.798 169.624C145.566 169.416 145.238 169.312 144.814 169.312C144.478 169.312 144.158 169.364 143.854 169.468C143.55 169.564 143.266 169.676 143.002 169.804L142.678 169.012C142.958 168.86 143.29 168.732 143.674 168.628C144.058 168.516 144.458 168.46 144.874 168.46ZM145.186 171.892C144.386 171.924 143.83 172.052 143.518 172.276C143.214 172.5 143.062 172.816 143.062 173.224C143.062 173.584 143.17 173.848 143.386 174.016C143.61 174.184 143.894 174.268 144.238 174.268C144.782 174.268 145.234 174.12 145.594 173.824C145.954 173.52 146.134 173.056 146.134 172.432V171.856L145.186 171.892ZM150.221 168.568V171.244H153.713V168.568H154.769V175H153.713V172.132H150.221V175H149.165V168.568H150.221ZM157.801 172.492C157.801 172.588 157.797 172.732 157.789 172.924C157.781 173.116 157.769 173.308 157.753 173.5C157.745 173.692 157.737 173.844 157.729 173.956L161.173 168.568H162.469V175H161.485V171.208C161.485 171.08 161.485 170.912 161.485 170.704C161.493 170.496 161.501 170.292 161.509 170.092C161.517 169.884 161.525 169.728 161.533 169.624L158.113 175H156.805V168.568H157.801V172.492ZM165.44 170.908C165.44 171.644 165.852 172.012 166.676 172.012C167.076 172.012 167.44 171.952 167.768 171.832C168.096 171.704 168.432 171.536 168.776 171.328V168.568H169.832V175H168.776V172.132C168.416 172.364 168.06 172.548 167.708 172.684C167.364 172.812 166.948 172.876 166.46 172.876C165.804 172.876 165.292 172.704 164.924 172.36C164.564 172.016 164.384 171.556 164.384 170.98V168.568H165.44V170.908ZM172.871 172.492C172.871 172.588 172.867 172.732 172.859 172.924C172.851 173.116 172.839 173.308 172.823 173.5C172.815 173.692 172.807 173.844 172.799 173.956L176.243 168.568H177.539V175H176.555V171.208C176.555 171.08 176.555 170.912 176.555 170.704C176.563 170.496 176.571 170.292 176.579 170.092C176.587 169.884 176.595 169.728 176.603 169.624L173.183 175H171.875V168.568H172.871V172.492ZM184.758 170.188C184.758 170.588 184.638 170.9 184.398 171.124C184.158 171.348 183.85 171.5 183.474 171.58V171.628C183.874 171.684 184.222 171.828 184.518 172.06C184.814 172.284 184.962 172.636 184.962 173.116C184.962 173.66 184.758 174.112 184.35 174.472C183.95 174.824 183.286 175 182.358 175H179.586V168.568H182.346C182.802 168.568 183.21 168.62 183.57 168.724C183.938 168.82 184.226 168.988 184.434 169.228C184.65 169.46 184.758 169.78 184.758 170.188ZM183.69 170.32C183.69 170.016 183.578 169.796 183.354 169.66C183.138 169.516 182.782 169.444 182.286 169.444H180.642V171.208H182.094C183.158 171.208 183.69 170.912 183.69 170.32ZM183.87 173.116C183.87 172.748 183.73 172.484 183.45 172.324C183.17 172.164 182.758 172.084 182.214 172.084H180.642V174.148H182.238C182.766 174.148 183.17 174.072 183.45 173.92C183.73 173.76 183.87 173.492 183.87 173.116ZM188.936 168.46C189.72 168.46 190.3 168.632 190.676 168.976C191.052 169.32 191.24 169.868 191.24 170.62V175H190.472L190.268 174.088H190.22C189.94 174.44 189.644 174.7 189.332 174.868C189.028 175.036 188.604 175.12 188.06 175.12C187.476 175.12 186.992 174.968 186.608 174.664C186.224 174.352 186.032 173.868 186.032 173.212C186.032 172.572 186.284 172.08 186.788 171.736C187.292 171.384 188.068 171.192 189.116 171.16L190.208 171.124V170.74C190.208 170.204 190.092 169.832 189.86 169.624C189.628 169.416 189.3 169.312 188.876 169.312C188.54 169.312 188.22 169.364 187.916 169.468C187.612 169.564 187.328 169.676 187.064 169.804L186.74 169.012C187.02 168.86 187.352 168.732 187.736 168.628C188.12 168.516 188.52 168.46 188.936 168.46ZM189.248 171.892C188.448 171.924 187.892 172.052 187.58 172.276C187.276 172.5 187.124 172.816 187.124 173.224C187.124 173.584 187.232 173.848 187.448 174.016C187.672 174.184 187.956 174.268 188.3 174.268C188.844 174.268 189.296 174.12 189.656 173.824C190.016 173.52 190.196 173.056 190.196 172.432V171.856L189.248 171.892ZM195.711 168.448C196.263 168.448 196.735 168.568 197.127 168.808C197.527 169.048 197.831 169.388 198.039 169.828C198.255 170.26 198.363 170.768 198.363 171.352V171.988H193.959C193.975 172.716 194.159 173.272 194.511 173.656C194.871 174.032 195.371 174.22 196.011 174.22C196.419 174.22 196.779 174.184 197.091 174.112C197.411 174.032 197.739 173.92 198.075 173.776V174.7C197.747 174.844 197.423 174.948 197.103 175.012C196.783 175.084 196.403 175.12 195.963 175.12C195.355 175.12 194.815 174.996 194.343 174.748C193.879 174.5 193.515 174.132 193.251 173.644C192.995 173.148 192.867 172.544 192.867 171.832C192.867 171.128 192.983 170.524 193.215 170.02C193.455 169.516 193.787 169.128 194.211 168.856C194.643 168.584 195.143 168.448 195.711 168.448ZM195.699 169.312C195.195 169.312 194.795 169.476 194.499 169.804C194.211 170.124 194.039 170.572 193.983 171.148H197.259C197.251 170.604 197.123 170.164 196.875 169.828C196.627 169.484 196.235 169.312 195.699 169.312ZM204.44 169.456H202.34V175H201.296V169.456H199.22V168.568H204.44V169.456ZM208.17 175.12C207.602 175.12 207.094 175.004 206.646 174.772C206.206 174.54 205.858 174.18 205.602 173.692C205.354 173.204 205.23 172.58 205.23 171.82C205.23 171.028 205.362 170.384 205.626 169.888C205.89 169.392 206.246 169.028 206.694 168.796C207.15 168.564 207.666 168.448 208.242 168.448C208.57 168.448 208.886 168.484 209.19 168.556C209.494 168.62 209.742 168.7 209.934 168.796L209.61 169.672C209.418 169.6 209.194 169.532 208.938 169.468C208.682 169.404 208.442 169.372 208.218 169.372C206.954 169.372 206.322 170.184 206.322 171.808C206.322 172.584 206.474 173.18 206.778 173.596C207.09 174.004 207.55 174.208 208.158 174.208C208.51 174.208 208.818 174.172 209.082 174.1C209.354 174.028 209.602 173.94 209.826 173.836V174.772C209.61 174.884 209.37 174.968 209.106 175.024C208.85 175.088 208.538 175.12 208.17 175.12ZM211.752 175H210.528L212.364 172.3C212.116 172.236 211.876 172.136 211.644 172C211.412 171.856 211.224 171.66 211.08 171.412C210.936 171.156 210.864 170.84 210.864 170.464C210.864 169.848 211.072 169.38 211.488 169.06C211.904 168.732 212.456 168.568 213.144 168.568H216.024V175H214.968V172.444H213.408L211.752 175ZM211.884 170.476C211.884 170.844 212.02 171.12 212.292 171.304C212.572 171.48 212.96 171.568 213.456 171.568H214.968V169.444H213.252C212.764 169.444 212.412 169.54 212.196 169.732C211.988 169.924 211.884 170.172 211.884 170.476ZM46.5245 187.456H44.4245V193H43.3805V187.456H41.3045V186.568H46.5245V187.456ZM53.2663 189.772C53.2663 190.836 52.9943 191.66 52.4503 192.244C51.9143 192.828 51.1863 193.12 50.2663 193.12C49.6983 193.12 49.1903 192.992 48.7423 192.736C48.3023 192.472 47.9543 192.092 47.6983 191.596C47.4423 191.092 47.3143 190.484 47.3143 189.772C47.3143 188.708 47.5823 187.888 48.1183 187.312C48.6543 186.736 49.3823 186.448 50.3023 186.448C50.8863 186.448 51.3983 186.58 51.8383 186.844C52.2863 187.1 52.6343 187.476 52.8823 187.972C53.1383 188.46 53.2663 189.06 53.2663 189.772ZM48.4063 189.772C48.4063 190.532 48.5543 191.136 48.8503 191.584C49.1543 192.024 49.6343 192.244 50.2903 192.244C50.9383 192.244 51.4143 192.024 51.7183 191.584C52.0223 191.136 52.1743 190.532 52.1743 189.772C52.1743 189.012 52.0223 188.416 51.7183 187.984C51.4143 187.552 50.9343 187.336 50.2783 187.336C49.6223 187.336 49.1463 187.552 48.8503 187.984C48.5543 188.416 48.4063 189.012 48.4063 189.772ZM59.8359 193H58.7679V187.444H56.8719C56.7679 188.796 56.6239 189.888 56.4399 190.72C56.2559 191.544 56.0119 192.144 55.7079 192.52C55.4039 192.896 55.0199 193.084 54.5559 193.084C54.4519 193.084 54.3479 193.076 54.2439 193.06C54.1479 193.052 54.0679 193.032 54.0039 193V192.208C54.0519 192.224 54.1039 192.236 54.1599 192.244C54.2159 192.252 54.2719 192.256 54.3279 192.256C54.7599 192.256 55.1039 191.796 55.3599 190.876C55.6239 189.956 55.8239 188.52 55.9599 186.568H59.8359V193ZM64.8414 189.208C66.5134 189.208 67.3494 189.816 67.3494 191.032C67.3494 191.632 67.1454 192.112 66.7374 192.472C66.3294 192.824 65.6814 193 64.7934 193H61.8774V186.568H62.9334V189.208H64.8414ZM66.2934 191.092C66.2934 190.7 66.1534 190.436 65.8734 190.3C65.6014 190.156 65.2174 190.084 64.7214 190.084H62.9334V192.148H64.7454C65.1934 192.148 65.5614 192.068 65.8494 191.908C66.1454 191.748 66.2934 191.476 66.2934 191.092ZM72.8064 186.568H73.9584L71.2104 189.664L74.1864 193H72.9624L70.0584 189.736V193H69.0024V186.568H70.0584V189.688L72.8064 186.568ZM80.7116 189.772C80.7116 190.836 80.4396 191.66 79.8956 192.244C79.3596 192.828 78.6316 193.12 77.7116 193.12C77.1436 193.12 76.6356 192.992 76.1876 192.736C75.7476 192.472 75.3996 192.092 75.1436 191.596C74.8876 191.092 74.7596 190.484 74.7596 189.772C74.7596 188.708 75.0276 187.888 75.5636 187.312C76.0996 186.736 76.8276 186.448 77.7476 186.448C78.3316 186.448 78.8436 186.58 79.2836 186.844C79.7316 187.1 80.0796 187.476 80.3276 187.972C80.5836 188.46 80.7116 189.06 80.7116 189.772ZM75.8516 189.772C75.8516 190.532 75.9996 191.136 76.2956 191.584C76.5996 192.024 77.0796 192.244 77.7356 192.244C78.3836 192.244 78.8596 192.024 79.1636 191.584C79.4676 191.136 79.6196 190.532 79.6196 189.772C79.6196 189.012 79.4676 188.416 79.1636 187.984C78.8596 187.552 78.3796 187.336 77.7236 187.336C77.0676 187.336 76.5916 187.552 76.2956 187.984C75.9996 188.416 75.8516 189.012 75.8516 189.772ZM90.6744 188.188C90.6744 188.588 90.5544 188.9 90.3144 189.124C90.0744 189.348 89.7664 189.5 89.3904 189.58V189.628C89.7904 189.684 90.1384 189.828 90.4344 190.06C90.7304 190.284 90.8784 190.636 90.8784 191.116C90.8784 191.66 90.6744 192.112 90.2664 192.472C89.8664 192.824 89.2024 193 88.2744 193H85.5024V186.568H88.2624C88.7184 186.568 89.1264 186.62 89.4864 186.724C89.8544 186.82 90.1424 186.988 90.3504 187.228C90.5664 187.46 90.6744 187.78 90.6744 188.188ZM89.6064 188.32C89.6064 188.016 89.4944 187.796 89.2704 187.66C89.0544 187.516 88.6984 187.444 88.2024 187.444H86.5584V189.208H88.0104C89.0744 189.208 89.6064 188.912 89.6064 188.32ZM89.7864 191.116C89.7864 190.748 89.6464 190.484 89.3664 190.324C89.0864 190.164 88.6744 190.084 88.1304 190.084H86.5584V192.148H88.1544C88.6824 192.148 89.0864 192.072 89.3664 191.92C89.6464 191.76 89.7864 191.492 89.7864 191.116ZM94.8525 186.46C95.6365 186.46 96.2165 186.632 96.5925 186.976C96.9685 187.32 97.1565 187.868 97.1565 188.62V193H96.3885L96.1845 192.088H96.1365C95.8565 192.44 95.5605 192.7 95.2485 192.868C94.9445 193.036 94.5205 193.12 93.9765 193.12C93.3925 193.12 92.9085 192.968 92.5245 192.664C92.1405 192.352 91.9485 191.868 91.9485 191.212C91.9485 190.572 92.2005 190.08 92.7045 189.736C93.2085 189.384 93.9845 189.192 95.0325 189.16L96.1245 189.124V188.74C96.1245 188.204 96.0085 187.832 95.7765 187.624C95.5445 187.416 95.2165 187.312 94.7925 187.312C94.4565 187.312 94.1365 187.364 93.8325 187.468C93.5285 187.564 93.2445 187.676 92.9805 187.804L92.6565 187.012C92.9365 186.86 93.2685 186.732 93.6525 186.628C94.0365 186.516 94.4365 186.46 94.8525 186.46ZM95.1645 189.892C94.3645 189.924 93.8085 190.052 93.4965 190.276C93.1925 190.5 93.0405 190.816 93.0405 191.224C93.0405 191.584 93.1485 191.848 93.3645 192.016C93.5885 192.184 93.8725 192.268 94.2165 192.268C94.7605 192.268 95.2125 192.12 95.5725 191.824C95.9325 191.52 96.1125 191.056 96.1125 190.432V189.856L95.1645 189.892ZM107.867 186.568V193H99.143V186.568H100.199V192.112H102.971V186.568H104.027V192.112H106.811V186.568H107.867ZM112.408 186.448C112.96 186.448 113.432 186.568 113.824 186.808C114.224 187.048 114.528 187.388 114.736 187.828C114.952 188.26 115.06 188.768 115.06 189.352V189.988H110.656C110.672 190.716 110.856 191.272 111.208 191.656C111.568 192.032 112.068 192.22 112.708 192.22C113.116 192.22 113.476 192.184 113.788 192.112C114.108 192.032 114.436 191.92 114.772 191.776V192.7C114.444 192.844 114.12 192.948 113.8 193.012C113.48 193.084 113.1 193.12 112.66 193.12C112.052 193.12 111.512 192.996 111.04 192.748C110.576 192.5 110.212 192.132 109.948 191.644C109.692 191.148 109.564 190.544 109.564 189.832C109.564 189.128 109.68 188.524 109.912 188.02C110.152 187.516 110.484 187.128 110.908 186.856C111.34 186.584 111.84 186.448 112.408 186.448ZM112.396 187.312C111.892 187.312 111.492 187.476 111.196 187.804C110.908 188.124 110.736 188.572 110.68 189.148H113.956C113.948 188.604 113.82 188.164 113.572 187.828C113.324 187.484 112.932 187.312 112.396 187.312ZM121.906 183.904C121.85 184.504 121.646 184.96 121.294 185.272C120.95 185.576 120.398 185.728 119.638 185.728C118.854 185.728 118.298 185.576 117.97 185.272C117.65 184.968 117.47 184.512 117.43 183.904H118.414C118.454 184.336 118.566 184.628 118.75 184.78C118.942 184.924 119.246 184.996 119.662 184.996C120.03 184.996 120.318 184.92 120.526 184.768C120.742 184.608 120.87 184.32 120.91 183.904H121.906ZM117.694 190.492C117.694 190.588 117.69 190.732 117.682 190.924C117.674 191.116 117.662 191.308 117.646 191.5C117.638 191.692 117.63 191.844 117.622 191.956L121.066 186.568H122.362V193H121.378V189.208C121.378 189.08 121.378 188.912 121.378 188.704C121.386 188.496 121.394 188.292 121.402 188.092C121.41 187.884 121.418 187.728 121.426 187.624L118.006 193H116.698V186.568H117.694V190.492ZM131.366 186.472C132.006 186.528 132.562 186.696 133.034 186.976C133.514 187.256 133.886 187.632 134.15 188.104C134.414 188.576 134.546 189.136 134.546 189.784C134.546 190.752 134.262 191.524 133.694 192.1C133.134 192.676 132.358 193.008 131.366 193.096V195.88H130.334V193.096C129.702 193.04 129.146 192.876 128.666 192.604C128.186 192.324 127.814 191.948 127.55 191.476C127.286 190.996 127.154 190.432 127.154 189.784C127.154 188.808 127.434 188.032 127.994 187.456C128.562 186.88 129.354 186.552 130.37 186.472V183.88H131.366V186.472ZM130.37 187.348C129.634 187.42 129.098 187.664 128.762 188.08C128.426 188.488 128.258 189.056 128.258 189.784C128.258 190.512 128.426 191.084 128.762 191.5C129.106 191.916 129.642 192.16 130.37 192.232V187.348ZM131.366 192.232C132.086 192.152 132.614 191.904 132.95 191.488C133.286 191.072 133.454 190.504 133.454 189.784C133.454 189.064 133.282 188.5 132.938 188.092C132.602 187.684 132.078 187.44 131.366 187.36V192.232ZM138.657 186.46C139.441 186.46 140.021 186.632 140.397 186.976C140.773 187.32 140.961 187.868 140.961 188.62V193H140.193L139.989 192.088H139.941C139.661 192.44 139.365 192.7 139.053 192.868C138.749 193.036 138.325 193.12 137.781 193.12C137.197 193.12 136.713 192.968 136.329 192.664C135.945 192.352 135.753 191.868 135.753 191.212C135.753 190.572 136.005 190.08 136.509 189.736C137.013 189.384 137.789 189.192 138.837 189.16L139.929 189.124V188.74C139.929 188.204 139.813 187.832 139.581 187.624C139.349 187.416 139.021 187.312 138.597 187.312C138.261 187.312 137.941 187.364 137.637 187.468C137.333 187.564 137.049 187.676 136.785 187.804L136.461 187.012C136.741 186.86 137.073 186.732 137.457 186.628C137.841 186.516 138.241 186.46 138.657 186.46ZM138.969 189.892C138.169 189.924 137.613 190.052 137.301 190.276C136.997 190.5 136.845 190.816 136.845 191.224C136.845 191.584 136.953 191.848 137.169 192.016C137.393 192.184 137.677 192.268 138.021 192.268C138.565 192.268 139.017 192.12 139.377 191.824C139.737 191.52 139.917 191.056 139.917 190.432V189.856L138.969 189.892ZM144.004 186.568V189.244H147.496V186.568H148.552V193H147.496V190.132H144.004V193H142.948V186.568H144.004ZM155.028 187.456H152.928V193H151.884V187.456H149.808V186.568H155.028V187.456ZM158.731 186.46C159.515 186.46 160.095 186.632 160.471 186.976C160.847 187.32 161.035 187.868 161.035 188.62V193H160.267L160.063 192.088H160.015C159.735 192.44 159.439 192.7 159.127 192.868C158.823 193.036 158.399 193.12 157.855 193.12C157.271 193.12 156.787 192.968 156.403 192.664C156.019 192.352 155.827 191.868 155.827 191.212C155.827 190.572 156.079 190.08 156.583 189.736C157.087 189.384 157.863 189.192 158.911 189.16L160.003 189.124V188.74C160.003 188.204 159.887 187.832 159.655 187.624C159.423 187.416 159.095 187.312 158.671 187.312C158.335 187.312 158.015 187.364 157.711 187.468C157.407 187.564 157.123 187.676 156.859 187.804L156.535 187.012C156.815 186.86 157.147 186.732 157.531 186.628C157.915 186.516 158.315 186.46 158.731 186.46ZM159.043 189.892C158.243 189.924 157.687 190.052 157.375 190.276C157.071 190.5 156.919 190.816 156.919 191.224C156.919 191.584 157.027 191.848 157.243 192.016C157.467 192.184 157.751 192.268 158.095 192.268C158.639 192.268 159.091 192.12 159.451 191.824C159.811 191.52 159.991 191.056 159.991 190.432V189.856L159.043 189.892ZM164.714 186.448C165.45 186.448 166.034 186.596 166.466 186.892C166.906 187.18 167.126 187.596 167.126 188.14C167.126 188.532 167.018 188.844 166.802 189.076C166.586 189.3 166.29 189.464 165.914 189.568V189.616C166.17 189.688 166.406 189.788 166.622 189.916C166.838 190.044 167.01 190.212 167.138 190.42C167.274 190.628 167.342 190.896 167.342 191.224C167.342 191.76 167.118 192.212 166.67 192.58C166.23 192.94 165.538 193.12 164.594 193.12C164.13 193.12 163.71 193.08 163.334 193C162.958 192.928 162.646 192.828 162.398 192.7V191.752C162.67 191.88 162.99 191.996 163.358 192.1C163.734 192.204 164.142 192.256 164.582 192.256C165.062 192.256 165.466 192.176 165.794 192.016C166.13 191.848 166.298 191.564 166.298 191.164C166.298 190.444 165.686 190.084 164.462 190.084H163.598V189.22H164.294C164.846 189.22 165.286 189.148 165.614 189.004C165.95 188.852 166.118 188.596 166.118 188.236C166.118 187.932 165.99 187.704 165.734 187.552C165.486 187.4 165.126 187.324 164.654 187.324C164.302 187.324 163.99 187.36 163.718 187.432C163.454 187.496 163.162 187.596 162.842 187.732L162.47 186.892C163.142 186.596 163.89 186.448 164.714 186.448ZM169.901 190.492C169.901 190.588 169.897 190.732 169.889 190.924C169.881 191.116 169.869 191.308 169.853 191.5C169.845 191.692 169.837 191.844 169.829 191.956L173.273 186.568H174.569V193H173.585V189.208C173.585 189.08 173.585 188.912 173.585 188.704C173.593 188.496 173.601 188.292 173.609 188.092C173.617 187.884 173.625 187.728 173.633 187.624L170.213 193H168.905V186.568H169.901V190.492ZM179.1 186.448C179.652 186.448 180.124 186.568 180.516 186.808C180.916 187.048 181.22 187.388 181.428 187.828C181.644 188.26 181.752 188.768 181.752 189.352V189.988H177.348C177.364 190.716 177.548 191.272 177.9 191.656C178.26 192.032 178.76 192.22 179.4 192.22C179.808 192.22 180.168 192.184 180.48 192.112C180.8 192.032 181.128 191.92 181.464 191.776V192.7C181.136 192.844 180.812 192.948 180.492 193.012C180.172 193.084 179.792 193.12 179.352 193.12C178.744 193.12 178.204 192.996 177.732 192.748C177.268 192.5 176.904 192.132 176.64 191.644C176.384 191.148 176.256 190.544 176.256 189.832C176.256 189.128 176.372 188.524 176.604 188.02C176.844 187.516 177.176 187.128 177.6 186.856C178.032 186.584 178.532 186.448 179.1 186.448ZM179.088 187.312C178.584 187.312 178.184 187.476 177.888 187.804C177.6 188.124 177.428 188.572 177.372 189.148H180.648C180.64 188.604 180.512 188.164 180.264 187.828C180.016 187.484 179.624 187.312 179.088 187.312ZM188.597 183.904C188.541 184.504 188.337 184.96 187.985 185.272C187.641 185.576 187.089 185.728 186.329 185.728C185.545 185.728 184.989 185.576 184.661 185.272C184.341 184.968 184.161 184.512 184.121 183.904H185.105C185.145 184.336 185.257 184.628 185.441 184.78C185.633 184.924 185.937 184.996 186.353 184.996C186.721 184.996 187.009 184.92 187.217 184.768C187.433 184.608 187.561 184.32 187.601 183.904H188.597ZM184.385 190.492C184.385 190.588 184.381 190.732 184.373 190.924C184.365 191.116 184.353 191.308 184.337 191.5C184.329 191.692 184.321 191.844 184.313 191.956L187.757 186.568H189.053V193H188.069V189.208C188.069 189.08 188.069 188.912 188.069 188.704C188.077 188.496 188.085 188.292 188.093 188.092C188.101 187.884 188.109 187.728 188.117 187.624L184.697 193H183.389V186.568H184.385V190.492ZM192.696 184.66L192.54 190.48H191.4L191.244 184.66H192.696ZM192.012 193.084C191.764 193.084 191.556 193 191.388 192.832C191.22 192.664 191.136 192.456 191.136 192.208C191.136 191.96 191.22 191.752 191.388 191.584C191.556 191.416 191.764 191.332 192.012 191.332C192.252 191.332 192.456 191.416 192.624 191.584C192.792 191.752 192.876 191.96 192.876 192.208C192.876 192.456 192.792 192.664 192.624 192.832C192.456 193 192.252 193.084 192.012 193.084Z" fill="black"/>
<path d="M96.462 92.072C96.462 91.1013 96.672 90.238 97.092 89.482C97.512 88.7167 98.0953 88.124 98.842 87.704C99.598 87.2747 100.452 87.06 101.404 87.06C102.571 87.06 103.569 87.368 104.4 87.984C105.231 88.6 105.786 89.44 106.066 90.504H103.434C103.238 90.0933 102.958 89.7807 102.594 89.566C102.239 89.3513 101.833 89.244 101.376 89.244C100.639 89.244 100.041 89.5007 99.584 90.014C99.1267 90.5273 98.898 91.2133 98.898 92.072C98.898 92.9307 99.1267 93.6167 99.584 94.13C100.041 94.6433 100.639 94.9 101.376 94.9C101.833 94.9 102.239 94.7927 102.594 94.578C102.958 94.3633 103.238 94.0507 103.434 93.64H106.066C105.786 94.704 105.231 95.544 104.4 96.16C103.569 96.7667 102.571 97.07 101.404 97.07C100.452 97.07 99.598 96.86 98.842 96.44C98.0953 96.0107 97.512 95.418 97.092 94.662C96.672 93.906 96.462 93.0427 96.462 92.072ZM111.088 97.098C110.369 97.098 109.725 96.9813 109.156 96.748C108.587 96.5147 108.129 96.1693 107.784 95.712C107.448 95.2547 107.271 94.704 107.252 94.06H109.8C109.837 94.424 109.963 94.704 110.178 94.9C110.393 95.0867 110.673 95.18 111.018 95.18C111.373 95.18 111.653 95.1007 111.858 94.942C112.063 94.774 112.166 94.5453 112.166 94.256C112.166 94.0133 112.082 93.8127 111.914 93.654C111.755 93.4953 111.555 93.3647 111.312 93.262C111.079 93.1593 110.743 93.0427 110.304 92.912C109.669 92.716 109.151 92.52 108.75 92.324C108.349 92.128 108.003 91.8387 107.714 91.456C107.425 91.0733 107.28 90.574 107.28 89.958C107.28 89.0433 107.611 88.3293 108.274 87.816C108.937 87.2933 109.8 87.032 110.864 87.032C111.947 87.032 112.819 87.2933 113.482 87.816C114.145 88.3293 114.499 89.048 114.546 89.972H111.956C111.937 89.6547 111.821 89.4073 111.606 89.23C111.391 89.0433 111.116 88.95 110.78 88.95C110.491 88.95 110.257 89.0293 110.08 89.188C109.903 89.3373 109.814 89.5567 109.814 89.846C109.814 90.1633 109.963 90.4107 110.262 90.588C110.561 90.7653 111.027 90.9567 111.662 91.162C112.297 91.3767 112.81 91.582 113.202 91.778C113.603 91.974 113.949 92.2587 114.238 92.632C114.527 93.0053 114.672 93.486 114.672 94.074C114.672 94.634 114.527 95.1427 114.238 95.6C113.958 96.0573 113.547 96.4213 113.006 96.692C112.465 96.9627 111.825 97.098 111.088 97.098ZM119.701 97.098C118.983 97.098 118.339 96.9813 117.769 96.748C117.2 96.5147 116.743 96.1693 116.397 95.712C116.061 95.2547 115.884 94.704 115.865 94.06H118.413C118.451 94.424 118.577 94.704 118.791 94.9C119.006 95.0867 119.286 95.18 119.631 95.18C119.986 95.18 120.266 95.1007 120.471 94.942C120.677 94.774 120.779 94.5453 120.779 94.256C120.779 94.0133 120.695 93.8127 120.527 93.654C120.369 93.4953 120.168 93.3647 119.925 93.262C119.692 93.1593 119.356 93.0427 118.917 92.912C118.283 92.716 117.765 92.52 117.363 92.324C116.962 92.128 116.617 91.8387 116.327 91.456C116.038 91.0733 115.893 90.574 115.893 89.958C115.893 89.0433 116.225 88.3293 116.887 87.816C117.55 87.2933 118.413 87.032 119.477 87.032C120.56 87.032 121.433 87.2933 122.095 87.816C122.758 88.3293 123.113 89.048 123.159 89.972H120.569C120.551 89.6547 120.434 89.4073 120.219 89.23C120.005 89.0433 119.729 88.95 119.393 88.95C119.104 88.95 118.871 89.0293 118.693 89.188C118.516 89.3373 118.427 89.5567 118.427 89.846C118.427 90.1633 118.577 90.4107 118.875 90.588C119.174 90.7653 119.641 90.9567 120.275 91.162C120.91 91.3767 121.423 91.582 121.815 91.778C122.217 91.974 122.562 92.2587 122.851 92.632C123.141 93.0053 123.285 93.486 123.285 94.074C123.285 94.634 123.141 95.1427 122.851 95.6C122.571 96.0573 122.161 96.4213 121.619 96.692C121.078 96.9627 120.439 97.098 119.701 97.098ZM124.605 89.664C124.642 88.6653 124.969 87.8953 125.585 87.354C126.201 86.8127 127.036 86.542 128.091 86.542C128.791 86.542 129.388 86.6633 129.883 86.906C130.387 87.1487 130.765 87.48 131.017 87.9C131.278 88.32 131.409 88.7913 131.409 89.314C131.409 89.93 131.255 90.434 130.947 90.826C130.639 91.2087 130.279 91.47 129.869 91.61V91.666C130.401 91.8433 130.821 92.1373 131.129 92.548C131.437 92.9587 131.591 93.486 131.591 94.13C131.591 94.7087 131.455 95.222 131.185 95.67C130.923 96.1087 130.536 96.454 130.023 96.706C129.519 96.958 128.917 97.084 128.217 97.084C127.097 97.084 126.201 96.8087 125.529 96.258C124.866 95.7073 124.516 94.8767 124.479 93.766H126.803C126.812 94.1767 126.929 94.5033 127.153 94.746C127.377 94.9793 127.703 95.096 128.133 95.096C128.497 95.096 128.777 94.9933 128.973 94.788C129.178 94.5733 129.281 94.2933 129.281 93.948C129.281 93.5 129.136 93.178 128.847 92.982C128.567 92.7767 128.114 92.674 127.489 92.674H127.041V90.728H127.489C127.965 90.728 128.347 90.6487 128.637 90.49C128.935 90.322 129.085 90.028 129.085 89.608C129.085 89.272 128.991 89.0107 128.805 88.824C128.618 88.6373 128.361 88.544 128.035 88.544C127.68 88.544 127.414 88.6513 127.237 88.866C127.069 89.0807 126.971 89.3467 126.943 89.664H124.605Z" fill="black"/>
</g>
<defs>
<linearGradient id="paint0_linear" x1="118" y1="-12" x2="124.5" y2="403.5" gradientUnits="userSpaceOnUse">
<stop stop-color="white"/>
<stop offset="1" stop-color="white" stop-opacity="0"/>
</linearGradient>
<clipPath id="clip0">
<rect width="234" height="212" fill="white"/>
</clipPath>
</defs>
</svg>
