<svg width="234" height="212" viewBox="0 0 234 212" fill="none" xmlns="http://www.w3.org/2000/svg">
<g clip-path="url(#clip0)">
<rect x="-10" y="-12" width="256" height="236" fill="url(#paint0_linear)"/>
<path d="M17.2795 112.432H18.2875V117.136C18.2875 117.4 18.2835 117.696 18.2755 118.024C18.2675 118.352 18.2555 118.652 18.2395 118.924C18.2315 119.196 18.2195 119.396 18.2035 119.524H18.2515L22.9675 112.432H24.1675V121H23.1595V116.344C23.1595 116.048 23.1635 115.732 23.1715 115.396C23.1875 115.06 23.2035 114.752 23.2195 114.472C23.2355 114.192 23.2475 113.992 23.2555 113.872H23.2075L18.4795 121H17.2795V112.432ZM33.2345 114.568V121H32.2865V116.896C32.2865 116.728 32.2905 116.552 32.2985 116.368C32.3145 116.184 32.3305 116.004 32.3465 115.828H32.3105L30.2105 121H29.3225L27.2825 115.828H27.2465C27.2705 116.188 27.2825 116.556 27.2825 116.932V121H26.3345V114.568H27.7385L29.7665 119.74L31.8305 114.568H33.2345ZM37.7716 114.448C38.3236 114.448 38.7956 114.568 39.1876 114.808C39.5876 115.048 39.8916 115.388 40.0996 115.828C40.3156 116.26 40.4236 116.768 40.4236 117.352V117.988H36.0196C36.0356 118.716 36.2196 119.272 36.5716 119.656C36.9316 120.032 37.4316 120.22 38.0716 120.22C38.4796 120.22 38.8396 120.184 39.1516 120.112C39.4716 120.032 39.7996 119.92 40.1356 119.776V120.7C39.8076 120.844 39.4836 120.948 39.1636 121.012C38.8436 121.084 38.4636 121.12 38.0236 121.12C37.4156 121.12 36.8756 120.996 36.4036 120.748C35.9396 120.5 35.5756 120.132 35.3116 119.644C35.0556 119.148 34.9276 118.544 34.9276 117.832C34.9276 117.128 35.0436 116.524 35.2756 116.02C35.5156 115.516 35.8476 115.128 36.2716 114.856C36.7036 114.584 37.2036 114.448 37.7716 114.448ZM37.7596 115.312C37.2556 115.312 36.8556 115.476 36.5596 115.804C36.2716 116.124 36.0996 116.572 36.0436 117.148H39.3196C39.3116 116.604 39.1836 116.164 38.9356 115.828C38.6876 115.484 38.2956 115.312 37.7596 115.312ZM43.117 114.568V117.244H46.609V114.568H47.665V121H46.609V118.132H43.117V121H42.061V114.568H43.117ZM50.7576 114.568V117.244H54.2496V114.568H55.3056V121H54.2496V118.132H50.7576V121H49.7016V114.568H50.7576ZM62.9343 117.772C62.9343 118.836 62.6623 119.66 62.1183 120.244C61.5823 120.828 60.8543 121.12 59.9343 121.12C59.3663 121.12 58.8583 120.992 58.4103 120.736C57.9703 120.472 57.6223 120.092 57.3663 119.596C57.1103 119.092 56.9823 118.484 56.9823 117.772C56.9823 116.708 57.2503 115.888 57.7863 115.312C58.3223 114.736 59.0503 114.448 59.9703 114.448C60.5543 114.448 61.0663 114.58 61.5063 114.844C61.9543 115.1 62.3023 115.476 62.5503 115.972C62.8063 116.46 62.9343 117.06 62.9343 117.772ZM58.0743 117.772C58.0743 118.532 58.2223 119.136 58.5183 119.584C58.8223 120.024 59.3023 120.244 59.9583 120.244C60.6063 120.244 61.0823 120.024 61.3863 119.584C61.6903 119.136 61.8423 118.532 61.8423 117.772C61.8423 117.012 61.6903 116.416 61.3863 115.984C61.0823 115.552 60.6023 115.336 59.9463 115.336C59.2903 115.336 58.8143 115.552 58.5183 115.984C58.2223 116.416 58.0743 117.012 58.0743 117.772ZM73.3171 117.772C73.3171 118.836 73.0451 119.66 72.5011 120.244C71.9651 120.828 71.2371 121.12 70.3171 121.12C69.7491 121.12 69.2411 120.992 68.7931 120.736C68.3531 120.472 68.0051 120.092 67.7491 119.596C67.4931 119.092 67.3651 118.484 67.3651 117.772C67.3651 116.708 67.6331 115.888 68.1691 115.312C68.7051 114.736 69.4331 114.448 70.3531 114.448C70.9371 114.448 71.4491 114.58 71.8891 114.844C72.3371 115.1 72.6851 115.476 72.9331 115.972C73.1891 116.46 73.3171 117.06 73.3171 117.772ZM68.4571 117.772C68.4571 118.532 68.6051 119.136 68.9011 119.584C69.2051 120.024 69.6851 120.244 70.3411 120.244C70.9891 120.244 71.4651 120.024 71.7691 119.584C72.0731 119.136 72.2251 118.532 72.2251 117.772C72.2251 117.012 72.0731 116.416 71.7691 115.984C71.4651 115.552 70.9851 115.336 70.3291 115.336C69.6731 115.336 69.1971 115.552 68.9011 115.984C68.6051 116.416 68.4571 117.012 68.4571 117.772ZM76.0467 114.568V117.244H79.5387V114.568H80.5947V121H79.5387V118.132H76.0467V121H74.9907V114.568H76.0467ZM88.3285 121.12C87.7605 121.12 87.2525 121.004 86.8045 120.772C86.3645 120.54 86.0165 120.18 85.7605 119.692C85.5125 119.204 85.3885 118.58 85.3885 117.82C85.3885 117.028 85.5205 116.384 85.7845 115.888C86.0485 115.392 86.4045 115.028 86.8525 114.796C87.3085 114.564 87.8245 114.448 88.4005 114.448C88.7285 114.448 89.0445 114.484 89.3485 114.556C89.6525 114.62 89.9005 114.7 90.0925 114.796L89.7685 115.672C89.5765 115.6 89.3525 115.532 89.0965 115.468C88.8405 115.404 88.6005 115.372 88.3765 115.372C87.1125 115.372 86.4805 116.184 86.4805 117.808C86.4805 118.584 86.6325 119.18 86.9365 119.596C87.2485 120.004 87.7085 120.208 88.3165 120.208C88.6685 120.208 88.9765 120.172 89.2405 120.1C89.5125 120.028 89.7605 119.94 89.9845 119.836V120.772C89.7685 120.884 89.5285 120.968 89.2645 121.024C89.0085 121.088 88.6965 121.12 88.3285 121.12ZM97.1061 117.772C97.1061 118.836 96.8341 119.66 96.2901 120.244C95.7541 120.828 95.0261 121.12 94.1061 121.12C93.5381 121.12 93.0301 120.992 92.5821 120.736C92.1421 120.472 91.7941 120.092 91.5381 119.596C91.2821 119.092 91.1541 118.484 91.1541 117.772C91.1541 116.708 91.4221 115.888 91.9581 115.312C92.4941 114.736 93.2221 114.448 94.1421 114.448C94.7261 114.448 95.2381 114.58 95.6781 114.844C96.1261 115.1 96.4741 115.476 96.7221 115.972C96.9781 116.46 97.1061 117.06 97.1061 117.772ZM92.2461 117.772C92.2461 118.532 92.3941 119.136 92.6901 119.584C92.9941 120.024 93.4741 120.244 94.1301 120.244C94.7781 120.244 95.2541 120.024 95.5581 119.584C95.8621 119.136 96.0141 118.532 96.0141 117.772C96.0141 117.012 95.8621 116.416 95.5581 115.984C95.2541 115.552 94.7741 115.336 94.1181 115.336C93.4621 115.336 92.9861 115.552 92.6901 115.984C92.3941 116.416 92.2461 117.012 92.2461 117.772ZM100.472 114.448C101.208 114.448 101.792 114.596 102.224 114.892C102.664 115.18 102.884 115.596 102.884 116.14C102.884 116.532 102.776 116.844 102.56 117.076C102.344 117.3 102.048 117.464 101.672 117.568V117.616C101.928 117.688 102.164 117.788 102.38 117.916C102.596 118.044 102.768 118.212 102.896 118.42C103.032 118.628 103.1 118.896 103.1 119.224C103.1 119.76 102.876 120.212 102.428 120.58C101.988 120.94 101.296 121.12 100.352 121.12C99.8878 121.12 99.4678 121.08 99.0918 121C98.7158 120.928 98.4038 120.828 98.1558 120.7V119.752C98.4278 119.88 98.7478 119.996 99.1158 120.1C99.4918 120.204 99.8998 120.256 100.34 120.256C100.82 120.256 101.224 120.176 101.552 120.016C101.888 119.848 102.056 119.564 102.056 119.164C102.056 118.444 101.444 118.084 100.22 118.084H99.3558V117.22H100.052C100.604 117.22 101.044 117.148 101.372 117.004C101.708 116.852 101.876 116.596 101.876 116.236C101.876 115.932 101.748 115.704 101.492 115.552C101.244 115.4 100.884 115.324 100.412 115.324C100.06 115.324 99.7478 115.36 99.4758 115.432C99.2118 115.496 98.9198 115.596 98.5998 115.732L98.2278 114.892C98.8998 114.596 99.6478 114.448 100.472 114.448ZM109.439 114.568V120.112H110.375V123.232H109.355V121H104.879V123.232H103.871V120.112H104.387C104.939 119.352 105.351 118.488 105.623 117.52C105.903 116.544 106.047 115.56 106.055 114.568H109.439ZM106.991 115.396C106.959 115.94 106.875 116.504 106.739 117.088C106.603 117.664 106.427 118.216 106.211 118.744C106.003 119.272 105.759 119.728 105.479 120.112H108.419V115.396H106.991ZM114.071 114.46C114.855 114.46 115.435 114.632 115.811 114.976C116.187 115.32 116.375 115.868 116.375 116.62V121H115.607L115.403 120.088H115.355C115.075 120.44 114.779 120.7 114.467 120.868C114.163 121.036 113.739 121.12 113.195 121.12C112.611 121.12 112.127 120.968 111.743 120.664C111.359 120.352 111.167 119.868 111.167 119.212C111.167 118.572 111.419 118.08 111.923 117.736C112.427 117.384 113.203 117.192 114.251 117.16L115.343 117.124V116.74C115.343 116.204 115.227 115.832 114.995 115.624C114.763 115.416 114.435 115.312 114.011 115.312C113.675 115.312 113.355 115.364 113.051 115.468C112.747 115.564 112.463 115.676 112.199 115.804L111.875 115.012C112.155 114.86 112.487 114.732 112.871 114.628C113.255 114.516 113.655 114.46 114.071 114.46ZM114.383 117.892C113.583 117.924 113.027 118.052 112.715 118.276C112.411 118.5 112.259 118.816 112.259 119.224C112.259 119.584 112.367 119.848 112.583 120.016C112.807 120.184 113.091 120.268 113.435 120.268C113.979 120.268 114.431 120.12 114.791 119.824C115.151 119.52 115.331 119.056 115.331 118.432V117.856L114.383 117.892ZM120.846 114.448C121.398 114.448 121.87 114.568 122.262 114.808C122.662 115.048 122.966 115.388 123.174 115.828C123.39 116.26 123.498 116.768 123.498 117.352V117.988H119.094C119.11 118.716 119.294 119.272 119.646 119.656C120.006 120.032 120.506 120.22 121.146 120.22C121.554 120.22 121.914 120.184 122.226 120.112C122.546 120.032 122.874 119.92 123.21 119.776V120.7C122.882 120.844 122.558 120.948 122.238 121.012C121.918 121.084 121.538 121.12 121.098 121.12C120.49 121.12 119.95 120.996 119.478 120.748C119.014 120.5 118.65 120.132 118.386 119.644C118.13 119.148 118.002 118.544 118.002 117.832C118.002 117.128 118.118 116.524 118.35 116.02C118.59 115.516 118.922 115.128 119.346 114.856C119.778 114.584 120.278 114.448 120.846 114.448ZM120.834 115.312C120.33 115.312 119.93 115.476 119.634 115.804C119.346 116.124 119.174 116.572 119.118 117.148H122.394C122.386 116.604 122.258 116.164 122.01 115.828C121.762 115.484 121.37 115.312 120.834 115.312ZM129.575 115.456H127.475V121H126.431V115.456H124.355V114.568H129.575V115.456ZM137.763 114.568H138.915L136.167 117.664L139.143 121H137.919L135.015 117.736V121H133.959V114.568H135.015V117.688L137.763 114.568ZM142.747 114.46C143.531 114.46 144.111 114.632 144.487 114.976C144.863 115.32 145.051 115.868 145.051 116.62V121H144.283L144.079 120.088H144.031C143.751 120.44 143.455 120.7 143.143 120.868C142.839 121.036 142.415 121.12 141.871 121.12C141.287 121.12 140.803 120.968 140.419 120.664C140.035 120.352 139.843 119.868 139.843 119.212C139.843 118.572 140.095 118.08 140.599 117.736C141.103 117.384 141.879 117.192 142.927 117.16L144.019 117.124V116.74C144.019 116.204 143.903 115.832 143.671 115.624C143.439 115.416 143.111 115.312 142.687 115.312C142.351 115.312 142.031 115.364 141.727 115.468C141.423 115.564 141.139 115.676 140.875 115.804L140.551 115.012C140.831 114.86 141.163 114.732 141.547 114.628C141.931 114.516 142.331 114.46 142.747 114.46ZM143.059 117.892C142.259 117.924 141.703 118.052 141.391 118.276C141.087 118.5 140.935 118.816 140.935 119.224C140.935 119.584 141.043 119.848 141.259 120.016C141.483 120.184 141.767 120.268 142.111 120.268C142.655 120.268 143.107 120.12 143.467 119.824C143.827 119.52 144.007 119.056 144.007 118.432V117.856L143.059 117.892ZM150.098 114.448C150.89 114.448 151.526 114.724 152.006 115.276C152.494 115.828 152.738 116.66 152.738 117.772C152.738 118.868 152.494 119.7 152.006 120.268C151.526 120.836 150.886 121.12 150.086 121.12C149.59 121.12 149.178 121.028 148.85 120.844C148.53 120.652 148.278 120.432 148.094 120.184H148.022C148.038 120.32 148.054 120.492 148.07 120.7C148.086 120.908 148.094 121.088 148.094 121.24V123.88H147.038V114.568H147.902L148.046 115.444H148.094C148.286 115.164 148.538 114.928 148.85 114.736C149.162 114.544 149.578 114.448 150.098 114.448ZM149.906 115.336C149.25 115.336 148.786 115.52 148.514 115.888C148.25 116.256 148.11 116.816 148.094 117.568V117.772C148.094 118.564 148.222 119.176 148.478 119.608C148.742 120.032 149.226 120.244 149.93 120.244C150.322 120.244 150.642 120.136 150.89 119.92C151.146 119.704 151.334 119.412 151.454 119.044C151.582 118.668 151.646 118.24 151.646 117.76C151.646 117.024 151.502 116.436 151.214 115.996C150.934 115.556 150.498 115.336 149.906 115.336ZM158.224 114.568H159.376L156.628 117.664L159.604 121H158.38L155.476 117.736V121H154.42V114.568H155.476V117.688L158.224 114.568ZM163.208 114.46C163.992 114.46 164.572 114.632 164.948 114.976C165.324 115.32 165.512 115.868 165.512 116.62V121H164.744L164.54 120.088H164.492C164.212 120.44 163.916 120.7 163.604 120.868C163.3 121.036 162.876 121.12 162.332 121.12C161.748 121.12 161.264 120.968 160.88 120.664C160.496 120.352 160.304 119.868 160.304 119.212C160.304 118.572 160.556 118.08 161.06 117.736C161.564 117.384 162.34 117.192 163.388 117.16L164.48 117.124V116.74C164.48 116.204 164.364 115.832 164.132 115.624C163.9 115.416 163.572 115.312 163.148 115.312C162.812 115.312 162.492 115.364 162.188 115.468C161.884 115.564 161.6 115.676 161.336 115.804L161.012 115.012C161.292 114.86 161.624 114.732 162.008 114.628C162.392 114.516 162.792 114.46 163.208 114.46ZM163.52 117.892C162.72 117.924 162.164 118.052 161.852 118.276C161.548 118.5 161.396 118.816 161.396 119.224C161.396 119.584 161.504 119.848 161.72 120.016C161.944 120.184 162.228 120.268 162.572 120.268C163.116 120.268 163.568 120.12 163.928 119.824C164.288 119.52 164.468 119.056 164.468 118.432V117.856L163.52 117.892ZM170.079 121.12C169.511 121.12 169.003 121.004 168.555 120.772C168.115 120.54 167.767 120.18 167.511 119.692C167.263 119.204 167.139 118.58 167.139 117.82C167.139 117.028 167.271 116.384 167.535 115.888C167.799 115.392 168.155 115.028 168.603 114.796C169.059 114.564 169.575 114.448 170.151 114.448C170.479 114.448 170.795 114.484 171.099 114.556C171.403 114.62 171.651 114.7 171.843 114.796L171.519 115.672C171.327 115.6 171.103 115.532 170.847 115.468C170.591 115.404 170.351 115.372 170.127 115.372C168.863 115.372 168.231 116.184 168.231 117.808C168.231 118.584 168.383 119.18 168.687 119.596C168.999 120.004 169.459 120.208 170.067 120.208C170.419 120.208 170.727 120.172 170.991 120.1C171.263 120.028 171.511 119.94 171.735 119.836V120.772C171.519 120.884 171.279 120.968 171.015 121.024C170.759 121.088 170.447 121.12 170.079 121.12ZM181.553 116.188C181.553 116.588 181.433 116.9 181.193 117.124C180.953 117.348 180.645 117.5 180.269 117.58V117.628C180.669 117.684 181.017 117.828 181.313 118.06C181.609 118.284 181.757 118.636 181.757 119.116C181.757 119.66 181.553 120.112 181.145 120.472C180.745 120.824 180.081 121 179.153 121H176.381V114.568H179.141C179.597 114.568 180.005 114.62 180.365 114.724C180.733 114.82 181.021 114.988 181.229 115.228C181.445 115.46 181.553 115.78 181.553 116.188ZM180.485 116.32C180.485 116.016 180.373 115.796 180.149 115.66C179.933 115.516 179.577 115.444 179.081 115.444H177.437V117.208H178.889C179.953 117.208 180.485 116.912 180.485 116.32ZM180.665 119.116C180.665 118.748 180.525 118.484 180.245 118.324C179.965 118.164 179.553 118.084 179.009 118.084H177.437V120.148H179.033C179.561 120.148 179.965 120.072 180.245 119.92C180.525 119.76 180.665 119.492 180.665 119.116ZM185.731 114.46C186.515 114.46 187.095 114.632 187.471 114.976C187.847 115.32 188.035 115.868 188.035 116.62V121H187.267L187.063 120.088H187.015C186.735 120.44 186.439 120.7 186.127 120.868C185.823 121.036 185.399 121.12 184.855 121.12C184.271 121.12 183.787 120.968 183.403 120.664C183.019 120.352 182.827 119.868 182.827 119.212C182.827 118.572 183.079 118.08 183.583 117.736C184.087 117.384 184.863 117.192 185.911 117.16L187.003 117.124V116.74C187.003 116.204 186.887 115.832 186.655 115.624C186.423 115.416 186.095 115.312 185.671 115.312C185.335 115.312 185.015 115.364 184.711 115.468C184.407 115.564 184.123 115.676 183.859 115.804L183.535 115.012C183.815 114.86 184.147 114.732 184.531 114.628C184.915 114.516 185.315 114.46 185.731 114.46ZM186.043 117.892C185.243 117.924 184.687 118.052 184.375 118.276C184.071 118.5 183.919 118.816 183.919 119.224C183.919 119.584 184.027 119.848 184.243 120.016C184.467 120.184 184.751 120.268 185.095 120.268C185.639 120.268 186.091 120.12 186.451 119.824C186.811 119.52 186.991 119.056 186.991 118.432V117.856L186.043 117.892ZM198.746 114.568V121H190.022V114.568H191.078V120.112H193.85V114.568H194.906V120.112H197.69V114.568H198.746ZM203.287 114.448C203.839 114.448 204.311 114.568 204.703 114.808C205.103 115.048 205.407 115.388 205.615 115.828C205.831 116.26 205.939 116.768 205.939 117.352V117.988H201.535C201.551 118.716 201.735 119.272 202.087 119.656C202.447 120.032 202.947 120.22 203.587 120.22C203.995 120.22 204.355 120.184 204.667 120.112C204.987 120.032 205.315 119.92 205.651 119.776V120.7C205.323 120.844 204.999 120.948 204.679 121.012C204.359 121.084 203.979 121.12 203.539 121.12C202.931 121.12 202.391 120.996 201.919 120.748C201.455 120.5 201.091 120.132 200.827 119.644C200.571 119.148 200.443 118.544 200.443 117.832C200.443 117.128 200.559 116.524 200.791 116.02C201.031 115.516 201.363 115.128 201.787 114.856C202.219 114.584 202.719 114.448 203.287 114.448ZM203.275 115.312C202.771 115.312 202.371 115.476 202.075 115.804C201.787 116.124 201.615 116.572 201.559 117.148H204.835C204.827 116.604 204.699 116.164 204.451 115.828C204.203 115.484 203.811 115.312 203.275 115.312ZM211.501 114.568V115.456H208.633V121H207.577V114.568H211.501ZM218.243 117.772C218.243 118.836 217.971 119.66 217.427 120.244C216.891 120.828 216.163 121.12 215.243 121.12C214.675 121.12 214.167 120.992 213.719 120.736C213.279 120.472 212.931 120.092 212.675 119.596C212.419 119.092 212.291 118.484 212.291 117.772C212.291 116.708 212.559 115.888 213.095 115.312C213.631 114.736 214.359 114.448 215.279 114.448C215.863 114.448 216.375 114.58 216.815 114.844C217.263 115.1 217.611 115.476 217.859 115.972C218.115 116.46 218.243 117.06 218.243 117.772ZM213.383 117.772C213.383 118.532 213.531 119.136 213.827 119.584C214.131 120.024 214.611 120.244 215.267 120.244C215.915 120.244 216.391 120.024 216.695 119.584C216.999 119.136 217.151 118.532 217.151 117.772C217.151 117.012 216.999 116.416 216.695 115.984C216.391 115.552 215.911 115.336 215.255 115.336C214.599 115.336 214.123 115.552 213.827 115.984C213.531 116.416 213.383 117.012 213.383 117.772ZM28.9203 139.12C28.3523 139.12 27.8443 139.004 27.3963 138.772C26.9563 138.54 26.6083 138.18 26.3523 137.692C26.1043 137.204 25.9803 136.58 25.9803 135.82C25.9803 135.028 26.1123 134.384 26.3763 133.888C26.6403 133.392 26.9963 133.028 27.4443 132.796C27.9003 132.564 28.4163 132.448 28.9923 132.448C29.3203 132.448 29.6363 132.484 29.9403 132.556C30.2443 132.62 30.4923 132.7 30.6843 132.796L30.3603 133.672C30.1683 133.6 29.9443 133.532 29.6883 133.468C29.4323 133.404 29.1923 133.372 28.9683 133.372C27.7043 133.372 27.0723 134.184 27.0723 135.808C27.0723 136.584 27.2243 137.18 27.5283 137.596C27.8403 138.004 28.3003 138.208 28.9083 138.208C29.2603 138.208 29.5683 138.172 29.8323 138.1C30.1043 138.028 30.3523 137.94 30.5763 137.836V138.772C30.3603 138.884 30.1203 138.968 29.8563 139.024C29.6003 139.088 29.2883 139.12 28.9203 139.12ZM34.5419 132.46C35.3259 132.46 35.9059 132.632 36.2819 132.976C36.6579 133.32 36.8459 133.868 36.8459 134.62V139H36.0779L35.8739 138.088H35.8259C35.5459 138.44 35.2499 138.7 34.9379 138.868C34.6339 139.036 34.2099 139.12 33.6659 139.12C33.0819 139.12 32.5979 138.968 32.2139 138.664C31.8299 138.352 31.6379 137.868 31.6379 137.212C31.6379 136.572 31.8899 136.08 32.3939 135.736C32.8979 135.384 33.6739 135.192 34.7219 135.16L35.8139 135.124V134.74C35.8139 134.204 35.6979 133.832 35.4659 133.624C35.2339 133.416 34.9059 133.312 34.4819 133.312C34.1459 133.312 33.8259 133.364 33.5219 133.468C33.2179 133.564 32.9339 133.676 32.6699 133.804L32.3459 133.012C32.6259 132.86 32.9579 132.732 33.3419 132.628C33.7259 132.516 34.1259 132.46 34.5419 132.46ZM34.8539 135.892C34.0539 135.924 33.4979 136.052 33.1859 136.276C32.8819 136.5 32.7299 136.816 32.7299 137.224C32.7299 137.584 32.8379 137.848 33.0539 138.016C33.2779 138.184 33.5619 138.268 33.9059 138.268C34.4499 138.268 34.9019 138.12 35.2619 137.824C35.6219 137.52 35.8019 137.056 35.8019 136.432V135.856L34.8539 135.892ZM44.0405 129.904C43.9845 130.504 43.7805 130.96 43.4285 131.272C43.0845 131.576 42.5325 131.728 41.7725 131.728C40.9885 131.728 40.4325 131.576 40.1045 131.272C39.7845 130.968 39.6045 130.512 39.5645 129.904H40.5485C40.5885 130.336 40.7005 130.628 40.8845 130.78C41.0765 130.924 41.3805 130.996 41.7965 130.996C42.1645 130.996 42.4525 130.92 42.6605 130.768C42.8765 130.608 43.0045 130.32 43.0445 129.904H44.0405ZM39.8285 136.492C39.8285 136.588 39.8245 136.732 39.8165 136.924C39.8085 137.116 39.7965 137.308 39.7805 137.5C39.7725 137.692 39.7645 137.844 39.7565 137.956L43.2005 132.568H44.4965V139H43.5125V135.208C43.5125 135.08 43.5125 134.912 43.5125 134.704C43.5205 134.496 43.5285 134.292 43.5365 134.092C43.5445 133.884 43.5525 133.728 43.5605 133.624L40.1405 139H38.8325V132.568H39.8285V136.492ZM50.9834 133.456H48.8834V139H47.8394V133.456H45.7634V132.568H50.9834V133.456ZM54.6865 132.46C55.4705 132.46 56.0505 132.632 56.4265 132.976C56.8025 133.32 56.9905 133.868 56.9905 134.62V139H56.2225L56.0185 138.088H55.9705C55.6905 138.44 55.3945 138.7 55.0825 138.868C54.7785 139.036 54.3545 139.12 53.8105 139.12C53.2265 139.12 52.7425 138.968 52.3585 138.664C51.9745 138.352 51.7825 137.868 51.7825 137.212C51.7825 136.572 52.0345 136.08 52.5385 135.736C53.0425 135.384 53.8185 135.192 54.8665 135.16L55.9585 135.124V134.74C55.9585 134.204 55.8425 133.832 55.6105 133.624C55.3785 133.416 55.0505 133.312 54.6265 133.312C54.2905 133.312 53.9705 133.364 53.6665 133.468C53.3625 133.564 53.0785 133.676 52.8145 133.804L52.4905 133.012C52.7705 132.86 53.1025 132.732 53.4865 132.628C53.8705 132.516 54.2705 132.46 54.6865 132.46ZM54.9985 135.892C54.1985 135.924 53.6425 136.052 53.3305 136.276C53.0265 136.5 52.8745 136.816 52.8745 137.224C52.8745 137.584 52.9825 137.848 53.1985 138.016C53.4225 138.184 53.7065 138.268 54.0505 138.268C54.5945 138.268 55.0465 138.12 55.4065 137.824C55.7665 137.52 55.9465 137.056 55.9465 136.432V135.856L54.9985 135.892ZM63.0902 136.492C63.0902 136.588 63.0862 136.732 63.0782 136.924C63.0702 137.116 63.0582 137.308 63.0422 137.5C63.0342 137.692 63.0262 137.844 63.0182 137.956L66.4622 132.568H67.7582V139H66.7742V135.208C66.7742 135.08 66.7742 134.912 66.7742 134.704C66.7822 134.496 66.7902 134.292 66.7982 134.092C66.8062 133.884 66.8142 133.728 66.8222 133.624L63.4022 139H62.0942V132.568H63.0902V136.492ZM74.7012 139H73.6332V133.444H71.7372C71.6332 134.796 71.4892 135.888 71.3052 136.72C71.1212 137.544 70.8772 138.144 70.5732 138.52C70.2692 138.896 69.8852 139.084 69.4212 139.084C69.3172 139.084 69.2132 139.076 69.1092 139.06C69.0132 139.052 68.9332 139.032 68.8692 139V138.208C68.9172 138.224 68.9692 138.236 69.0252 138.244C69.0812 138.252 69.1372 138.256 69.1932 138.256C69.6252 138.256 69.9692 137.796 70.2252 136.876C70.4892 135.956 70.6892 134.52 70.8252 132.568H74.7012V139ZM77.7387 136.492C77.7387 136.588 77.7347 136.732 77.7267 136.924C77.7187 137.116 77.7067 137.308 77.6907 137.5C77.6827 137.692 77.6747 137.844 77.6667 137.956L81.1107 132.568H82.4067V139H81.4227V135.208C81.4227 135.08 81.4227 134.912 81.4227 134.704C81.4307 134.496 81.4387 134.292 81.4467 134.092C81.4547 133.884 81.4627 133.728 81.4707 133.624L78.0507 139H76.7427V132.568H77.7387V136.492ZM93.0068 132.568V139H91.9508V133.468H88.6268V139H87.5708V132.568H93.0068ZM98.1191 132.448C98.9111 132.448 99.5471 132.724 100.027 133.276C100.515 133.828 100.759 134.66 100.759 135.772C100.759 136.868 100.515 137.7 100.027 138.268C99.5471 138.836 98.9071 139.12 98.1071 139.12C97.6111 139.12 97.1991 139.028 96.8711 138.844C96.5511 138.652 96.2991 138.432 96.1151 138.184H96.0431C96.0591 138.32 96.0751 138.492 96.0911 138.7C96.1071 138.908 96.1151 139.088 96.1151 139.24V141.88H95.0591V132.568H95.9231L96.0671 133.444H96.1151C96.3071 133.164 96.5591 132.928 96.8711 132.736C97.1831 132.544 97.5991 132.448 98.1191 132.448ZM97.9271 133.336C97.2711 133.336 96.8071 133.52 96.5351 133.888C96.2711 134.256 96.1311 134.816 96.1151 135.568V135.772C96.1151 136.564 96.2431 137.176 96.4991 137.608C96.7631 138.032 97.2471 138.244 97.9511 138.244C98.3431 138.244 98.6631 138.136 98.9111 137.92C99.1671 137.704 99.3551 137.412 99.4751 137.044C99.6031 136.668 99.6671 136.24 99.6671 135.76C99.6671 135.024 99.5231 134.436 99.2351 133.996C98.9551 133.556 98.5191 133.336 97.9271 133.336ZM103.438 136.492C103.438 136.588 103.434 136.732 103.426 136.924C103.418 137.116 103.406 137.308 103.39 137.5C103.382 137.692 103.374 137.844 103.366 137.956L106.81 132.568H108.106V139H107.122V135.208C107.122 135.08 107.122 134.912 107.122 134.704C107.13 134.496 107.138 134.292 107.146 134.092C107.154 133.884 107.162 133.728 107.17 133.624L103.75 139H102.442V132.568H103.438V136.492ZM115.049 139H113.981V133.444H112.085C111.981 134.796 111.837 135.888 111.653 136.72C111.469 137.544 111.225 138.144 110.921 138.52C110.617 138.896 110.233 139.084 109.769 139.084C109.665 139.084 109.561 139.076 109.457 139.06C109.361 139.052 109.281 139.032 109.217 139V138.208C109.265 138.224 109.317 138.236 109.373 138.244C109.429 138.252 109.485 138.256 109.541 138.256C109.973 138.256 110.317 137.796 110.573 136.876C110.837 135.956 111.037 134.52 111.173 132.568H115.049V139ZM122.682 135.772C122.682 136.836 122.41 137.66 121.866 138.244C121.33 138.828 120.602 139.12 119.682 139.12C119.114 139.12 118.606 138.992 118.158 138.736C117.718 138.472 117.37 138.092 117.114 137.596C116.858 137.092 116.73 136.484 116.73 135.772C116.73 134.708 116.998 133.888 117.534 133.312C118.07 132.736 118.798 132.448 119.718 132.448C120.302 132.448 120.814 132.58 121.254 132.844C121.702 133.1 122.05 133.476 122.298 133.972C122.554 134.46 122.682 135.06 122.682 135.772ZM117.822 135.772C117.822 136.532 117.97 137.136 118.266 137.584C118.57 138.024 119.05 138.244 119.706 138.244C120.354 138.244 120.83 138.024 121.134 137.584C121.438 137.136 121.59 136.532 121.59 135.772C121.59 135.012 121.438 134.416 121.134 133.984C120.83 133.552 120.35 133.336 119.694 133.336C119.038 133.336 118.562 133.552 118.266 133.984C117.97 134.416 117.822 135.012 117.822 135.772ZM131.838 132.568L129.186 135.688L132.066 139H130.866L128.082 135.736V139H127.098V135.736L124.314 139H123.114L125.994 135.688L123.342 132.568H124.494L127.098 135.688V132.568H128.082V135.688L130.698 132.568H131.838ZM135.371 132.448C135.923 132.448 136.395 132.568 136.787 132.808C137.187 133.048 137.491 133.388 137.699 133.828C137.915 134.26 138.023 134.768 138.023 135.352V135.988H133.619C133.635 136.716 133.819 137.272 134.171 137.656C134.531 138.032 135.031 138.22 135.671 138.22C136.079 138.22 136.439 138.184 136.751 138.112C137.071 138.032 137.399 137.92 137.735 137.776V138.7C137.407 138.844 137.083 138.948 136.763 139.012C136.443 139.084 136.063 139.12 135.623 139.12C135.015 139.12 134.475 138.996 134.003 138.748C133.539 138.5 133.175 138.132 132.911 137.644C132.655 137.148 132.527 136.544 132.527 135.832C132.527 135.128 132.643 134.524 132.875 134.02C133.115 133.516 133.447 133.128 133.871 132.856C134.303 132.584 134.803 132.448 135.371 132.448ZM135.359 133.312C134.855 133.312 134.455 133.476 134.159 133.804C133.871 134.124 133.699 134.572 133.643 135.148H136.919C136.911 134.604 136.783 134.164 136.535 133.828C136.287 133.484 135.895 133.312 135.359 133.312ZM140.717 132.568V135.244H144.209V132.568H145.265V139H144.209V136.132H140.717V139H139.661V132.568H140.717ZM148.297 136.492C148.297 136.588 148.293 136.732 148.285 136.924C148.277 137.116 148.265 137.308 148.249 137.5C148.241 137.692 148.233 137.844 148.225 137.956L151.669 132.568H152.965V139H151.981V135.208C151.981 135.08 151.981 134.912 151.981 134.704C151.989 134.496 151.997 134.292 152.005 134.092C152.013 133.884 152.021 133.728 152.029 133.624L148.609 139H147.301V132.568H148.297V136.492ZM155.408 139H154.184L156.02 136.3C155.772 136.236 155.532 136.136 155.3 136C155.068 135.856 154.88 135.66 154.736 135.412C154.592 135.156 154.52 134.84 154.52 134.464C154.52 133.848 154.728 133.38 155.144 133.06C155.56 132.732 156.112 132.568 156.8 132.568H159.68V139H158.624V136.444H157.064L155.408 139ZM155.54 134.476C155.54 134.844 155.676 135.12 155.948 135.304C156.228 135.48 156.616 135.568 157.112 135.568H158.624V133.444H156.908C156.42 133.444 156.068 133.54 155.852 133.732C155.644 133.924 155.54 134.172 155.54 134.476ZM163.095 137.356L161.643 140.668H160.755L161.607 137.356H163.095ZM169.964 132.46C170.748 132.46 171.328 132.632 171.704 132.976C172.08 133.32 172.268 133.868 172.268 134.62V139H171.5L171.296 138.088H171.248C170.968 138.44 170.672 138.7 170.36 138.868C170.056 139.036 169.632 139.12 169.088 139.12C168.504 139.12 168.02 138.968 167.636 138.664C167.252 138.352 167.06 137.868 167.06 137.212C167.06 136.572 167.312 136.08 167.816 135.736C168.32 135.384 169.096 135.192 170.144 135.16L171.236 135.124V134.74C171.236 134.204 171.12 133.832 170.888 133.624C170.656 133.416 170.328 133.312 169.904 133.312C169.568 133.312 169.248 133.364 168.944 133.468C168.64 133.564 168.356 133.676 168.092 133.804L167.768 133.012C168.048 132.86 168.38 132.732 168.764 132.628C169.148 132.516 169.548 132.46 169.964 132.46ZM170.276 135.892C169.476 135.924 168.92 136.052 168.608 136.276C168.304 136.5 168.152 136.816 168.152 137.224C168.152 137.584 168.26 137.848 168.476 138.016C168.7 138.184 168.984 138.268 169.328 138.268C169.872 138.268 170.324 138.12 170.684 137.824C171.044 137.52 171.224 137.056 171.224 136.432V135.856L170.276 135.892ZM182.808 132.568V139H181.752V133.468H178.428V139H177.372V132.568H182.808ZM185.256 139H184.032L185.868 136.3C185.62 136.236 185.38 136.136 185.148 136C184.916 135.856 184.728 135.66 184.584 135.412C184.44 135.156 184.368 134.84 184.368 134.464C184.368 133.848 184.576 133.38 184.992 133.06C185.408 132.732 185.96 132.568 186.648 132.568H189.528V139H188.472V136.444H186.912L185.256 139ZM185.388 134.476C185.388 134.844 185.524 135.12 185.796 135.304C186.076 135.48 186.464 135.568 186.96 135.568H188.472V133.444H186.756C186.268 133.444 185.916 133.54 185.7 133.732C185.492 133.924 185.388 134.172 185.388 134.476ZM196.003 133.456H193.903V139H192.859V133.456H190.783V132.568H196.003V133.456ZM199.706 132.46C200.49 132.46 201.07 132.632 201.446 132.976C201.822 133.32 202.01 133.868 202.01 134.62V139H201.242L201.038 138.088H200.99C200.71 138.44 200.414 138.7 200.102 138.868C199.798 139.036 199.374 139.12 198.83 139.12C198.246 139.12 197.762 138.968 197.378 138.664C196.994 138.352 196.802 137.868 196.802 137.212C196.802 136.572 197.054 136.08 197.558 135.736C198.062 135.384 198.838 135.192 199.886 135.16L200.978 135.124V134.74C200.978 134.204 200.862 133.832 200.63 133.624C200.398 133.416 200.07 133.312 199.646 133.312C199.31 133.312 198.99 133.364 198.686 133.468C198.382 133.564 198.098 133.676 197.834 133.804L197.51 133.012C197.79 132.86 198.122 132.732 198.506 132.628C198.89 132.516 199.29 132.46 199.706 132.46ZM200.018 135.892C199.218 135.924 198.662 136.052 198.35 136.276C198.046 136.5 197.894 136.816 197.894 137.224C197.894 137.584 198.002 137.848 198.218 138.016C198.442 138.184 198.726 138.268 199.07 138.268C199.614 138.268 200.066 138.12 200.426 137.824C200.786 137.52 200.966 137.056 200.966 136.432V135.856L200.018 135.892ZM204.393 139H203.169L205.005 136.3C204.757 136.236 204.517 136.136 204.285 136C204.053 135.856 203.865 135.66 203.721 135.412C203.577 135.156 203.505 134.84 203.505 134.464C203.505 133.848 203.713 133.38 204.129 133.06C204.545 132.732 205.097 132.568 205.785 132.568H208.665V139H207.609V136.444H206.049L204.393 139ZM204.525 134.476C204.525 134.844 204.661 135.12 204.933 135.304C205.213 135.48 205.601 135.568 206.097 135.568H207.609V133.444H205.893C205.405 133.444 205.053 133.54 204.837 133.732C204.629 133.924 204.525 134.172 204.525 134.476ZM29.5787 152.188C29.5787 152.588 29.4587 152.9 29.2187 153.124C28.9787 153.348 28.6707 153.5 28.2947 153.58V153.628C28.6947 153.684 29.0427 153.828 29.3387 154.06C29.6347 154.284 29.7827 154.636 29.7827 155.116C29.7827 155.66 29.5787 156.112 29.1707 156.472C28.7707 156.824 28.1067 157 27.1787 157H24.4067V150.568H27.1667C27.6227 150.568 28.0307 150.62 28.3907 150.724C28.7587 150.82 29.0467 150.988 29.2547 151.228C29.4707 151.46 29.5787 151.78 29.5787 152.188ZM28.5107 152.32C28.5107 152.016 28.3987 151.796 28.1747 151.66C27.9587 151.516 27.6027 151.444 27.1067 151.444H25.4627V153.208H26.9147C27.9787 153.208 28.5107 152.912 28.5107 152.32ZM28.6907 155.116C28.6907 154.748 28.5507 154.484 28.2707 154.324C27.9907 154.164 27.5787 154.084 27.0347 154.084H25.4627V156.148H27.0587C27.5867 156.148 27.9907 156.072 28.2707 155.92C28.5507 155.76 28.6907 155.492 28.6907 155.116ZM33.8048 150.448C34.3568 150.448 34.8288 150.568 35.2208 150.808C35.6208 151.048 35.9248 151.388 36.1328 151.828C36.3488 152.26 36.4568 152.768 36.4568 153.352V153.988H32.0528C32.0688 154.716 32.2528 155.272 32.6048 155.656C32.9648 156.032 33.4648 156.22 34.1048 156.22C34.5128 156.22 34.8728 156.184 35.1848 156.112C35.5048 156.032 35.8328 155.92 36.1688 155.776V156.7C35.8408 156.844 35.5168 156.948 35.1968 157.012C34.8768 157.084 34.4968 157.12 34.0568 157.12C33.4488 157.12 32.9088 156.996 32.4368 156.748C31.9728 156.5 31.6088 156.132 31.3448 155.644C31.0888 155.148 30.9608 154.544 30.9608 153.832C30.9608 153.128 31.0768 152.524 31.3088 152.02C31.5488 151.516 31.8808 151.128 32.3048 150.856C32.7368 150.584 33.2368 150.448 33.8048 150.448ZM33.7928 151.312C33.2888 151.312 32.8888 151.476 32.5928 151.804C32.3048 152.124 32.1328 152.572 32.0768 153.148H35.3528C35.3448 152.604 35.2168 152.164 34.9688 151.828C34.7208 151.484 34.3288 151.312 33.7928 151.312ZM41.1542 150.448C41.9462 150.448 42.5822 150.724 43.0622 151.276C43.5502 151.828 43.7942 152.66 43.7942 153.772C43.7942 154.868 43.5502 155.7 43.0622 156.268C42.5822 156.836 41.9422 157.12 41.1422 157.12C40.6462 157.12 40.2342 157.028 39.9062 156.844C39.5862 156.652 39.3342 156.432 39.1502 156.184H39.0782C39.0942 156.32 39.1102 156.492 39.1262 156.7C39.1422 156.908 39.1502 157.088 39.1502 157.24V159.88H38.0942V150.568H38.9582L39.1022 151.444H39.1502C39.3422 151.164 39.5942 150.928 39.9062 150.736C40.2182 150.544 40.6342 150.448 41.1542 150.448ZM40.9622 151.336C40.3062 151.336 39.8422 151.52 39.5702 151.888C39.3062 152.256 39.1662 152.816 39.1502 153.568V153.772C39.1502 154.564 39.2782 155.176 39.5342 155.608C39.7982 156.032 40.2822 156.244 40.9862 156.244C41.3782 156.244 41.6982 156.136 41.9462 155.92C42.2022 155.704 42.3902 155.412 42.5102 155.044C42.6382 154.668 42.7022 154.24 42.7022 153.76C42.7022 153.024 42.5582 152.436 42.2702 151.996C41.9902 151.556 41.5542 151.336 40.9622 151.336ZM48.057 157.12C47.489 157.12 46.981 157.004 46.533 156.772C46.093 156.54 45.745 156.18 45.489 155.692C45.241 155.204 45.117 154.58 45.117 153.82C45.117 153.028 45.249 152.384 45.513 151.888C45.777 151.392 46.133 151.028 46.581 150.796C47.037 150.564 47.553 150.448 48.129 150.448C48.457 150.448 48.773 150.484 49.077 150.556C49.381 150.62 49.629 150.7 49.821 150.796L49.497 151.672C49.305 151.6 49.081 151.532 48.825 151.468C48.569 151.404 48.329 151.372 48.105 151.372C46.841 151.372 46.209 152.184 46.209 153.808C46.209 154.584 46.361 155.18 46.665 155.596C46.977 156.004 47.437 156.208 48.045 156.208C48.397 156.208 48.705 156.172 48.969 156.1C49.241 156.028 49.489 155.94 49.713 155.836V156.772C49.497 156.884 49.257 156.968 48.993 157.024C48.737 157.088 48.425 157.12 48.057 157.12ZM52.2387 154.492C52.2387 154.588 52.2347 154.732 52.2267 154.924C52.2187 155.116 52.2067 155.308 52.1907 155.5C52.1827 155.692 52.1747 155.844 52.1667 155.956L55.6107 150.568H56.9067V157H55.9227V153.208C55.9227 153.08 55.9227 152.912 55.9227 152.704C55.9307 152.496 55.9387 152.292 55.9467 152.092C55.9547 151.884 55.9627 151.728 55.9707 151.624L52.5507 157H51.2427V150.568H52.2387V154.492ZM59.3496 157H58.1256L59.9616 154.3C59.7136 154.236 59.4736 154.136 59.2416 154C59.0096 153.856 58.8216 153.66 58.6776 153.412C58.5336 153.156 58.4616 152.84 58.4616 152.464C58.4616 151.848 58.6696 151.38 59.0856 151.06C59.5016 150.732 60.0536 150.568 60.7416 150.568H63.6216V157H62.5656V154.444H61.0056L59.3496 157ZM59.4816 152.476C59.4816 152.844 59.6176 153.12 59.8896 153.304C60.1696 153.48 60.5576 153.568 61.0536 153.568H62.5656V151.444H60.8496C60.3616 151.444 60.0096 151.54 59.7936 151.732C59.5856 151.924 59.4816 152.172 59.4816 152.476ZM74.2099 150.568V157H73.1539V151.468H69.8299V157H68.7739V150.568H74.2099ZM81.8542 153.772C81.8542 154.836 81.5822 155.66 81.0382 156.244C80.5022 156.828 79.7742 157.12 78.8542 157.12C78.2862 157.12 77.7782 156.992 77.3302 156.736C76.8902 156.472 76.5422 156.092 76.2862 155.596C76.0302 155.092 75.9022 154.484 75.9022 153.772C75.9022 152.708 76.1702 151.888 76.7062 151.312C77.2422 150.736 77.9702 150.448 78.8902 150.448C79.4742 150.448 79.9862 150.58 80.4262 150.844C80.8742 151.1 81.2222 151.476 81.4702 151.972C81.7262 152.46 81.8542 153.06 81.8542 153.772ZM76.9942 153.772C76.9942 154.532 77.1422 155.136 77.4382 155.584C77.7422 156.024 78.2222 156.244 78.8782 156.244C79.5262 156.244 80.0022 156.024 80.3062 155.584C80.6102 155.136 80.7622 154.532 80.7622 153.772C80.7622 153.012 80.6102 152.416 80.3062 151.984C80.0022 151.552 79.5222 151.336 78.8662 151.336C78.2102 151.336 77.7342 151.552 77.4382 151.984C77.1422 152.416 76.9942 153.012 76.9942 153.772ZM85.2198 150.448C85.9558 150.448 86.5398 150.596 86.9718 150.892C87.4118 151.18 87.6318 151.596 87.6318 152.14C87.6318 152.532 87.5238 152.844 87.3078 153.076C87.0918 153.3 86.7958 153.464 86.4198 153.568V153.616C86.6758 153.688 86.9118 153.788 87.1278 153.916C87.3438 154.044 87.5158 154.212 87.6438 154.42C87.7798 154.628 87.8478 154.896 87.8478 155.224C87.8478 155.76 87.6238 156.212 87.1758 156.58C86.7358 156.94 86.0438 157.12 85.0998 157.12C84.6358 157.12 84.2158 157.08 83.8398 157C83.4638 156.928 83.1518 156.828 82.9038 156.7V155.752C83.1758 155.88 83.4958 155.996 83.8638 156.1C84.2398 156.204 84.6478 156.256 85.0878 156.256C85.5678 156.256 85.9718 156.176 86.2998 156.016C86.6358 155.848 86.8038 155.564 86.8038 155.164C86.8038 154.444 86.1918 154.084 84.9678 154.084H84.1038V153.22H84.7998C85.3518 153.22 85.7918 153.148 86.1198 153.004C86.4558 152.852 86.6238 152.596 86.6238 152.236C86.6238 151.932 86.4958 151.704 86.2398 151.552C85.9918 151.4 85.6318 151.324 85.1598 151.324C84.8078 151.324 84.4958 151.36 84.2238 151.432C83.9598 151.496 83.6678 151.596 83.3478 151.732L82.9758 150.892C83.6478 150.596 84.3958 150.448 85.2198 150.448ZM94.5826 152.188C94.5826 152.588 94.4626 152.9 94.2226 153.124C93.9826 153.348 93.6746 153.5 93.2986 153.58V153.628C93.6986 153.684 94.0466 153.828 94.3426 154.06C94.6386 154.284 94.7866 154.636 94.7866 155.116C94.7866 155.66 94.5826 156.112 94.1746 156.472C93.7746 156.824 93.1106 157 92.1826 157H89.4106V150.568H92.1706C92.6266 150.568 93.0346 150.62 93.3946 150.724C93.7626 150.82 94.0506 150.988 94.2586 151.228C94.4746 151.46 94.5826 151.78 94.5826 152.188ZM93.5146 152.32C93.5146 152.016 93.4026 151.796 93.1786 151.66C92.9626 151.516 92.6066 151.444 92.1106 151.444H90.4666V153.208H91.9186C92.9826 153.208 93.5146 152.912 93.5146 152.32ZM93.6946 155.116C93.6946 154.748 93.5546 154.484 93.2746 154.324C92.9946 154.164 92.5826 154.084 92.0386 154.084H90.4666V156.148H92.0626C92.5906 156.148 92.9946 156.072 93.2746 155.92C93.5546 155.76 93.6946 155.492 93.6946 155.116ZM101.917 153.772C101.917 154.836 101.645 155.66 101.101 156.244C100.565 156.828 99.8367 157.12 98.9167 157.12C98.3487 157.12 97.8407 156.992 97.3927 156.736C96.9527 156.472 96.6047 156.092 96.3487 155.596C96.0927 155.092 95.9647 154.484 95.9647 153.772C95.9647 152.708 96.2327 151.888 96.7687 151.312C97.3047 150.736 98.0327 150.448 98.9527 150.448C99.5367 150.448 100.049 150.58 100.489 150.844C100.937 151.1 101.285 151.476 101.533 151.972C101.789 152.46 101.917 153.06 101.917 153.772ZM97.0567 153.772C97.0567 154.532 97.2047 155.136 97.5007 155.584C97.8047 156.024 98.2847 156.244 98.9407 156.244C99.5887 156.244 100.065 156.024 100.369 155.584C100.673 155.136 100.825 154.532 100.825 153.772C100.825 153.012 100.673 152.416 100.369 151.984C100.065 151.552 99.5847 151.336 98.9287 151.336C98.2727 151.336 97.7967 151.552 97.5007 151.984C97.2047 152.416 97.0567 153.012 97.0567 153.772ZM108.486 157H107.418V151.444H105.522C105.418 152.796 105.274 153.888 105.09 154.72C104.906 155.544 104.662 156.144 104.358 156.52C104.054 156.896 103.67 157.084 103.206 157.084C103.102 157.084 102.998 157.076 102.894 157.06C102.798 157.052 102.718 157.032 102.654 157V156.208C102.702 156.224 102.754 156.236 102.81 156.244C102.866 156.252 102.922 156.256 102.978 156.256C103.41 156.256 103.754 155.796 104.01 154.876C104.274 153.956 104.474 152.52 104.61 150.568H108.486V157ZM111.524 154.492C111.524 154.588 111.52 154.732 111.512 154.924C111.504 155.116 111.492 155.308 111.476 155.5C111.468 155.692 111.46 155.844 111.452 155.956L114.896 150.568H116.192V157H115.208V153.208C115.208 153.08 115.208 152.912 115.208 152.704C115.216 152.496 115.224 152.292 115.232 152.092C115.24 151.884 115.248 151.728 115.256 151.624L111.836 157H110.528V150.568H111.524V154.492ZM122.679 151.456H120.579V157H119.535V151.456H117.459V150.568H122.679V151.456ZM133.963 150.568V157H133.015V152.896C133.015 152.728 133.019 152.552 133.027 152.368C133.043 152.184 133.059 152.004 133.075 151.828H133.039L130.939 157H130.051L128.011 151.828H127.975C127.999 152.188 128.011 152.556 128.011 152.932V157H127.063V150.568H128.467L130.495 155.74L132.559 150.568H133.963ZM137.072 150.568V153.244H140.564V150.568H141.62V157H140.564V154.132H137.072V157H136.016V150.568H137.072ZM146.141 150.448C146.693 150.448 147.165 150.568 147.557 150.808C147.957 151.048 148.261 151.388 148.469 151.828C148.685 152.26 148.793 152.768 148.793 153.352V153.988H144.389C144.405 154.716 144.589 155.272 144.941 155.656C145.301 156.032 145.801 156.22 146.441 156.22C146.849 156.22 147.209 156.184 147.521 156.112C147.841 156.032 148.169 155.92 148.505 155.776V156.7C148.177 156.844 147.853 156.948 147.533 157.012C147.213 157.084 146.833 157.12 146.393 157.12C145.785 157.12 145.245 156.996 144.773 156.748C144.309 156.5 143.945 156.132 143.681 155.644C143.425 155.148 143.297 154.544 143.297 153.832C143.297 153.128 143.413 152.524 143.645 152.02C143.885 151.516 144.217 151.128 144.641 150.856C145.073 150.584 145.573 150.448 146.141 150.448ZM146.129 151.312C145.625 151.312 145.225 151.476 144.929 151.804C144.641 152.124 144.469 152.572 144.413 153.148H147.689C147.681 152.604 147.553 152.164 147.305 151.828C147.057 151.484 146.665 151.312 146.129 151.312ZM156.127 157.12C155.559 157.12 155.051 157.004 154.603 156.772C154.163 156.54 153.815 156.18 153.559 155.692C153.311 155.204 153.187 154.58 153.187 153.82C153.187 153.028 153.319 152.384 153.583 151.888C153.847 151.392 154.203 151.028 154.651 150.796C155.107 150.564 155.623 150.448 156.199 150.448C156.527 150.448 156.843 150.484 157.147 150.556C157.451 150.62 157.699 150.7 157.891 150.796L157.567 151.672C157.375 151.6 157.151 151.532 156.895 151.468C156.639 151.404 156.399 151.372 156.175 151.372C154.911 151.372 154.279 152.184 154.279 153.808C154.279 154.584 154.431 155.18 154.735 155.596C155.047 156.004 155.507 156.208 156.115 156.208C156.467 156.208 156.775 156.172 157.039 156.1C157.311 156.028 157.559 155.94 157.783 155.836V156.772C157.567 156.884 157.327 156.968 157.063 157.024C156.807 157.088 156.495 157.12 156.127 157.12ZM164.905 153.772C164.905 154.836 164.633 155.66 164.089 156.244C163.553 156.828 162.825 157.12 161.905 157.12C161.337 157.12 160.829 156.992 160.381 156.736C159.941 156.472 159.593 156.092 159.337 155.596C159.081 155.092 158.953 154.484 158.953 153.772C158.953 152.708 159.221 151.888 159.757 151.312C160.293 150.736 161.021 150.448 161.941 150.448C162.525 150.448 163.037 150.58 163.477 150.844C163.925 151.1 164.273 151.476 164.521 151.972C164.777 152.46 164.905 153.06 164.905 153.772ZM160.045 153.772C160.045 154.532 160.193 155.136 160.489 155.584C160.793 156.024 161.273 156.244 161.929 156.244C162.577 156.244 163.053 156.024 163.357 155.584C163.661 155.136 163.813 154.532 163.813 153.772C163.813 153.012 163.661 152.416 163.357 151.984C163.053 151.552 162.573 151.336 161.917 151.336C161.261 151.336 160.785 151.552 160.489 151.984C160.193 152.416 160.045 153.012 160.045 153.772ZM168.271 150.448C169.007 150.448 169.591 150.596 170.023 150.892C170.463 151.18 170.683 151.596 170.683 152.14C170.683 152.532 170.575 152.844 170.359 153.076C170.143 153.3 169.847 153.464 169.471 153.568V153.616C169.727 153.688 169.963 153.788 170.179 153.916C170.395 154.044 170.567 154.212 170.695 154.42C170.831 154.628 170.899 154.896 170.899 155.224C170.899 155.76 170.675 156.212 170.227 156.58C169.787 156.94 169.095 157.12 168.151 157.12C167.687 157.12 167.267 157.08 166.891 157C166.515 156.928 166.203 156.828 165.955 156.7V155.752C166.227 155.88 166.547 155.996 166.915 156.1C167.291 156.204 167.699 156.256 168.139 156.256C168.619 156.256 169.023 156.176 169.351 156.016C169.687 155.848 169.855 155.564 169.855 155.164C169.855 154.444 169.243 154.084 168.019 154.084H167.155V153.22H167.851C168.403 153.22 168.843 153.148 169.171 153.004C169.507 152.852 169.675 152.596 169.675 152.236C169.675 151.932 169.547 151.704 169.291 151.552C169.043 151.4 168.683 151.324 168.211 151.324C167.859 151.324 167.547 151.36 167.275 151.432C167.011 151.496 166.719 151.596 166.399 151.732L166.027 150.892C166.699 150.596 167.447 150.448 168.271 150.448ZM177.237 150.568V156.112H178.173V159.232H177.153V157H172.677V159.232H171.669V156.112H172.185C172.737 155.352 173.149 154.488 173.421 153.52C173.701 152.544 173.845 151.56 173.853 150.568H177.237ZM174.789 151.396C174.757 151.94 174.673 152.504 174.537 153.088C174.401 153.664 174.225 154.216 174.009 154.744C173.801 155.272 173.557 155.728 173.277 156.112H176.217V151.396H174.789ZM181.87 150.46C182.654 150.46 183.234 150.632 183.61 150.976C183.986 151.32 184.174 151.868 184.174 152.62V157H183.406L183.202 156.088H183.154C182.874 156.44 182.578 156.7 182.266 156.868C181.962 157.036 181.538 157.12 180.994 157.12C180.41 157.12 179.926 156.968 179.542 156.664C179.158 156.352 178.966 155.868 178.966 155.212C178.966 154.572 179.218 154.08 179.722 153.736C180.226 153.384 181.002 153.192 182.05 153.16L183.142 153.124V152.74C183.142 152.204 183.026 151.832 182.794 151.624C182.562 151.416 182.234 151.312 181.81 151.312C181.474 151.312 181.154 151.364 180.85 151.468C180.546 151.564 180.262 151.676 179.998 151.804L179.674 151.012C179.954 150.86 180.286 150.732 180.67 150.628C181.054 150.516 181.454 150.46 181.87 150.46ZM182.182 153.892C181.382 153.924 180.826 154.052 180.514 154.276C180.21 154.5 180.058 154.816 180.058 155.224C180.058 155.584 180.166 155.848 180.382 156.016C180.606 156.184 180.89 156.268 181.234 156.268C181.778 156.268 182.23 156.12 182.59 155.824C182.95 155.52 183.13 155.056 183.13 154.432V153.856L182.182 153.892ZM191.333 152.188C191.333 152.588 191.213 152.9 190.973 153.124C190.733 153.348 190.425 153.5 190.049 153.58V153.628C190.449 153.684 190.797 153.828 191.093 154.06C191.389 154.284 191.537 154.636 191.537 155.116C191.537 155.66 191.333 156.112 190.925 156.472C190.525 156.824 189.861 157 188.933 157H186.161V150.568H188.921C189.377 150.568 189.785 150.62 190.145 150.724C190.513 150.82 190.801 150.988 191.009 151.228C191.225 151.46 191.333 151.78 191.333 152.188ZM190.265 152.32C190.265 152.016 190.153 151.796 189.929 151.66C189.713 151.516 189.357 151.444 188.861 151.444H187.217V153.208H188.669C189.733 153.208 190.265 152.912 190.265 152.32ZM190.445 155.116C190.445 154.748 190.305 154.484 190.025 154.324C189.745 154.164 189.333 154.084 188.789 154.084H187.217V156.148H188.813C189.341 156.148 189.745 156.072 190.025 155.92C190.305 155.76 190.445 155.492 190.445 155.116ZM195.511 150.46C196.295 150.46 196.875 150.632 197.251 150.976C197.627 151.32 197.815 151.868 197.815 152.62V157H197.047L196.843 156.088H196.795C196.515 156.44 196.219 156.7 195.907 156.868C195.603 157.036 195.179 157.12 194.635 157.12C194.051 157.12 193.567 156.968 193.183 156.664C192.799 156.352 192.607 155.868 192.607 155.212C192.607 154.572 192.859 154.08 193.363 153.736C193.867 153.384 194.643 153.192 195.691 153.16L196.783 153.124V152.74C196.783 152.204 196.667 151.832 196.435 151.624C196.203 151.416 195.875 151.312 195.451 151.312C195.115 151.312 194.795 151.364 194.491 151.468C194.187 151.564 193.903 151.676 193.639 151.804L193.315 151.012C193.595 150.86 193.927 150.732 194.311 150.628C194.695 150.516 195.095 150.46 195.511 150.46ZM195.823 153.892C195.023 153.924 194.467 154.052 194.155 154.276C193.851 154.5 193.699 154.816 193.699 155.224C193.699 155.584 193.807 155.848 194.023 156.016C194.247 156.184 194.531 156.268 194.875 156.268C195.419 156.268 195.871 156.12 196.231 155.824C196.591 155.52 196.771 155.056 196.771 154.432V153.856L195.823 153.892ZM204.241 151.456H202.141V157H201.097V151.456H199.021V150.568H204.241V151.456ZM208.472 153.208C210.144 153.208 210.98 153.816 210.98 155.032C210.98 155.632 210.776 156.112 210.368 156.472C209.96 156.824 209.312 157 208.424 157H205.508V150.568H206.564V153.208H208.472ZM209.924 155.092C209.924 154.7 209.784 154.436 209.504 154.3C209.232 154.156 208.848 154.084 208.352 154.084H206.564V156.148H208.376C208.824 156.148 209.192 156.068 209.48 155.908C209.776 155.748 209.924 155.476 209.924 155.092ZM25.102 171.136C25.102 169.728 25.314 168.632 25.738 167.848C26.162 167.056 26.846 166.56 27.79 166.36C28.31 166.248 28.818 166.148 29.314 166.06C29.81 165.972 30.274 165.892 30.706 165.82L30.886 166.744C30.606 166.784 30.29 166.836 29.938 166.9C29.586 166.956 29.238 167.016 28.894 167.08C28.55 167.136 28.254 167.192 28.006 167.248C27.486 167.36 27.074 167.632 26.77 168.064C26.466 168.488 26.294 169.152 26.254 170.056H26.326C26.438 169.904 26.59 169.748 26.782 169.588C26.982 169.428 27.218 169.292 27.49 169.18C27.77 169.068 28.086 169.012 28.438 169.012C29.27 169.012 29.898 169.28 30.322 169.816C30.746 170.352 30.958 171.048 30.958 171.904C30.958 172.616 30.834 173.212 30.586 173.692C30.338 174.172 29.994 174.532 29.554 174.772C29.114 175.004 28.602 175.12 28.018 175.12C27.13 175.12 26.422 174.78 25.894 174.1C25.366 173.42 25.102 172.432 25.102 171.136ZM28.102 174.244C28.622 174.244 29.042 174.076 29.362 173.74C29.682 173.404 29.842 172.828 29.842 172.012C29.842 171.356 29.718 170.84 29.47 170.464C29.23 170.08 28.83 169.888 28.27 169.888C27.918 169.888 27.598 169.968 27.31 170.128C27.022 170.28 26.782 170.456 26.59 170.656C26.398 170.856 26.262 171.024 26.182 171.16C26.182 171.552 26.21 171.932 26.266 172.3C26.322 172.668 26.418 173 26.554 173.296C26.698 173.584 26.894 173.816 27.142 173.992C27.398 174.16 27.718 174.244 28.102 174.244ZM38.2136 171.772C38.2136 172.836 37.9416 173.66 37.3976 174.244C36.8616 174.828 36.1336 175.12 35.2136 175.12C34.6456 175.12 34.1376 174.992 33.6896 174.736C33.2496 174.472 32.9016 174.092 32.6456 173.596C32.3896 173.092 32.2616 172.484 32.2616 171.772C32.2616 170.708 32.5296 169.888 33.0656 169.312C33.6016 168.736 34.3296 168.448 35.2496 168.448C35.8336 168.448 36.3456 168.58 36.7856 168.844C37.2336 169.1 37.5816 169.476 37.8296 169.972C38.0856 170.46 38.2136 171.06 38.2136 171.772ZM33.3536 171.772C33.3536 172.532 33.5016 173.136 33.7976 173.584C34.1016 174.024 34.5816 174.244 35.2376 174.244C35.8856 174.244 36.3616 174.024 36.6656 173.584C36.9696 173.136 37.1216 172.532 37.1216 171.772C37.1216 171.012 36.9696 170.416 36.6656 169.984C36.3616 169.552 35.8816 169.336 35.2256 169.336C34.5696 169.336 34.0936 169.552 33.7976 169.984C33.5016 170.416 33.3536 171.012 33.3536 171.772ZM44.7832 175H43.7152V169.444H41.8192C41.7152 170.796 41.5712 171.888 41.3872 172.72C41.2032 173.544 40.9592 174.144 40.6552 174.52C40.3512 174.896 39.9672 175.084 39.5032 175.084C39.3992 175.084 39.2952 175.076 39.1912 175.06C39.0952 175.052 39.0152 175.032 38.9512 175V174.208C38.9992 174.224 39.0512 174.236 39.1072 174.244C39.1632 174.252 39.2192 174.256 39.2752 174.256C39.7072 174.256 40.0512 173.796 40.3072 172.876C40.5712 171.956 40.7712 170.52 40.9072 168.568H44.7832V175ZM49.3087 168.448C49.8607 168.448 50.3327 168.568 50.7247 168.808C51.1247 169.048 51.4287 169.388 51.6367 169.828C51.8527 170.26 51.9607 170.768 51.9607 171.352V171.988H47.5567C47.5727 172.716 47.7567 173.272 48.1087 173.656C48.4687 174.032 48.9687 174.22 49.6087 174.22C50.0167 174.22 50.3767 174.184 50.6887 174.112C51.0087 174.032 51.3367 173.92 51.6727 173.776V174.7C51.3447 174.844 51.0207 174.948 50.7007 175.012C50.3807 175.084 50.0007 175.12 49.5607 175.12C48.9527 175.12 48.4127 174.996 47.9407 174.748C47.4767 174.5 47.1127 174.132 46.8487 173.644C46.5927 173.148 46.4647 172.544 46.4647 171.832C46.4647 171.128 46.5807 170.524 46.8127 170.02C47.0527 169.516 47.3847 169.128 47.8087 168.856C48.2407 168.584 48.7407 168.448 49.3087 168.448ZM49.2967 169.312C48.7927 169.312 48.3927 169.476 48.0967 169.804C47.8087 170.124 47.6367 170.572 47.5807 171.148H50.8567C50.8487 170.604 50.7207 170.164 50.4727 169.828C50.2247 169.484 49.8327 169.312 49.2967 169.312ZM56.0821 168.448C56.6341 168.448 57.1061 168.568 57.4981 168.808C57.8981 169.048 58.2021 169.388 58.4101 169.828C58.6261 170.26 58.7341 170.768 58.7341 171.352V171.988H54.3301C54.3461 172.716 54.5301 173.272 54.8821 173.656C55.2421 174.032 55.7421 174.22 56.3821 174.22C56.7901 174.22 57.1501 174.184 57.4621 174.112C57.7821 174.032 58.1101 173.92 58.4461 173.776V174.7C58.1181 174.844 57.7941 174.948 57.4741 175.012C57.1541 175.084 56.7741 175.12 56.3341 175.12C55.7261 175.12 55.1861 174.996 54.7141 174.748C54.2501 174.5 53.8861 174.132 53.6221 173.644C53.3661 173.148 53.2381 172.544 53.2381 171.832C53.2381 171.128 53.3541 170.524 53.5861 170.02C53.8261 169.516 54.1581 169.128 54.5821 168.856C55.0141 168.584 55.5141 168.448 56.0821 168.448ZM56.0701 169.312C55.5661 169.312 55.1661 169.476 54.8701 169.804C54.5821 170.124 54.4101 170.572 54.3541 171.148H57.6301C57.6221 170.604 57.4941 170.164 57.2461 169.828C56.9981 169.484 56.6061 169.312 56.0701 169.312ZM66.1168 175.084C65.5568 175.084 65.0528 174.988 64.6048 174.796C64.1568 174.596 63.8048 174.316 63.5488 173.956C63.2928 173.596 63.1648 173.176 63.1648 172.696H64.6288C64.6608 173.056 64.8008 173.352 65.0488 173.584C65.3048 173.816 65.6608 173.932 66.1168 173.932C66.5888 173.932 66.9568 173.82 67.2208 173.596C67.4848 173.364 67.6168 173.068 67.6168 172.708C67.6168 172.428 67.5328 172.2 67.3648 172.024C67.2048 171.848 67.0008 171.712 66.7528 171.616C66.5128 171.52 66.1768 171.416 65.7448 171.304C65.2008 171.16 64.7568 171.016 64.4128 170.872C64.0768 170.72 63.7888 170.488 63.5488 170.176C63.3088 169.864 63.1888 169.448 63.1888 168.928C63.1888 168.448 63.3088 168.028 63.5488 167.668C63.7888 167.308 64.1248 167.032 64.5568 166.84C64.9888 166.648 65.4888 166.552 66.0568 166.552C66.8648 166.552 67.5248 166.756 68.0368 167.164C68.5568 167.564 68.8448 168.116 68.9008 168.82H67.3888C67.3648 168.516 67.2208 168.256 66.9568 168.04C66.6928 167.824 66.3448 167.716 65.9128 167.716C65.5208 167.716 65.2008 167.816 64.9528 168.016C64.7048 168.216 64.5808 168.504 64.5808 168.88C64.5808 169.136 64.6568 169.348 64.8088 169.516C64.9688 169.676 65.1688 169.804 65.4088 169.9C65.6488 169.996 65.9768 170.1 66.3928 170.212C66.9448 170.364 67.3928 170.516 67.7368 170.668C68.0888 170.82 68.3848 171.056 68.6248 171.376C68.8728 171.688 68.9968 172.108 68.9968 172.636C68.9968 173.06 68.8808 173.46 68.6488 173.836C68.4248 174.212 68.0928 174.516 67.6528 174.748C67.2208 174.972 66.7088 175.084 66.1168 175.084ZM71.9789 167.764V170.212H74.8589V171.328H71.9789V173.884H75.2189V175H70.6109V166.648H75.2189V167.764H71.9789ZM80.7079 175.084C79.9319 175.084 79.2159 174.904 78.5599 174.544C77.9119 174.176 77.3959 173.668 77.0119 173.02C76.6359 172.364 76.4479 171.628 76.4479 170.812C76.4479 169.996 76.6359 169.264 77.0119 168.616C77.3959 167.968 77.9119 167.464 78.5599 167.104C79.2159 166.736 79.9319 166.552 80.7079 166.552C81.4919 166.552 82.2079 166.736 82.8559 167.104C83.5119 167.464 84.0279 167.968 84.4039 168.616C84.7799 169.264 84.9679 169.996 84.9679 170.812C84.9679 171.628 84.7799 172.364 84.4039 173.02C84.0279 173.668 83.5119 174.176 82.8559 174.544C82.2079 174.904 81.4919 175.084 80.7079 175.084ZM80.7079 173.896C81.2599 173.896 81.7519 173.772 82.1839 173.524C82.6159 173.268 82.9519 172.908 83.1919 172.444C83.4399 171.972 83.5639 171.428 83.5639 170.812C83.5639 170.196 83.4399 169.656 83.1919 169.192C82.9519 168.728 82.6159 168.372 82.1839 168.124C81.7519 167.876 81.2599 167.752 80.7079 167.752C80.1559 167.752 79.6639 167.876 79.2319 168.124C78.7999 168.372 78.4599 168.728 78.2119 169.192C77.9719 169.656 77.8519 170.196 77.8519 170.812C77.8519 171.428 77.9719 171.972 78.2119 172.444C78.4599 172.908 78.7999 173.268 79.2319 173.524C79.6639 173.772 80.1559 173.896 80.7079 173.896ZM91.3901 170.08V171.232H86.4581V170.08H91.3901ZM99.0456 171.772C99.0456 172.836 98.7736 173.66 98.2296 174.244C97.6936 174.828 96.9656 175.12 96.0456 175.12C95.4776 175.12 94.9696 174.992 94.5216 174.736C94.0816 174.472 93.7336 174.092 93.4776 173.596C93.2216 173.092 93.0936 172.484 93.0936 171.772C93.0936 170.708 93.3616 169.888 93.8976 169.312C94.4336 168.736 95.1616 168.448 96.0816 168.448C96.6656 168.448 97.1776 168.58 97.6176 168.844C98.0656 169.1 98.4136 169.476 98.6616 169.972C98.9176 170.46 99.0456 171.06 99.0456 171.772ZM94.1856 171.772C94.1856 172.532 94.3336 173.136 94.6296 173.584C94.9336 174.024 95.4136 174.244 96.0696 174.244C96.7176 174.244 97.1936 174.024 97.4976 173.584C97.8016 173.136 97.9536 172.532 97.9536 171.772C97.9536 171.012 97.8016 170.416 97.4976 169.984C97.1936 169.552 96.7136 169.336 96.0576 169.336C95.4016 169.336 94.9256 169.552 94.6296 169.984C94.3336 170.416 94.1856 171.012 94.1856 171.772ZM106.155 168.568V175H105.099V169.468H101.775V175H100.719V168.568H106.155ZM112.648 169.456H110.548V175H109.504V169.456H107.428V168.568H112.648V169.456ZM114.911 172.492C114.911 172.588 114.907 172.732 114.899 172.924C114.891 173.116 114.879 173.308 114.863 173.5C114.855 173.692 114.847 173.844 114.839 173.956L118.283 168.568H119.579V175H118.595V171.208C118.595 171.08 118.595 170.912 118.595 170.704C118.603 170.496 118.611 170.292 118.619 170.092C118.627 169.884 118.635 169.728 118.643 169.624L115.223 175H113.915V168.568H114.911V172.492ZM128.525 168.568V175H127.577V170.896C127.577 170.728 127.581 170.552 127.589 170.368C127.605 170.184 127.621 170.004 127.637 169.828H127.601L125.501 175H124.613L122.573 169.828H122.537C122.561 170.188 122.573 170.556 122.573 170.932V175H121.625V168.568H123.029L125.057 173.74L127.121 168.568H128.525ZM131.575 172.492C131.575 172.588 131.571 172.732 131.563 172.924C131.555 173.116 131.543 173.308 131.527 173.5C131.519 173.692 131.511 173.844 131.503 173.956L134.947 168.568H136.243V175H135.259V171.208C135.259 171.08 135.259 170.912 135.259 170.704C135.267 170.496 135.275 170.292 135.283 170.092C135.291 169.884 135.299 169.728 135.307 169.624L131.887 175H130.579V168.568H131.575V172.492ZM139.982 168.448C140.718 168.448 141.302 168.596 141.734 168.892C142.174 169.18 142.394 169.596 142.394 170.14C142.394 170.532 142.286 170.844 142.07 171.076C141.854 171.3 141.558 171.464 141.182 171.568V171.616C141.438 171.688 141.674 171.788 141.89 171.916C142.106 172.044 142.278 172.212 142.406 172.42C142.542 172.628 142.61 172.896 142.61 173.224C142.61 173.76 142.386 174.212 141.938 174.58C141.498 174.94 140.806 175.12 139.862 175.12C139.398 175.12 138.978 175.08 138.602 175C138.226 174.928 137.914 174.828 137.666 174.7V173.752C137.938 173.88 138.258 173.996 138.626 174.1C139.002 174.204 139.41 174.256 139.85 174.256C140.33 174.256 140.734 174.176 141.062 174.016C141.398 173.848 141.566 173.564 141.566 173.164C141.566 172.444 140.954 172.084 139.73 172.084H138.866V171.22H139.562C140.114 171.22 140.554 171.148 140.882 171.004C141.218 170.852 141.386 170.596 141.386 170.236C141.386 169.932 141.258 169.704 141.002 169.552C140.754 169.4 140.394 169.324 139.922 169.324C139.57 169.324 139.258 169.36 138.986 169.432C138.722 169.496 138.43 169.596 138.11 169.732L137.738 168.892C138.41 168.596 139.158 168.448 139.982 168.448ZM145.168 172.492C145.168 172.588 145.164 172.732 145.156 172.924C145.148 173.116 145.136 173.308 145.12 173.5C145.112 173.692 145.104 173.844 145.096 173.956L148.54 168.568H149.836V175H148.852V171.208C148.852 171.08 148.852 170.912 148.852 170.704C148.86 170.496 148.868 170.292 148.876 170.092C148.884 169.884 148.892 169.728 148.9 169.624L145.48 175H144.172V168.568H145.168V172.492ZM154.943 168.448C155.735 168.448 156.371 168.724 156.851 169.276C157.339 169.828 157.583 170.66 157.583 171.772C157.583 172.868 157.339 173.7 156.851 174.268C156.371 174.836 155.731 175.12 154.931 175.12C154.435 175.12 154.023 175.028 153.695 174.844C153.375 174.652 153.123 174.432 152.939 174.184H152.867C152.883 174.32 152.899 174.492 152.915 174.7C152.931 174.908 152.939 175.088 152.939 175.24V177.88H151.883V168.568H152.747L152.891 169.444H152.939C153.131 169.164 153.383 168.928 153.695 168.736C154.007 168.544 154.423 168.448 154.943 168.448ZM154.751 169.336C154.095 169.336 153.631 169.52 153.359 169.888C153.095 170.256 152.955 170.816 152.939 171.568V171.772C152.939 172.564 153.067 173.176 153.323 173.608C153.587 174.032 154.071 174.244 154.775 174.244C155.167 174.244 155.487 174.136 155.735 173.92C155.991 173.704 156.179 173.412 156.299 173.044C156.427 172.668 156.491 172.24 156.491 171.76C156.491 171.024 156.347 170.436 156.059 169.996C155.779 169.556 155.343 169.336 154.751 169.336ZM164.858 171.772C164.858 172.836 164.586 173.66 164.042 174.244C163.506 174.828 162.778 175.12 161.858 175.12C161.29 175.12 160.782 174.992 160.334 174.736C159.894 174.472 159.546 174.092 159.29 173.596C159.034 173.092 158.906 172.484 158.906 171.772C158.906 170.708 159.174 169.888 159.71 169.312C160.246 168.736 160.974 168.448 161.894 168.448C162.478 168.448 162.99 168.58 163.43 168.844C163.878 169.1 164.226 169.476 164.474 169.972C164.73 170.46 164.858 171.06 164.858 171.772ZM159.998 171.772C159.998 172.532 160.146 173.136 160.442 173.584C160.746 174.024 161.226 174.244 161.882 174.244C162.53 174.244 163.006 174.024 163.31 173.584C163.614 173.136 163.766 172.532 163.766 171.772C163.766 171.012 163.614 170.416 163.31 169.984C163.006 169.552 162.526 169.336 161.87 169.336C161.214 169.336 160.738 169.552 160.442 169.984C160.146 170.416 159.998 171.012 159.998 171.772ZM171.704 170.188C171.704 170.588 171.584 170.9 171.344 171.124C171.104 171.348 170.796 171.5 170.42 171.58V171.628C170.82 171.684 171.168 171.828 171.464 172.06C171.76 172.284 171.908 172.636 171.908 173.116C171.908 173.66 171.704 174.112 171.296 174.472C170.896 174.824 170.232 175 169.304 175H166.532V168.568H169.292C169.748 168.568 170.156 168.62 170.516 168.724C170.884 168.82 171.172 168.988 171.38 169.228C171.596 169.46 171.704 169.78 171.704 170.188ZM170.636 170.32C170.636 170.016 170.524 169.796 170.3 169.66C170.084 169.516 169.728 169.444 169.232 169.444H167.588V171.208H169.04C170.104 171.208 170.636 170.912 170.636 170.32ZM170.816 173.116C170.816 172.748 170.676 172.484 170.396 172.324C170.116 172.164 169.704 172.084 169.16 172.084H167.588V174.148H169.184C169.712 174.148 170.116 174.072 170.396 173.92C170.676 173.76 170.816 173.492 170.816 173.116ZM175.882 168.46C176.666 168.46 177.246 168.632 177.622 168.976C177.998 169.32 178.186 169.868 178.186 170.62V175H177.418L177.214 174.088H177.166C176.886 174.44 176.59 174.7 176.278 174.868C175.974 175.036 175.55 175.12 175.006 175.12C174.422 175.12 173.938 174.968 173.554 174.664C173.17 174.352 172.978 173.868 172.978 173.212C172.978 172.572 173.23 172.08 173.734 171.736C174.238 171.384 175.014 171.192 176.062 171.16L177.154 171.124V170.74C177.154 170.204 177.038 169.832 176.806 169.624C176.574 169.416 176.246 169.312 175.822 169.312C175.486 169.312 175.166 169.364 174.862 169.468C174.558 169.564 174.274 169.676 174.01 169.804L173.686 169.012C173.966 168.86 174.298 168.732 174.682 168.628C175.066 168.516 175.466 168.46 175.882 168.46ZM176.194 171.892C175.394 171.924 174.838 172.052 174.526 172.276C174.222 172.5 174.07 172.816 174.07 173.224C174.07 173.584 174.178 173.848 174.394 174.016C174.618 174.184 174.902 174.268 175.246 174.268C175.79 174.268 176.242 174.12 176.602 173.824C176.962 173.52 177.142 173.056 177.142 172.432V171.856L176.194 171.892ZM181.228 168.568V171.244H184.72V168.568H185.776V175H184.72V172.132H181.228V175H180.172V168.568H181.228ZM188.869 168.568V171.244H192.361V168.568H193.417V175H192.361V172.132H188.869V175H187.813V168.568H188.869ZM194.446 168.568H195.574L196.966 172.228C197.086 172.548 197.194 172.856 197.29 173.152C197.386 173.44 197.458 173.716 197.506 173.98H197.554C197.602 173.78 197.678 173.52 197.782 173.2C197.886 172.872 197.994 172.544 198.106 172.216L199.414 168.568H200.554L197.782 175.888C197.558 176.496 197.266 176.98 196.906 177.34C196.554 177.7 196.066 177.88 195.442 177.88C195.25 177.88 195.082 177.868 194.938 177.844C194.794 177.828 194.67 177.808 194.566 177.784V176.944C194.654 176.96 194.758 176.976 194.878 176.992C195.006 177.008 195.138 177.016 195.274 177.016C195.642 177.016 195.938 176.912 196.162 176.704C196.394 176.496 196.574 176.22 196.702 175.876L197.038 175.024L194.446 168.568ZM209.923 171.772C209.923 172.836 209.667 173.66 209.155 174.244C208.643 174.828 207.951 175.12 207.079 175.12C206.263 175.12 205.603 174.864 205.099 174.352C204.603 173.84 204.323 173.1 204.259 172.132H202.627V175H201.571V168.568H202.627V171.244H204.271C204.359 170.34 204.651 169.648 205.147 169.168C205.643 168.688 206.295 168.448 207.103 168.448C207.655 168.448 208.143 168.58 208.567 168.844C208.991 169.1 209.323 169.476 209.563 169.972C209.803 170.46 209.923 171.06 209.923 171.772ZM205.339 171.772C205.339 172.58 205.479 173.196 205.759 173.62C206.039 174.036 206.483 174.244 207.091 174.244C207.707 174.244 208.151 174.036 208.423 173.62C208.695 173.196 208.831 172.58 208.831 171.772C208.831 170.964 208.691 170.356 208.411 169.948C208.139 169.54 207.699 169.336 207.091 169.336C206.483 169.336 206.039 169.54 205.759 169.948C205.479 170.356 205.339 170.964 205.339 171.772ZM41.0023 193.12C40.4343 193.12 39.9263 193.004 39.4783 192.772C39.0383 192.54 38.6903 192.18 38.4343 191.692C38.1863 191.204 38.0623 190.58 38.0623 189.82C38.0623 189.028 38.1943 188.384 38.4583 187.888C38.7223 187.392 39.0783 187.028 39.5263 186.796C39.9823 186.564 40.4983 186.448 41.0743 186.448C41.4023 186.448 41.7183 186.484 42.0223 186.556C42.3263 186.62 42.5743 186.7 42.7663 186.796L42.4423 187.672C42.2503 187.6 42.0263 187.532 41.7703 187.468C41.5143 187.404 41.2743 187.372 41.0503 187.372C39.7863 187.372 39.1543 188.184 39.1543 189.808C39.1543 190.584 39.3063 191.18 39.6103 191.596C39.9223 192.004 40.3823 192.208 40.9903 192.208C41.3423 192.208 41.6503 192.172 41.9143 192.1C42.1863 192.028 42.4343 191.94 42.6583 191.836V192.772C42.4423 192.884 42.2023 192.968 41.9383 193.024C41.6823 193.088 41.3703 193.12 41.0023 193.12ZM48.628 187.456H46.528V193H45.484V187.456H43.408V186.568H48.628V187.456ZM52.955 186.448C53.747 186.448 54.383 186.724 54.863 187.276C55.351 187.828 55.595 188.66 55.595 189.772C55.595 190.868 55.351 191.7 54.863 192.268C54.383 192.836 53.743 193.12 52.943 193.12C52.447 193.12 52.035 193.028 51.707 192.844C51.387 192.652 51.135 192.432 50.951 192.184H50.879C50.895 192.32 50.911 192.492 50.927 192.7C50.943 192.908 50.951 193.088 50.951 193.24V195.88H49.895V186.568H50.759L50.903 187.444H50.951C51.143 187.164 51.395 186.928 51.707 186.736C52.019 186.544 52.435 186.448 52.955 186.448ZM52.763 187.336C52.107 187.336 51.643 187.52 51.371 187.888C51.107 188.256 50.967 188.816 50.951 189.568V189.772C50.951 190.564 51.079 191.176 51.335 191.608C51.599 192.032 52.083 192.244 52.787 192.244C53.179 192.244 53.499 192.136 53.747 191.92C54.003 191.704 54.191 191.412 54.311 191.044C54.439 190.668 54.503 190.24 54.503 189.76C54.503 189.024 54.359 188.436 54.071 187.996C53.791 187.556 53.355 187.336 52.763 187.336ZM56.1526 186.568H57.2806L58.6726 190.228C58.7926 190.548 58.9006 190.856 58.9966 191.152C59.0926 191.44 59.1646 191.716 59.2126 191.98H59.2606C59.3086 191.78 59.3846 191.52 59.4886 191.2C59.5926 190.872 59.7006 190.544 59.8126 190.216L61.1206 186.568H62.2606L59.4886 193.888C59.2646 194.496 58.9726 194.98 58.6126 195.34C58.2606 195.7 57.7726 195.88 57.1486 195.88C56.9566 195.88 56.7886 195.868 56.6446 195.844C56.5006 195.828 56.3766 195.808 56.2726 195.784V194.944C56.3606 194.96 56.4646 194.976 56.5846 194.992C56.7126 195.008 56.8446 195.016 56.9806 195.016C57.3486 195.016 57.6446 194.912 57.8686 194.704C58.1006 194.496 58.2806 194.22 58.4086 193.876L58.7446 193.024L56.1526 186.568ZM67.0818 186.568H68.2338L65.4858 189.664L68.4618 193H67.2378L64.3338 189.736V193H63.2778V186.568H64.3338V189.688L67.0818 186.568ZM74.0694 187.456H71.9694V193H70.9254V187.456H68.8494V186.568H74.0694V187.456ZM74.3284 186.568H75.4564L76.8484 190.228C76.9684 190.548 77.0764 190.856 77.1724 191.152C77.2684 191.44 77.3404 191.716 77.3884 191.98H77.4364C77.4844 191.78 77.5604 191.52 77.6644 191.2C77.7684 190.872 77.8764 190.544 77.9884 190.216L79.2964 186.568H80.4364L77.6644 193.888C77.4404 194.496 77.1484 194.98 76.7884 195.34C76.4364 195.7 75.9484 195.88 75.3244 195.88C75.1324 195.88 74.9644 195.868 74.8204 195.844C74.6764 195.828 74.5524 195.808 74.4484 195.784V194.944C74.5364 194.96 74.6404 194.976 74.7604 194.992C74.8884 195.008 75.0204 195.016 75.1564 195.016C75.5244 195.016 75.8204 194.912 76.0444 194.704C76.2764 194.496 76.4564 194.22 76.5844 193.876L76.9204 193.024L74.3284 186.568ZM84.5136 186.448C85.3056 186.448 85.9416 186.724 86.4216 187.276C86.9096 187.828 87.1536 188.66 87.1536 189.772C87.1536 190.868 86.9096 191.7 86.4216 192.268C85.9416 192.836 85.3016 193.12 84.5016 193.12C84.0056 193.12 83.5936 193.028 83.2656 192.844C82.9456 192.652 82.6936 192.432 82.5096 192.184H82.4376C82.4536 192.32 82.4696 192.492 82.4856 192.7C82.5016 192.908 82.5096 193.088 82.5096 193.24V195.88H81.4536V186.568H82.3176L82.4616 187.444H82.5096C82.7016 187.164 82.9536 186.928 83.2656 186.736C83.5776 186.544 83.9936 186.448 84.5136 186.448ZM84.3216 187.336C83.6656 187.336 83.2016 187.52 82.9296 187.888C82.6656 188.256 82.5256 188.816 82.5096 189.568V189.772C82.5096 190.564 82.6376 191.176 82.8936 191.608C83.1576 192.032 83.6416 192.244 84.3456 192.244C84.7376 192.244 85.0576 192.136 85.3056 191.92C85.5616 191.704 85.7496 191.412 85.8696 191.044C85.9976 190.668 86.0616 190.24 86.0616 189.76C86.0616 189.024 85.9176 188.436 85.6296 187.996C85.3496 187.556 84.9136 187.336 84.3216 187.336ZM87.7112 186.568H88.8392L90.2312 190.228C90.3512 190.548 90.4592 190.856 90.5552 191.152C90.6512 191.44 90.7232 191.716 90.7712 191.98H90.8192C90.8672 191.78 90.9432 191.52 91.0472 191.2C91.1512 190.872 91.2592 190.544 91.3712 190.216L92.6792 186.568H93.8192L91.0472 193.888C90.8232 194.496 90.5312 194.98 90.1712 195.34C89.8192 195.7 89.3312 195.88 88.7072 195.88C88.5152 195.88 88.3472 195.868 88.2032 195.844C88.0592 195.828 87.9352 195.808 87.8312 195.784V194.944C87.9192 194.96 88.0232 194.976 88.1432 194.992C88.2712 195.008 88.4032 195.016 88.5392 195.016C88.9072 195.016 89.2032 194.912 89.4272 194.704C89.6592 194.496 89.8392 194.22 89.9672 193.876L90.3032 193.024L87.7112 186.568ZM103.126 188.188C103.126 188.588 103.006 188.9 102.766 189.124C102.526 189.348 102.218 189.5 101.842 189.58V189.628C102.242 189.684 102.59 189.828 102.886 190.06C103.182 190.284 103.33 190.636 103.33 191.116C103.33 191.66 103.126 192.112 102.718 192.472C102.318 192.824 101.654 193 100.726 193H97.9536V186.568H100.714C101.17 186.568 101.578 186.62 101.938 186.724C102.306 186.82 102.594 186.988 102.802 187.228C103.018 187.46 103.126 187.78 103.126 188.188ZM102.058 188.32C102.058 188.016 101.946 187.796 101.722 187.66C101.506 187.516 101.15 187.444 100.654 187.444H99.0096V189.208H100.462C101.526 189.208 102.058 188.912 102.058 188.32ZM102.238 191.116C102.238 190.748 102.098 190.484 101.818 190.324C101.538 190.164 101.126 190.084 100.582 190.084H99.0096V192.148H100.606C101.134 192.148 101.538 192.072 101.818 191.92C102.098 191.76 102.238 191.492 102.238 191.116ZM107.304 186.46C108.088 186.46 108.668 186.632 109.044 186.976C109.42 187.32 109.608 187.868 109.608 188.62V193H108.84L108.636 192.088H108.588C108.308 192.44 108.012 192.7 107.7 192.868C107.396 193.036 106.972 193.12 106.428 193.12C105.844 193.12 105.36 192.968 104.976 192.664C104.592 192.352 104.4 191.868 104.4 191.212C104.4 190.572 104.652 190.08 105.156 189.736C105.66 189.384 106.436 189.192 107.484 189.16L108.576 189.124V188.74C108.576 188.204 108.46 187.832 108.228 187.624C107.996 187.416 107.668 187.312 107.244 187.312C106.908 187.312 106.588 187.364 106.284 187.468C105.98 187.564 105.696 187.676 105.432 187.804L105.108 187.012C105.388 186.86 105.72 186.732 106.104 186.628C106.488 186.516 106.888 186.46 107.304 186.46ZM107.616 189.892C106.816 189.924 106.26 190.052 105.948 190.276C105.644 190.5 105.492 190.816 105.492 191.224C105.492 191.584 105.6 191.848 105.816 192.016C106.04 192.184 106.324 192.268 106.668 192.268C107.212 192.268 107.664 192.12 108.024 191.824C108.384 191.52 108.564 191.056 108.564 190.432V189.856L107.616 189.892ZM120.318 186.568V193H111.594V186.568H112.65V192.112H115.422V186.568H116.478V192.112H119.262V186.568H120.318ZM124.859 186.448C125.411 186.448 125.883 186.568 126.275 186.808C126.675 187.048 126.979 187.388 127.187 187.828C127.403 188.26 127.511 188.768 127.511 189.352V189.988H123.107C123.123 190.716 123.307 191.272 123.659 191.656C124.019 192.032 124.519 192.22 125.159 192.22C125.567 192.22 125.927 192.184 126.239 192.112C126.559 192.032 126.887 191.92 127.223 191.776V192.7C126.895 192.844 126.571 192.948 126.251 193.012C125.931 193.084 125.551 193.12 125.111 193.12C124.503 193.12 123.963 192.996 123.491 192.748C123.027 192.5 122.663 192.132 122.399 191.644C122.143 191.148 122.015 190.544 122.015 189.832C122.015 189.128 122.131 188.524 122.363 188.02C122.603 187.516 122.935 187.128 123.359 186.856C123.791 186.584 124.291 186.448 124.859 186.448ZM124.847 187.312C124.343 187.312 123.943 187.476 123.647 187.804C123.359 188.124 123.187 188.572 123.131 189.148H126.407C126.399 188.604 126.271 188.164 126.023 187.828C125.775 187.484 125.383 187.312 124.847 187.312ZM133.073 186.568V187.456H130.205V193H129.149V186.568H133.073ZM139.815 189.772C139.815 190.836 139.543 191.66 138.999 192.244C138.463 192.828 137.735 193.12 136.815 193.12C136.247 193.12 135.739 192.992 135.291 192.736C134.851 192.472 134.503 192.092 134.247 191.596C133.991 191.092 133.863 190.484 133.863 189.772C133.863 188.708 134.131 187.888 134.667 187.312C135.203 186.736 135.931 186.448 136.851 186.448C137.435 186.448 137.947 186.58 138.387 186.844C138.835 187.1 139.183 187.476 139.431 187.972C139.687 188.46 139.815 189.06 139.815 189.772ZM134.955 189.772C134.955 190.532 135.103 191.136 135.399 191.584C135.703 192.024 136.183 192.244 136.839 192.244C137.487 192.244 137.963 192.024 138.267 191.584C138.571 191.136 138.723 190.532 138.723 189.772C138.723 189.012 138.571 188.416 138.267 187.984C137.963 187.552 137.483 187.336 136.827 187.336C136.171 187.336 135.695 187.552 135.399 187.984C135.103 188.416 134.955 189.012 134.955 189.772ZM150.042 186.568V193H148.986V187.468H145.662V193H144.606V186.568H150.042ZM155.154 186.448C155.946 186.448 156.582 186.724 157.062 187.276C157.55 187.828 157.794 188.66 157.794 189.772C157.794 190.868 157.55 191.7 157.062 192.268C156.582 192.836 155.942 193.12 155.142 193.12C154.646 193.12 154.234 193.028 153.906 192.844C153.586 192.652 153.334 192.432 153.15 192.184H153.078C153.094 192.32 153.11 192.492 153.126 192.7C153.142 192.908 153.15 193.088 153.15 193.24V195.88H152.094V186.568H152.958L153.102 187.444H153.15C153.342 187.164 153.594 186.928 153.906 186.736C154.218 186.544 154.634 186.448 155.154 186.448ZM154.962 187.336C154.306 187.336 153.842 187.52 153.57 187.888C153.306 188.256 153.166 188.816 153.15 189.568V189.772C153.15 190.564 153.278 191.176 153.534 191.608C153.798 192.032 154.282 192.244 154.986 192.244C155.378 192.244 155.698 192.136 155.946 191.92C156.202 191.704 156.39 191.412 156.51 191.044C156.638 190.668 156.702 190.24 156.702 189.76C156.702 189.024 156.558 188.436 156.27 187.996C155.99 187.556 155.554 187.336 154.962 187.336ZM165.069 189.772C165.069 190.836 164.797 191.66 164.253 192.244C163.717 192.828 162.989 193.12 162.069 193.12C161.501 193.12 160.993 192.992 160.545 192.736C160.105 192.472 159.757 192.092 159.501 191.596C159.245 191.092 159.117 190.484 159.117 189.772C159.117 188.708 159.385 187.888 159.921 187.312C160.457 186.736 161.185 186.448 162.105 186.448C162.689 186.448 163.201 186.58 163.641 186.844C164.089 187.1 164.437 187.476 164.685 187.972C164.941 188.46 165.069 189.06 165.069 189.772ZM160.209 189.772C160.209 190.532 160.357 191.136 160.653 191.584C160.957 192.024 161.437 192.244 162.093 192.244C162.741 192.244 163.217 192.024 163.521 191.584C163.825 191.136 163.977 190.532 163.977 189.772C163.977 189.012 163.825 188.416 163.521 187.984C163.217 187.552 162.737 187.336 162.081 187.336C161.425 187.336 160.949 187.552 160.653 187.984C160.357 188.416 160.209 189.012 160.209 189.772ZM171.519 186.568V192.112H172.455V195.232H171.435V193H166.959V195.232H165.951V192.112H166.467C167.019 191.352 167.431 190.488 167.703 189.52C167.983 188.544 168.127 187.56 168.135 186.568H171.519ZM169.071 187.396C169.039 187.94 168.955 188.504 168.819 189.088C168.683 189.664 168.507 190.216 168.291 190.744C168.083 191.272 167.839 191.728 167.559 192.112H170.499V187.396H169.071ZM172.707 186.568H173.835L175.227 190.228C175.347 190.548 175.455 190.856 175.551 191.152C175.647 191.44 175.719 191.716 175.767 191.98H175.815C175.863 191.78 175.939 191.52 176.043 191.2C176.147 190.872 176.255 190.544 176.367 190.216L177.675 186.568H178.815L176.043 193.888C175.819 194.496 175.527 194.98 175.167 195.34C174.815 195.7 174.327 195.88 173.703 195.88C173.511 195.88 173.343 195.868 173.199 195.844C173.055 195.828 172.931 195.808 172.827 195.784V194.944C172.915 194.96 173.019 194.976 173.139 194.992C173.267 195.008 173.399 195.016 173.535 195.016C173.903 195.016 174.199 194.912 174.423 194.704C174.655 194.496 174.835 194.22 174.963 193.876L175.299 193.024L172.707 186.568ZM183.637 186.568H184.789L182.041 189.664L185.017 193H183.793L180.889 189.736V193H179.833V186.568H180.889V189.688L183.637 186.568ZM190.624 187.456H188.524V193H187.48V187.456H185.404V186.568H190.624V187.456ZM194.327 186.46C195.111 186.46 195.691 186.632 196.067 186.976C196.443 187.32 196.631 187.868 196.631 188.62V193H195.863L195.659 192.088H195.611C195.331 192.44 195.035 192.7 194.723 192.868C194.419 193.036 193.995 193.12 193.451 193.12C192.867 193.12 192.383 192.968 191.999 192.664C191.615 192.352 191.423 191.868 191.423 191.212C191.423 190.572 191.675 190.08 192.179 189.736C192.683 189.384 193.459 189.192 194.507 189.16L195.599 189.124V188.74C195.599 188.204 195.483 187.832 195.251 187.624C195.019 187.416 194.691 187.312 194.267 187.312C193.931 187.312 193.611 187.364 193.307 187.468C193.003 187.564 192.719 187.676 192.455 187.804L192.131 187.012C192.411 186.86 192.743 186.732 193.127 186.628C193.511 186.516 193.911 186.46 194.327 186.46ZM194.639 189.892C193.839 189.924 193.283 190.052 192.971 190.276C192.667 190.5 192.515 190.816 192.515 191.224C192.515 191.584 192.623 191.848 192.839 192.016C193.063 192.184 193.347 192.268 193.691 192.268C194.235 192.268 194.687 192.12 195.047 191.824C195.407 191.52 195.587 191.056 195.587 190.432V189.856L194.639 189.892Z" fill="black"/>
<path d="M100.38 92.172V102H97.986V97.954H94.262V102H91.868V92.172H94.262V96.022H97.986V92.172H100.38ZM109.178 92.172V94.09H106.574V102H104.18V94.09H101.576V92.172H109.178ZM121.51 92.172V102H119.116V96.106L116.918 102H114.986L112.774 96.092V102H110.38V92.172H113.208L115.966 98.976L118.696 92.172H121.51ZM125.625 100.152H128.761V102H123.231V92.172H125.625V100.152ZM136.861 93.866H132.493V95.798C132.68 95.5927 132.941 95.4247 133.277 95.294C133.613 95.1633 133.977 95.098 134.369 95.098C135.069 95.098 135.648 95.2567 136.105 95.574C136.572 95.8913 136.912 96.302 137.127 96.806C137.342 97.31 137.449 97.856 137.449 98.444C137.449 99.536 137.141 100.404 136.525 101.048C135.909 101.683 135.041 102 133.921 102C133.174 102 132.526 101.874 131.975 101.622C131.424 101.361 131 101.001 130.701 100.544C130.402 100.087 130.239 99.5593 130.211 98.962H132.549C132.605 99.2513 132.74 99.494 132.955 99.69C133.17 99.8767 133.464 99.97 133.837 99.97C134.276 99.97 134.602 99.83 134.817 99.55C135.032 99.27 135.139 98.8967 135.139 98.43C135.139 97.9727 135.027 97.6227 134.803 97.38C134.579 97.1373 134.252 97.016 133.823 97.016C133.506 97.016 133.244 97.0953 133.039 97.254C132.834 97.4033 132.698 97.604 132.633 97.856H130.323V91.766H136.861V93.866Z" fill="black"/>
<path d="M97.4146 76.2005L93.1948 25.2242H139.564L135.34 76.1925L116.351 81.8623L97.4146 76.2005Z" fill="#E53D20"/>
<path d="M116.379 77.5286L131.723 72.9471L135.333 29.3923H116.379V77.5286Z" fill="#F15123"/>
<path d="M116.379 48.2988H108.698L108.167 41.8966H116.379V35.6445H116.359H101.823L101.962 37.3218L103.389 54.5507H116.379V48.2988Z" fill="#EDEDED"/>
<path d="M116.379 64.5358L116.354 64.5432L109.889 62.663L109.476 57.6768H106.334H103.648L104.462 67.4933L116.353 71.0485L116.379 71.0406V64.5358Z" fill="#EDEDED"/>
<path d="M97.5089 11.3711H100.459V14.5102H103.157V11.3711H106.108V20.877H103.158V17.6939H100.459V20.877H97.5092V11.3711H97.5089Z" fill="#100F0D"/>
<path d="M109.987 14.5234H107.39V11.3711H115.535V14.5234H112.937V20.877H109.987V14.5234H109.987Z" fill="#100F0D"/>
<path d="M116.828 11.3711H119.904L121.796 14.7112L123.687 11.3711H126.764V20.877H123.826V16.1653L121.796 19.5452H121.746L119.715 16.1653V20.877H116.828V11.3711Z" fill="#100F0D"/>
<path d="M128.232 11.3711H131.183V17.7349H135.331V20.877H128.232V11.3711Z" fill="#100F0D"/>
<path d="M116.359 48.2988V54.5507H123.507L122.834 62.6591L116.359 64.5412V71.0456L128.26 67.4934L128.347 66.4372L129.711 49.9776L129.853 48.2988H128.288H116.359Z" fill="white"/>
<path d="M116.359 35.6446V41.8966H130.362H130.381L130.497 40.4913L130.762 37.3218L130.901 35.6446H116.359Z" fill="white"/>
</g>
<defs>
<linearGradient id="paint0_linear" x1="118" y1="-12" x2="124.5" y2="403.5" gradientUnits="userSpaceOnUse">
<stop stop-color="white"/>
<stop offset="1" stop-color="white" stop-opacity="0"/>
</linearGradient>
<clipPath id="clip0">
<rect width="234" height="212" fill="white"/>
</clipPath>
</defs>
</svg>
