<svg width="47" height="47" viewBox="0 0 47 47" fill="none" xmlns="http://www.w3.org/2000/svg">
<g clip-path="url(#clip0)">
<g filter="url(#filter0_d)">
<path d="M23.5862 38.8889C27.6406 38.8889 31.529 37.25 34.396 34.3328C37.2629 31.4155 38.8735 27.4589 38.8735 23.3333C38.8735 19.2077 37.2629 15.2511 34.396 12.3339C31.529 9.41666 27.6406 7.77777 23.5862 7.77777C19.5317 7.77777 15.6433 9.41666 12.7764 12.3339C9.90946 15.2511 8.29883 19.2077 8.29883 23.3333C8.29883 27.4589 9.90946 31.4155 12.7764 34.3328C15.6433 37.25 19.5317 38.8889 23.5862 38.8889ZM23.5862 42.7778C13.0322 42.7778 4.47699 34.0725 4.47699 23.3333C4.47699 12.5942 13.0322 3.88889 23.5862 3.88889C34.1402 3.88889 42.6954 12.5942 42.6954 23.3333C42.6954 34.0725 34.1402 42.7778 23.5862 42.7778Z" fill="white"/>
<path d="M23.5862 39.3889C27.7761 39.3889 31.7926 37.6952 34.7526 34.6832C37.7123 31.6716 39.3735 27.5888 39.3735 23.3333C39.3735 19.0779 37.7123 14.9951 34.7526 11.9834C31.7926 8.97149 27.7761 7.27777 23.5862 7.27777C19.3963 7.27777 15.3798 8.97149 12.4198 11.9834C9.46006 14.9951 7.79883 19.0779 7.79883 23.3333C7.79883 27.5888 9.46006 31.6716 12.4198 34.6832C15.3798 37.6952 19.3963 39.3889 23.5862 39.3889ZM23.5862 42.2778C13.3165 42.2778 4.97699 33.8046 4.97699 23.3333C4.97699 12.8621 13.3165 4.38889 23.5862 4.38889C33.8559 4.38889 42.1954 12.8621 42.1954 23.3333C42.1954 33.8046 33.8559 42.2778 23.5862 42.2778Z" stroke="black"/>
</g>
<path d="M30.5495 22.1745C30.5725 19.2734 28.2201 16.6134 25.306 16.2459L25.1149 16.2167C24.9688 16.1872 24.8205 16.1703 24.6715 16.1661C24.0734 16.1661 23.9148 16.6056 23.8728 16.8681C23.8489 16.9771 23.8468 17.0899 23.8665 17.1997C23.8862 17.3096 23.9273 17.4144 23.9874 17.5078C24.1862 17.7897 24.534 17.8384 24.8129 17.8811C24.8951 17.8928 24.9735 17.9025 25.0365 17.92C27.6564 18.5325 28.5392 19.4989 28.9692 22.227C28.9807 22.295 28.9845 22.3767 28.9883 22.4642C29.0074 22.7889 29.0475 23.4675 29.7431 23.4675C29.8004 23.4675 29.8616 23.4636 29.9266 23.452C30.5744 23.3489 30.5533 22.7286 30.5438 22.4311C30.539 22.3593 30.539 22.2872 30.5438 22.2153C30.5459 22.2024 30.5472 22.1894 30.5476 22.1764L30.5495 22.1745Z" fill="white"/>
<path d="M24.5035 15.1803C24.5799 15.1861 24.6563 15.192 24.7156 15.2017C29.0151 15.8978 30.9949 18.0367 31.5433 22.5906C31.5528 22.6684 31.5528 22.7617 31.5548 22.8628C31.5605 23.2186 31.572 23.9575 32.3287 23.9731H32.3516C32.4555 23.9787 32.5594 23.9617 32.6563 23.9231C32.7532 23.8845 32.8408 23.8253 32.9134 23.7495C33.1485 23.4909 33.1332 23.1078 33.1198 22.7967C33.116 22.7228 33.1122 22.6509 33.1141 22.5886C33.1676 17.9317 29.3304 13.7084 24.9009 13.5528L24.8474 13.5547C24.8303 13.5573 24.8131 13.5586 24.7958 13.5586C24.7519 13.5586 24.6965 13.5547 24.6391 13.5509C24.5629 13.5438 24.4864 13.5399 24.4098 13.5392C23.7047 13.5392 23.5709 14.0642 23.5537 14.3792C23.5155 15.1045 24.1824 15.157 24.5035 15.1803ZM31.335 28.4745C31.243 28.4011 31.1519 28.3266 31.0617 28.2509C30.5916 27.8542 30.091 27.4886 29.6094 27.1347C29.5087 27.061 29.408 26.9871 29.3075 26.9131C28.6884 26.4581 28.1323 26.2345 27.6068 26.2345C26.8998 26.2345 26.2825 26.6467 25.7723 27.4575C25.5468 27.8153 25.2716 27.9903 24.9353 27.9903C24.7005 27.9818 24.4704 27.9214 24.2608 27.8134C22.2639 26.8606 20.8364 25.4022 20.0204 23.4772C19.6268 22.5439 19.7529 21.9372 20.4485 21.4414C20.8421 21.1614 21.5759 20.6384 21.5243 19.637C21.467 18.4995 19.0764 15.0772 18.0694 14.6884C17.6398 14.5234 17.1661 14.522 16.7356 14.6845C15.5795 15.0928 14.7482 15.8122 14.3335 16.7592C13.9323 17.677 13.9514 18.7522 14.387 19.8722C15.6425 23.1117 17.4063 25.935 19.6344 28.2645C21.8129 30.5453 24.492 32.412 27.5953 33.8159C27.8743 33.9423 28.1686 34.0103 28.3826 34.0609L28.5642 34.1075C28.589 34.1148 28.6147 34.1187 28.6406 34.1192H28.6654C30.1254 34.1192 31.8777 32.7192 32.4166 31.1209C32.8886 29.7209 32.0267 29.0306 31.335 28.4764V28.4745ZM25.1493 18.8806C24.9009 18.8864 24.3792 18.9 24.1958 19.4561C24.1117 19.7167 24.1213 19.9422 24.2264 20.127C24.3812 20.3992 24.6793 20.4828 24.9487 20.5275C25.9271 20.6928 26.4316 21.2625 26.5309 22.3164C26.5787 22.8103 26.894 23.1525 27.2991 23.1525C27.3298 23.1532 27.3604 23.1519 27.3909 23.1486C27.8781 23.0864 28.1132 22.7111 28.0922 22.0306C28.0998 21.3189 27.7463 20.5139 27.1443 19.8722C26.5405 19.2267 25.8124 18.8631 25.1493 18.8806Z" fill="white"/>
</g>
<defs>
<filter id="filter0_d" x="0.47699" y="3.88889" width="46.2184" height="46.8889" filterUnits="userSpaceOnUse" color-interpolation-filters="sRGB">
<feFlood flood-opacity="0" result="BackgroundImageFix"/>
<feColorMatrix in="SourceAlpha" type="matrix" values="0 0 0 0 0 0 0 0 0 0 0 0 0 0 0 0 0 0 127 0" result="hardAlpha"/>
<feOffset dy="4"/>
<feGaussianBlur stdDeviation="2"/>
<feComposite in2="hardAlpha" operator="out"/>
<feColorMatrix type="matrix" values="0 0 0 0 0 0 0 0 0 0 0 0 0 0 0 0 0 0 0.25 0"/>
<feBlend mode="normal" in2="BackgroundImageFix" result="effect1_dropShadow"/>
<feBlend mode="normal" in="SourceGraphic" in2="effect1_dropShadow" result="shape"/>
</filter>
<clipPath id="clip0">
<rect width="45.8621" height="46.6667" fill="white" transform="translate(0.655151)"/>
</clipPath>
</defs>
</svg>
