<svg width="40" height="42" viewBox="0 0 40 42" fill="none" xmlns="http://www.w3.org/2000/svg">
<path fill-rule="evenodd" clip-rule="evenodd" d="M33.5529 6.83817C29.9942 3.12826 25.0861 0.835388 19.655 0.835388C14.224 0.835388 9.31578 3.12826 5.75704 6.83808C2.19863 10.5491 0 15.678 0 21.329C0 26.9918 2.19863 32.1093 5.75704 35.8204C9.31578 39.5307 14.224 41.823 19.655 41.823C25.0861 41.823 29.9942 39.5306 33.5529 35.8204C37.1113 32.1093 39.3104 26.9918 39.3104 21.329C39.3104 15.6781 37.1114 10.5492 33.5529 6.83817ZM32.4649 34.6965C29.1887 38.1121 24.6611 40.223 19.655 40.223C14.6488 40.223 10.1213 38.1121 6.84509 34.6965C3.55915 31.2696 1.53459 26.5493 1.53459 21.3291C1.53459 16.1097 3.55915 11.389 6.84509 7.97342C10.1213 4.55776 14.6488 2.43555 19.655 2.43555C24.6611 2.43555 29.1887 4.55785 32.4649 7.97342C35.7512 11.389 37.775 16.1097 37.775 21.3291C37.775 26.5493 35.7512 31.2696 32.4649 34.6965Z" fill="#FCFCFC"/>
<path fill-rule="evenodd" clip-rule="evenodd" d="M30.5271 15.6215C30.2334 15.3948 29.1778 15.3948 28.1331 15.3948C27.0665 15.4175 25.9996 15.4175 25.7492 15.5197C25.5213 15.6103 25.0096 16.904 24.346 18.2313C23.5835 19.7299 22.659 21.1821 22.071 21.1586C21.2985 21.1586 21.4838 18.6964 21.538 16.87C21.5485 15.6781 21.3636 15.2921 21.2005 15.1907C20.7977 14.8952 19.6879 14.6123 19.6879 14.6123C19.6879 14.6123 16.357 14.3508 15.8895 15.8487C16.5315 15.9396 17.6199 15.7348 17.1954 20.3758C17.1629 20.6033 16.6838 22.5094 15.1384 19.9333C14.7464 19.287 13.2668 15.4175 12.7443 15.3948C11.0349 15.3605 9.33789 15.2812 8.7507 15.6215C8.1952 15.9622 9.49026 18.6172 11.678 22.1808C13.4514 25.1081 15.3345 27.378 18.5994 27.945C19.2197 28.0137 20.809 28.0808 21.3206 27.8318C21.6574 27.6612 21.2331 25.1425 22.3978 24.8923C22.9095 24.7905 24.9003 27.5254 25.6511 27.8318C26.1094 28.0246 27.1102 28.1039 28.1331 28.0581C29.2433 28.0245 30.505 28.1721 30.6248 27.3779C30.8973 25.6416 27.2629 23.3714 27.1645 22.3051C27.0773 21.5336 28.4925 20.1154 29.2104 19.0257C30.1023 17.7094 31.0826 16.121 30.5271 15.6215Z" fill="#FCFCFC"/>
</svg>
