<svg width="50" height="45" viewBox="0 0 50 45" fill="none" xmlns="http://www.w3.org/2000/svg">
<path d="M24.2516 22.8565C23.7426 22.4146 23.1779 21.7942 22.9325 21.2443C22.895 21.1739 22.82 20.9966 22.9325 20.8546C23.1586 20.5717 23.1961 20.5535 23.4415 20.2877C23.6108 20.0922 23.7426 19.9161 23.687 19.7559L22.8394 17.6836C22.7632 17.5415 22.5383 17.5245 22.2735 17.5063C22.0474 17.5063 21.8032 17.5063 21.6327 17.5415C21.2555 17.6654 20.4841 18.622 20.3898 19.3128C20.1818 20.8183 21.6327 22.8202 23.0836 24.0598C24.5345 25.3175 26.7762 26.5048 28.3589 26.1673C29.094 26.0083 30.0359 25.2107 30.1109 24.8392C30.1484 24.6801 30.1302 24.4495 30.0915 24.237C30.0722 23.9893 30.0166 23.8121 29.8654 23.7416L27.9442 22.9088C27.7737 22.8202 27.6044 22.8906 27.4352 23.0861C27.2284 23.3519 27.1329 23.4576 26.8886 23.7416C26.7569 23.9007 26.6625 24.0075 26.5126 24.0245C26.3421 24.0598 26.1172 23.9711 26.0786 23.9711C25.4752 23.778 24.7788 23.2997 24.2516 22.8565ZM17.9208 29.2168L19.0138 26.6127C17.759 25.25 17.0696 23.5076 17.072 21.7056C17.072 17.5609 20.6521 14.2126 25.0617 14.2126C26.1089 14.2118 27.1459 14.4052 28.1134 14.7815C29.081 15.1579 29.96 15.7098 30.7002 16.4058C31.4404 17.1018 32.0273 17.9282 32.4272 18.8376C32.8272 19.747 33.0323 20.7216 33.0308 21.7056C33.0308 25.8504 29.4701 29.2168 25.0617 29.2168C23.3657 29.224 21.713 28.7146 20.3511 27.7648L17.9208 29.2168ZM16.5823 26.665L15.0746 32.3333L20.4635 30.0303C21.8827 30.7277 23.4602 31.0925 25.0617 31.0938C30.5631 31.0938 35.0283 26.8956 35.0283 21.7045C35.0283 16.5326 30.5619 12.3333 25.0617 12.3333C19.541 12.3333 15.0758 16.5315 15.0758 21.7045C15.0758 23.5303 15.6404 25.2311 16.5823 26.665Z" fill="white"/>
<path d="M24.7529 4.33335C34.9134 4.33335 42.2292 11.3279 42.2292 21.6667C42.2292 32.0054 34.9134 39 24.7529 39C14.5925 39 7.37919 32.0054 7.37919 21.6667C7.37919 11.3279 14.5925 4.33335 24.7529 4.33335ZM24.7529 1.66669C13.8972 1.66669 5.09778 10.6217 5.09778 21.6667C5.09778 32.7117 13.8984 41.6667 24.7529 41.6667C35.6075 41.6667 44.4081 32.7129 44.4081 21.6667C44.4081 10.6204 35.6075 1.66669 24.7529 1.66669Z" fill="white"/>
</svg>
